<?xml version="1.0" encoding="UTF-8" standalone="no"?>
<svg
   xmlns:dc="http://purl.org/dc/elements/1.1/"
   xmlns:cc="http://creativecommons.org/ns#"
   xmlns:rdf="http://www.w3.org/1999/02/22-rdf-syntax-ns#"
   xmlns:svg="http://www.w3.org/2000/svg"
   xmlns="http://www.w3.org/2000/svg"
   xmlns:sodipodi="http://sodipodi.sourceforge.net/DTD/sodipodi-0.dtd"
   xmlns:inkscape="http://www.inkscape.org/namespaces/inkscape"
   width="199.01665mm"
   height="199.00511mm"
   viewBox="0 0 199.01665 199.00511"
   version="1.1"
   id="svg4349"
   inkscape:version="1.0.2 (e86c8708, 2021-01-15)"
   sodipodi:docname="evalhyd-python_logo.svg">
  <defs
     id="defs4343" />
  <sodipodi:namedview
     id="base"
     pagecolor="#ffffff"
     bordercolor="#666666"
     borderopacity="1.0"
     inkscape:pageopacity="0.0"
     inkscape:pageshadow="2"
     inkscape:zoom="0.35"
     inkscape:cx="384.666"
     inkscape:cy="573.21541"
     inkscape:document-units="mm"
     inkscape:current-layer="layer1"
     inkscape:document-rotation="0"
     showgrid="false"
     fit-margin-top="5"
     fit-margin-left="5"
     fit-margin-right="5"
     fit-margin-bottom="5"
     inkscape:window-width="1252"
     inkscape:window-height="943"
     inkscape:window-x="0"
     inkscape:window-y="25"
     inkscape:window-maximized="0" />
  <metadata
     id="metadata4346">
    <rdf:RDF>
      <cc:Work
         rdf:about="">
        <dc:format>image/svg+xml</dc:format>
        <dc:type
           rdf:resource="http://purl.org/dc/dcmitype/StillImage" />
        <dc:title></dc:title>
      </cc:Work>
    </rdf:RDF>
  </metadata>
  <g
     inkscape:label="Layer 1"
     inkscape:groupmode="layer"
     id="layer1"
     transform="translate(-4.0571215,3.4965785)">
    <g
       id="g4325"
       transform="matrix(0.35277777,0,0,-0.35277777,-2700.4658,-1683.4946)">
      <path
         id="path2830"
         style="color:#000000;font-style:normal;font-variant:normal;font-weight:normal;font-stretch:normal;font-size:medium;line-height:normal;font-family:sans-serif;font-variant-ligatures:normal;font-variant-position:normal;font-variant-caps:normal;font-variant-numeric:normal;font-variant-alternates:normal;font-variant-east-asian:normal;font-feature-settings:normal;font-variation-settings:normal;text-indent:0;text-align:start;text-decoration:none;text-decoration-line:none;text-decoration-style:solid;text-decoration-color:#000000;letter-spacing:normal;word-spacing:normal;text-transform:none;writing-mode:lr-tb;direction:ltr;text-orientation:mixed;dominant-baseline:auto;baseline-shift:baseline;text-anchor:start;white-space:normal;shape-padding:0;shape-margin:0;inline-size:0;clip-rule:nonzero;display:inline;overflow:visible;visibility:visible;isolation:auto;mix-blend-mode:normal;color-interpolation:sRGB;color-interpolation-filters:linearRGB;solid-color:#000000;solid-opacity:1;vector-effect:none;fill:#a3c208;fill-opacity:1;fill-rule:evenodd;stroke:none;stroke-width:12.2168;stroke-linecap:round;stroke-linejoin:round;stroke-miterlimit:10;stroke-dasharray:none;stroke-dashoffset:0;stroke-opacity:1;color-rendering:auto;image-rendering:auto;shape-rendering:auto;text-rendering:auto;enable-background:accumulate;stop-color:#000000"
         d="m 8014.4095,-4806.5647 c -40.806,0 -81.612,-15.5667 -112.746,-46.7007 -62.268,-62.2679 -62.268,-163.2243 0,-225.4922 62.268,-62.2678 163.224,-62.2678 225.492,0 62.268,62.2679 62.268,163.2243 0,225.4922 -31.134,31.134 -71.94,46.7007 -112.746,46.7007 z m -1.9178,-57.1113 c 8.3205,0.023 16.8525,-0.6168 25.0298,-1.9644 13.2487,-2.2386 24.396,-12.152 24.396,-25.4004 v -46.5513 c 0,-13.6137 -10.8278,-24.807 -24.396,-24.807 h -48.7905 v 0 c -16.5833,0 -30.5175,-14.2074 -30.5175,-30.334 v -22.295 h -16.7648 c -14.208,0 -22.4767,10.3257 -25.9485,24.7618 -4.6597,19.4157 -4.4767,31.0194 0,49.6128 3.8828,16.2178 16.308,24.7602 30.516,24.7602 h 67.1558 v 6.2124 h -48.837 v 18.5948 c 0,14.1162 3.7462,21.7455 24.396,25.4004 7.332,1.3016 15.441,1.9855 23.7607,2.0082 z m -26.8207,-14.9839 c -5.0715,0 -9.1373,-4.157 -9.1838,-9.3194 0,-5.1165 4.1123,-9.2739 9.1838,-9.2739 5.07,0 9.1815,4.1574 9.1815,9.2739 0,5.1165 -4.1565,9.3194 -9.1815,9.3194 z m 84.606,-37.232 h 18.3195 c 14.208,0 20.8777,-10.6454 24.3952,-24.7617 4.8885,-19.5984 5.1173,-34.3086 0,-49.6128 -4.9335,-14.8471 -10.1872,-24.7602 -24.3952,-24.7602 H 8015.41 v -6.2124 h 48.7455 v -18.5933 c 0,-14.0707 -12.1065,-21.2437 -24.3953,-24.8071 -18.5025,-5.3451 -33.3502,-4.5229 -48.7912,0 -12.8828,3.7916 -24.3938,11.5587 -24.3938,24.8071 v 46.5059 c 0,13.3854 11.0543,24.8057 24.3938,24.8057 h 48.7912 c 16.263,0 30.5168,14.1623 30.5168,30.9741 z m -27.4553,-117.728 c -5.0257,0 -9.138,-4.1117 -9.183,-9.2739 0,-5.1166 4.1573,-9.3193 9.183,-9.3193 5.0708,0 9.1815,4.1571 9.1815,9.3193 0,5.1165 -4.1107,9.2739 -9.1815,9.2739 z" />
      <path
         style="color:#000000;font-style:normal;font-variant:normal;font-weight:normal;font-stretch:normal;font-size:medium;line-height:normal;font-family:sans-serif;font-variant-ligatures:normal;font-variant-position:normal;font-variant-caps:normal;font-variant-numeric:normal;font-variant-alternates:normal;font-variant-east-asian:normal;font-feature-settings:normal;font-variation-settings:normal;text-indent:0;text-align:start;text-decoration:none;text-decoration-line:none;text-decoration-style:solid;text-decoration-color:#000000;letter-spacing:normal;word-spacing:normal;text-transform:none;writing-mode:lr-tb;direction:ltr;text-orientation:mixed;dominant-baseline:auto;baseline-shift:baseline;text-anchor:start;white-space:normal;shape-padding:0;shape-margin:0;inline-size:0;clip-rule:nonzero;display:inline;overflow:visible;visibility:visible;isolation:auto;mix-blend-mode:normal;color-interpolation:sRGB;color-interpolation-filters:linearRGB;solid-color:#000000;solid-opacity:1;vector-effect:none;fill:#a3c208;fill-opacity:1;fill-rule:evenodd;stroke:none;stroke-linecap:round;stroke-linejoin:round;stroke-miterlimit:10;stroke-dasharray:none;stroke-dashoffset:0;stroke-opacity:1;color-rendering:auto;image-rendering:auto;shape-rendering:auto;text-rendering:auto;enable-background:accumulate;stop-color:#000000"
         d="m 8131.4739,-4848.9461 c -64.6023,64.6023 -169.5275,64.6024 -234.1297,0 -64.6023,-64.6022 -64.6023,-169.5275 0,-234.1297 64.6022,-64.6022 169.5274,-64.6021 234.1297,0 64.6022,64.6022 64.6021,169.5275 0,234.1297 z m -8.6386,-8.6385 c 59.9335,-59.9337 59.9336,-156.919 0,-216.8526 -59.9336,-59.9335 -156.919,-59.9335 -216.8525,0 -59.9337,59.9335 -59.9336,156.919 0,216.8526 59.9335,59.9336 156.9189,59.9336 216.8525,0 z"
         id="path2832" />
      <path
         id="path8657-0-05-0-2-3-4-61-5"
         style="fill:#259bd2;fill-opacity:1;fill-rule:evenodd;stroke:#259bd2;stroke-width:1.33498;stroke-linecap:round;stroke-linejoin:round;stroke-miterlimit:10;stroke-dasharray:none;stroke-opacity:1"
         d="m 8215.0746,-5026.527 -0.043,0.043 -1.6405,-2.3602 -1.6407,-6.7442 -1.6432,-5.5835 -1.6407,-0.6208 -1.6406,-2.9279 -3.284,-13.5998 -1.6406,-1.5372 -1.6406,0.1396 -1.6407,-3.0719 -1.6432,-6.82 -1.6407,-4.9548 -1.6405,1.633 -1.6407,2.4661 -1.6433,4.513 -1.6405,7.224 -3.2813,17.2699 -8.2085,47.7683 -3.2813,18.0751 -1.6405,7.3929 -1.6408,4.5812 -1.6431,-0.036 -1.6407,-6.7468 -1.6406,-15.1218 -3.2839,-48.1547 -1.6406,-13.5871 -1.6407,-7.648 -1.6406,-10.894 -3.2839,-29.3173 -3.2814,-22.7522 -1.6431,-7.2035 -1.6406,-3.9932 -1.6408,-3.5312 -1.6405,-2.1001 -1.6431,-2.9607 -1.6408,-5.6059 -1.6406,-7.0878 -1.6408,-4.6065 -1.6431,-1.3175 -1.6406,-0.3003 -1.6407,1.1484 -1.6407,2.1429 -3.2838,5.0987 -3.2813,5.8887 -3.284,6.7419 -3.2813,7.5975 -4.9245,12.5598 -3.2813,8.1757 -1.6431,3.4731 -1.6406,2.5897 -1.6408,1.166 -1.6406,-1.045 -1.6431,-3.8441 -3.2813,-10.841 -1.6407,-9.6571 -1.6432,-13.0648 -3.2813,-24.8722 -1.6406,-9.4377 -1.6433,-2.4912 -1.6406,-0.028 -3.2813,0.7473 -1.6408,-0.071 -1.6431,-0.5326 -1.6407,-0.7218 -3.2813,-1.6204 -1.6431,-1.4262 -1.6407,-2.1632 -1.6407,-1.6608 -1.6407,-0.1791 -3.2837,0.1791 -13.1302,3.1172 -3.2813,0.5327 -1.6434,0.028 -1.6405,-0.2575 -1.6409,-0.5325 -1.6405,-0.3383 -3.2839,0.061 -1.6405,-0.2122 -1.6408,-0.3785 -1.6406,-0.032 -6.5652,1.3452 -3.2837,0.5353 -3.2813,0.2323 -3.284,0.959 -4.9244,1.8451 -4.922,2.2767 -3.2838,1.7973 -4.9222,3.1701 -8.2081,6.2473 -4.9221,3.5815 -1.6431,0.9036 -1.6407,0.4796 -1.6407,0.093 -3.2837,1.1108 -3.2814,0.5072 -1.6407,0.7395 -1.6431,1.5751 -1.6406,2.0343 -6.5652,9.2939 -3.2814,4.3969 -1.6407,1.7087 -1.6432,1.3379 -1.6406,1.6936 -1.6407,2.7285 -1.6406,3.5414 -4.9245,11.6208 -3.2838,7.4411 -1.6406,3.1121 -1.6408,2.2717 -1.6406,0.934 -1.6431,-0.7597 -1.6408,-1.7316 -1.6405,-2.3804 -1.6408,-3.0817 -1.6432,-1.1989 -1.6407,2.8092 -1.6406,4.8109 -3.2838,10.6567 -4.9219,16.3385 -1.6407,4.7098 -1.6432,3.9981 -1.6407,2.5269 -1.6406,0.1258 -1.6406,-3.3395 -4.9245,-20.9627 -3.284,-18.8346 -1.6404,-7.4233 -1.6408,-5.2475 -1.6406,-2.5622 -1.6431,-1.5143 -1.6408,0.3331 -1.6406,0.939 -1.6407,-0.1516 -1.6433,-1.5044 -1.6405,-2.2314 -1.6407,-2.6451 -1.6406,-1.6836 -1.6431,1.3327 -4.9221,8.3977 -3.2839,7.1684 -3.2813,8.6955 -1.6406,5.2525 -3.2839,11.9365 -3.2813,13.5265 -3.2838,15.069 -4.9245,24.5997 -3.2813,15.8816 -1.6407,6.7418 -1.6431,5.1845 -3.2814,7.0143 -1.6406,4.4727 -3.2839,14.0593 -1.6406,5.5706 -1.6408,4.9547 -1.6405,7.5547 -1.6431,10.745 -3.2815,21.3867 -1.6406,7.9963 -1.6432,4.1193 -1.6407,-1.3781 -1.6406,-6.5425 -1.6407,-9.6344 -3.2838,-28.0327 -1.6407,-7.7286 -3.2837,-11.5528 -1.6408,-2.7462 -1.6406,-1.845 -1.6408,-3.6423 -1.6431,-6.2093 -1.6405,-4.5939 -1.6408,-1.729 -1.6406,-5.3713 -3.2839,-17.3454 -1.6406,-5.5329 -1.6407,-1.575 -1.6406,3.2535 -3.2839,9.3114 -1.6405,2.2263 -1.6407,-1.1661 -1.6433,-3.8694 -1.6408,-6.4692 -1.6404,-12.5449 -1.6409,-15.619 -1.6431,-8.2563 -1.6406,2.0018 -1.6408,5.0228 -1.6404,5.7247 -1.6433,7.3173 -1.6407,8.7812 -3.2813,20.266 -4.9244,34.3198 -3.2839,22.2499 -1.6406,9.4301 -1.6406,7.0523 -1.6407,3.2082 -1.6431,-2.6856 -1.6407,-11.3106 -1.6407,-21.6919 -1.6406,-26.6773 -1.6407,-21.4824 -1.6432,-12.6482 -3.2814,-12.7669 -1.6407,-9.5814 -3.2837,-30.4127 -1.6407,-10.7149 -1.6407,-7.1557 -1.6431,-5.3637 -1.6407,-3.0314 -1.6406,0.5148 -1.6407,0.2373 -1.6432,-1.3 -1.6406,-2.683 -1.6407,-4.6822 -1.6406,-8.6021 -4.9245,-39.5802 -0.323,-1.1029 a 267.18137,267.18137 0 0 1 232.7183,-135.9299 267.18137,267.18137 0 0 1 267.1823,267.1799 267.18137,267.18137 0 0 1 -0.5907,17.7594 z" />
      <path
         id="path8657-7-3-2-3-0-9-4-8"
         style="fill:#003a80;fill-opacity:1;fill-rule:evenodd;stroke:#003a80;stroke-width:1.33498;stroke-linecap:round;stroke-linejoin:round;stroke-miterlimit:10;stroke-dasharray:none;stroke-opacity:1"
         d="m 8211.8111,-5089.4955 -1.593,-0.7699 -1.6405,-3.1097 -3.2813,-14.0012 -1.6407,-1.7592 -1.6432,-0.093 -1.6406,-3.3217 -1.6407,-7.085 -1.6406,-5.235 -1.6431,1.3327 -1.6408,2.1456 -1.6406,4.1722 -1.6408,6.8606 -1.6431,7.817 -9.8463,53.917 -3.284,16.823 -1.6407,6.7066 -1.6406,3.8466 -1.6406,-0.8152 -1.6432,-7.5772 -1.6407,-16.0003 -3.2813,-50.0703 -1.6408,-14.6169 -1.6431,-8.7233 -1.6406,-12.0046 -3.2813,-31.5763 -3.2839,-24.8622 -1.6406,-8.0646 -1.6408,-4.5989 -1.6431,-3.7433 -3.2813,-3.3924 -3.2838,-6.1333 -1.6407,-2.5242 -1.6406,-1.9663 -1.6407,-1.1913 -1.6431,0.1069 -1.6408,0.9667 -1.6406,1.1889 -3.2839,2.6832 -3.2813,3.1221 -3.2838,3.5741 -6.5626,8.0671 -3.2839,3.6599 -1.6405,1.2924 -1.6407,0.5982 -1.6433,-0.4948 -1.6406,-2.1479 -3.2812,-8.2035 -1.6431,-2.6275 -3.2814,-7.4788 -3.284,-5.0433 -1.6407,-2.2084 -1.6405,-0.9944 -1.6406,-0.018 -3.2839,0.6108 -1.6407,-0.045 -3.2839,-0.9641 -3.2812,-1.2192 -1.6407,-1.0828 -1.6406,-1.6482 -1.6432,-1.2419 -1.6408,-0.097 -3.2813,0.2244 -13.1303,2.7969 -3.2838,0.5046 -1.6406,0.055 -1.6406,-0.1794 -1.6434,-0.4089 -1.6405,-0.2422 -3.2813,0.1362 -3.284,-0.3938 -1.6405,0.025 -8.2059,1.6534 -4.9244,0.5578 -3.2814,0.9642 -4.9244,1.8425 -4.9247,2.2718 -3.2811,1.797 -4.9247,3.1652 -8.2058,6.2395 -4.9244,3.5793 -1.6407,0.901 -1.6407,0.4772 -1.6431,0.093 -3.2813,1.1079 -3.2838,0.5025 -1.6408,0.7395 -1.6404,1.5726 -1.6408,2.0317 -6.565,9.2887 -3.284,4.392 -1.6406,1.7087 -1.6407,1.3353 -1.6432,1.6911 -1.6407,2.7283 -1.6405,3.5391 -4.9245,11.6158 -3.2813,7.4385 -1.6408,3.1071 -1.6433,2.2718 -1.6404,0.9313 -1.6408,-0.7623 -1.6405,-1.7342 -1.6432,-2.3827 -1.6408,-3.0843 -1.6406,-1.2016 -1.6407,2.8068 -1.6431,4.8085 -3.2814,10.6516 -4.9244,16.3308 -1.6408,4.7075 -1.6406,3.9955 -1.6431,2.5243 -1.6408,0.1241 -1.6405,-3.3421 -4.9246,-20.975 -3.2813,-18.8424 -1.6407,-7.426 -1.6431,-5.25 -1.6407,-2.5696 -1.6407,-1.5169 -1.6406,0.3281 -1.6431,0.9366 -1.6407,-0.1568 -1.6407,-1.5095 -1.6407,-2.2365 -1.6431,-2.6503 -1.6406,-1.6884 -1.6407,1.3277 -4.9246,8.3773 -3.2813,7.1558 -3.2837,8.678 -1.6408,5.245 -3.2813,11.9186 -3.2839,13.5089 -3.2813,15.0486 -4.9245,24.5645 -3.2837,15.8563 -1.6408,6.7293 -1.6405,5.1669 -3.284,6.9815 -1.6405,4.4551 -3.2812,14.0213 -1.6434,5.5529 -1.6407,4.9321 -1.6406,7.5344 -1.6407,10.7198 -3.2838,21.3362 -1.6407,7.9684 -1.6408,4.0892 -1.6404,-1.4085 -1.6432,-6.5752 -1.6408,-9.67 -3.2813,-28.1082 -1.6432,-7.769 -3.2812,-11.6412 -1.6406,-2.7967 -1.6433,-1.8956 -1.6407,-3.6976 -1.6405,-6.2649 -1.6407,-4.6569 -1.6431,-1.7923 -1.6407,-5.4394 -3.2813,-17.4969 -1.6431,-5.6136 -1.6407,-1.6633 -1.6407,3.1627 -3.2838,9.1094 -1.6406,2.1153 -1.6407,-1.2847 -1.6408,-3.9932 -1.6433,-6.6032 -1.6405,-12.686 -1.6407,-15.7655 -1.6406,-8.4177 -1.6407,1.8324 -1.6432,4.8437 -1.6406,5.5328 -1.6407,7.1131 -1.6406,8.564 -3.2839,19.7888 -4.9244,33.4746 -3.2814,21.5884 -1.6406,9.0666 -1.6431,6.661 -1.6408,2.7942 -1.6405,-3.1322 -1.6408,-11.785 -1.6432,-22.1968 -1.6405,-27.2173 -1.6408,-22.0555 -1.6407,-13.2616 -3.2838,-14.1046 -1.6407,-10.3084 -3.2813,-31.9625 -1.6431,-11.53 -1.6407,-7.9787 -1.6408,-6.1765 -1.6405,-3.8114 -3.2839,-0.5022 -1.6406,-1.6306 -1.6408,-2.663 -1.6431,-4.1369 -0.021,-0.086 a 267.18137,267.18137 0 0 1 224.0985,-121.6963 267.18137,267.18137 0 0 1 263.3281,221.9708 z" />
      <path
         id="path2963-8-6-1-3-0-2-96-1"
         style="fill:none;fill-rule:evenodd;stroke:#a3c208;stroke-width:12.6519;stroke-linecap:round;stroke-linejoin:round;stroke-miterlimit:10;stroke-dasharray:none;stroke-opacity:1"
         d="m 8208.2803,-5014.1006 c -0.4885,4.2319 -1.0772,8.4316 -1.7634,12.5969 -1.3722,8.3304 -3.1348,16.5226 -5.2677,24.5578 -4.2657,16.0708 -10.0128,31.5139 -17.0822,46.1812 -14.1389,29.3343 -33.5668,55.5644 -57.0126,77.5001 -46.8915,43.8717 -109.8535,70.5666 -178.7123,70.5662 -144.4658,-9e-4 -261.578,-117.1139 -261.5773,-261.5798 10e-5,-22.5112 2.9055,-44.8319 8.5754,-66.4266 2.8351,-10.7974 6.3612,-21.4132 10.5609,-31.7809"
         sodipodi:nodetypes="cssssccsc" />
    </g>
  </g>
</svg>
