<?xml version="1.0" encoding="UTF-8" standalone="no"?>
<svg
   xmlns:dc="http://purl.org/dc/elements/1.1/"
   xmlns:cc="http://creativecommons.org/ns#"
   xmlns:rdf="http://www.w3.org/1999/02/22-rdf-syntax-ns#"
   xmlns:svg="http://www.w3.org/2000/svg"
   xmlns="http://www.w3.org/2000/svg"
   xmlns:sodipodi="http://sodipodi.sourceforge.net/DTD/sodipodi-0.dtd"
   xmlns:inkscape="http://www.inkscape.org/namespaces/inkscape"
   width="199.01665mm"
   height="199.00511mm"
   viewBox="0 0 199.01665 199.00511"
   version="1.1"
   id="svg4349"
   inkscape:version="1.0.2 (e86c8708, 2021-01-15)"
   sodipodi:docname="evalhyd-cpp_logo.svg">
  <defs
     id="defs4343" />
  <sodipodi:namedview
     id="base"
     pagecolor="#ffffff"
     bordercolor="#666666"
     borderopacity="1.0"
     inkscape:pageopacity="0.0"
     inkscape:pageshadow="2"
     inkscape:zoom="0.35"
     inkscape:cx="384.666"
     inkscape:cy="573.21541"
     inkscape:document-units="mm"
     inkscape:current-layer="layer1"
     inkscape:document-rotation="0"
     showgrid="false"
     fit-margin-top="5"
     fit-margin-left="5"
     fit-margin-right="5"
     fit-margin-bottom="5"
     inkscape:window-width="1252"
     inkscape:window-height="943"
     inkscape:window-x="0"
     inkscape:window-y="25"
     inkscape:window-maximized="0" />
  <metadata
     id="metadata4346">
    <rdf:RDF>
      <cc:Work
         rdf:about="">
        <dc:format>image/svg+xml</dc:format>
        <dc:type
           rdf:resource="http://purl.org/dc/dcmitype/StillImage" />
        <dc:title></dc:title>
      </cc:Work>
    </rdf:RDF>
  </metadata>
  <g
     inkscape:label="Layer 1"
     inkscape:groupmode="layer"
     id="layer1"
     transform="translate(-4.0571215,3.4965785)">
    <g
       id="g5020"
       transform="matrix(0.35277777,0,0,-0.35277777,-2694.704,-2465.8726)">
      <path
         id="path3058"
         style="color:#000000;font-style:normal;font-variant:normal;font-weight:normal;font-stretch:normal;font-size:medium;line-height:normal;font-family:sans-serif;font-variant-ligatures:normal;font-variant-position:normal;font-variant-caps:normal;font-variant-numeric:normal;font-variant-alternates:normal;font-variant-east-asian:normal;font-feature-settings:normal;font-variation-settings:normal;text-indent:0;text-align:start;text-decoration:none;text-decoration-line:none;text-decoration-style:solid;text-decoration-color:#000000;letter-spacing:normal;word-spacing:normal;text-transform:none;writing-mode:lr-tb;direction:ltr;text-orientation:mixed;dominant-baseline:auto;baseline-shift:baseline;text-anchor:start;white-space:normal;shape-padding:0;shape-margin:0;inline-size:0;clip-rule:nonzero;display:inline;overflow:visible;visibility:visible;isolation:auto;mix-blend-mode:normal;color-interpolation:sRGB;color-interpolation-filters:linearRGB;solid-color:#000000;solid-opacity:1;vector-effect:none;fill:#a3c208;fill-opacity:1;fill-rule:evenodd;stroke:none;stroke-width:12.2168;stroke-linecap:round;stroke-linejoin:round;stroke-miterlimit:10;stroke-dasharray:none;stroke-dashoffset:0;stroke-opacity:1;color-rendering:auto;image-rendering:auto;shape-rendering:auto;text-rendering:auto;enable-background:accumulate;stop-color:#000000"
         d="m 7998.0767,-7024.325 c -40.806,-1e-4 -81.6112,-15.5683 -112.7452,-46.7021 -62.2673,-62.2677 -62.2688,-163.2226 0,-225.4906 62.268,-62.268 163.2247,-62.268 225.4927,0 62.268,62.268 62.2673,163.2242 0,225.492 -31.134,31.1338 -71.9407,46.7009 -112.746,46.7007 z m -17.6445,-74.7553 c 30.1343,-3e-4 58.2368,-16.2159 73.3418,-42.3194 l -36.6518,-21.2092 c -7.5592,13.065 -21.6202,21.183 -36.69,21.1828 -23.3497,2e-4 -42.3457,-18.9958 -42.3457,-42.3456 0,-23.3497 18.996,-42.3457 42.3457,-42.3457 15.0713,0 29.1323,8.1165 36.693,21.1845 l 36.6518,-21.2078 c -15.105,-26.1052 -43.209,-42.3225 -73.3448,-42.3225 -46.6987,0 -84.6907,37.992 -84.6915,84.6915 0,46.6988 37.9928,84.6913 84.6915,84.6914 z m 65.871,-70.5764 h 9.4103 v -9.4087 h 9.4102 v -9.4103 h -9.4102 v -9.411 h -9.4103 v 9.4095 h -9.4117 v 9.4103 h 9.4102 z m 35.2898,0 h 9.4087 v -9.4102 h 9.4103 v -9.4103 h -9.4103 v -9.4095 h -9.4087 v 9.4095 h -9.4103 v 9.4103 h 9.4118 z" />
      <path
         style="color:#000000;font-style:normal;font-variant:normal;font-weight:normal;font-stretch:normal;font-size:medium;line-height:normal;font-family:sans-serif;font-variant-ligatures:normal;font-variant-position:normal;font-variant-caps:normal;font-variant-numeric:normal;font-variant-alternates:normal;font-variant-east-asian:normal;font-feature-settings:normal;font-variation-settings:normal;text-indent:0;text-align:start;text-decoration:none;text-decoration-line:none;text-decoration-style:solid;text-decoration-color:#000000;letter-spacing:normal;word-spacing:normal;text-transform:none;writing-mode:lr-tb;direction:ltr;text-orientation:mixed;dominant-baseline:auto;baseline-shift:baseline;text-anchor:start;white-space:normal;shape-padding:0;shape-margin:0;inline-size:0;clip-rule:nonzero;display:inline;overflow:visible;visibility:visible;isolation:auto;mix-blend-mode:normal;color-interpolation:sRGB;color-interpolation-filters:linearRGB;solid-color:#000000;solid-opacity:1;vector-effect:none;fill:#a3c208;fill-opacity:1;fill-rule:evenodd;stroke:none;stroke-linecap:round;stroke-linejoin:round;stroke-miterlimit:10;stroke-dasharray:none;stroke-dashoffset:0;stroke-opacity:1;color-rendering:auto;image-rendering:auto;shape-rendering:auto;text-rendering:auto;enable-background:accumulate;stop-color:#000000"
         d="m 8115.1417,-7066.7067 c -64.6024,64.6016 -169.528,64.6021 -234.1299,2e-4 -64.602,-64.602 -64.6028,-169.5289 0,-234.1313 64.602,-64.602 169.5298,-64.6018 234.132,4e-4 64.6023,64.6023 64.6011,169.5287 -9e-4,234.1307 z m -8.6386,-8.6386 c 59.933,-59.933 59.9344,-156.9197 8e-4,-216.8533 -59.9336,-59.9336 -156.9218,-59.9336 -216.8547,-6e-4 -59.9333,59.934 -59.932,156.9206 0,216.854 59.9333,59.9333 156.9186,59.9332 216.8526,-1e-4 z"
         id="path3060" />
      <path
         id="path8657-0-05-0-2-3-4-61-2-2-8-8"
         style="fill:#259bd2;fill-opacity:1;fill-rule:evenodd;stroke:#259bd2;stroke-width:1.33498;stroke-linecap:round;stroke-linejoin:round;stroke-miterlimit:10;stroke-dasharray:none;stroke-opacity:1"
         d="m 8198.7432,-7244.2893 -0.042,0.043 -1.6405,-2.3603 -1.6412,-6.7437 -1.6426,-5.584 -1.6406,-0.621 -1.6408,-2.9277 -3.2842,-13.5995 -1.6384,-1.5394 -1.6408,0.1397 -1.6407,-3.0719 -1.6429,-6.8203 -1.6409,-4.9545 -1.6405,1.6334 -1.6408,2.4662 -1.6431,4.5129 -1.6404,7.2239 -3.2814,17.2699 -8.2081,47.768 -3.2818,18.0755 -1.6401,7.3925 -1.6411,4.5815 -1.6428,-0.036 -1.6411,-6.7464 -1.6404,-15.122 -3.2835,-48.1551 -1.6409,-13.5868 -1.6406,-7.6481 -1.6407,-10.8939 -3.2841,-29.3171 -3.2814,-22.7522 -1.643,-7.2036 -1.6402,-3.9936 -1.6413,-3.5307 -1.6405,-2.1001 -1.6429,-2.9609 -1.6406,-5.6061 -1.6412,-7.0872 -1.6401,-4.6072 -1.6436,-1.317 -1.6401,-0.3008 -1.6413,1.149 -1.6404,2.1426 -3.2836,5.0985 -3.2819,5.8893 -3.2837,6.7416 -3.281,7.5971 -4.925,12.5604 -3.281,8.1754 -1.6434,3.4734 -1.6404,2.5895 -1.641,1.1662 -1.6404,-1.0451 -1.6427,-3.8446 -3.2816,-10.8406 -1.6403,-9.6575 -1.6435,-13.0646 -3.2813,-24.8721 -1.6409,-9.4375 -1.643,-2.4915 -1.6403,-0.028 -3.2816,0.7476 -1.6408,-0.071 -1.643,-0.5329 -1.6408,-0.7215 -3.2817,-1.62 -1.6428,-1.4265 -1.6403,-2.1636 -1.6437,-1.6578 -1.6411,-0.1787 -3.2833,0.1787 -13.1305,3.1174 -3.2813,0.5327 -1.6435,0.028 -1.6406,-0.2575 -1.6403,-0.533 -1.6407,-0.3382 -3.2837,0.061 -1.6406,-0.2122 -1.6411,-0.3782 -1.6402,-0.032 -6.5656,1.3456 -3.2834,0.535 -3.2816,0.2326 -3.2839,0.9589 -4.9245,1.8452 -4.9219,2.2766 -3.2838,1.7973 -4.9222,3.1701 -8.2084,6.2476 -4.9221,3.5815 -1.6426,0.9031 -1.6412,0.4801 -1.6408,0.093 -3.2834,1.1105 -3.2814,0.5072 -1.6407,0.7395 -1.6434,1.5753 -1.6402,2.034 -6.5651,9.2938 -3.2818,4.3974 -1.6404,1.7084 -1.6433,1.3379 -1.6409,1.6939 -1.6403,2.7282 -1.6404,3.5412 -4.9243,11.6206 -3.2841,7.4413 -1.6408,3.1124 -1.6404,2.2713 -1.6409,0.9344 -1.6434,-0.7595 -1.6367,-1.7357 -1.6406,-2.3803 -1.6407,-3.0817 -1.6438,-1.1984 -1.6403,2.8088 -1.6407,4.811 -3.2835,10.6564 -4.9224,16.3389 -1.6403,4.7095 -1.6432,3.9981 -1.6407,2.527 -1.6406,0.1257 -1.6409,-3.3393 -4.9243,-20.9629 -3.2839,-18.8346 -1.6405,-7.4233 -1.641,-5.2472 -1.6404,-2.5625 -1.6423,-1.515 -1.641,0.3333 -1.6406,0.9389 -1.6407,-0.1515 -1.6445,-1.5031 -1.6405,-2.2316 -1.6408,-2.645 -1.6409,-1.6833 -1.6429,1.3326 -4.9218,8.3973 -3.284,7.1685 -3.2813,8.6956 -1.6405,5.2524 -3.2843,11.9369 -3.2814,13.5265 -3.2835,15.0687 -4.9247,24.5999 -3.2811,15.8815 -1.6405,6.7415 -1.6432,5.1847 -3.2813,7.0141 -1.6408,4.4729 -3.2842,14.0597 -1.6406,5.5705 -1.641,4.9549 -1.6397,7.554 -1.6434,10.7452 -3.2814,21.3867 -1.6404,7.9961 -1.6434,4.1195 -1.6409,-1.3779 -1.6407,-6.5424 -1.6403,-9.6348 -3.2839,-28.0327 -1.6405,-7.7286 -3.2839,-11.5528 -1.6412,-2.7457 -1.6402,-1.8453 -1.641,-3.6421 -1.643,-6.2095 -1.6407,-4.5936 -1.6425,-1.7273 -1.6406,-5.3713 -3.2839,-17.3455 -1.6408,-5.5327 -1.6432,-1.5725 -1.6402,3.253 -3.2837,9.3113 -1.6411,2.2268 -1.6402,-1.1665 -1.6434,-3.8693 -1.6409,-6.4691 -1.6402,-12.5452 -1.6409,-15.6189 -1.6432,-8.2561 -1.6409,2.0021 -1.6402,5.0222 -1.6405,5.7247 -1.6432,7.3172 -1.6411,8.7817 -3.2811,20.2656 -4.9245,34.3199 -3.2837,22.2499 -1.6413,9.4306 -1.64,7.0517 -1.6409,3.2085 -1.6432,-2.6855 -1.6405,-11.3109 -1.6409,-21.6916 -1.6404,-26.6776 -1.6408,-21.4823 -1.643,-12.6484 -3.2816,-12.7667 -1.6406,-9.5814 -3.2838,-30.4127 -1.641,-10.7146 -1.6405,-7.1559 -1.643,-5.3638 -1.6409,-3.0311 -1.6406,0.5147 -1.6407,0.2374 -1.6427,-1.3005 -1.6407,-2.683 -1.6412,-4.6817 -1.6402,-8.6024 -4.9247,-39.58 -0.3227,-1.1033 a 267.18137,267.18137 0 0 1 232.7179,-135.9294 267.18137,267.18137 0 0 1 267.1811,267.1811 267.18137,267.18137 0 0 1 -0.5903,17.7591 z" />
      <path
         id="path8657-7-3-2-3-0-9-4-4-3-8-8"
         style="fill:#003a80;fill-opacity:1;fill-rule:evenodd;stroke:#003a80;stroke-width:1.33498;stroke-linecap:round;stroke-linejoin:round;stroke-miterlimit:10;stroke-dasharray:none;stroke-opacity:1"
         d="m 8195.4791,-7307.2572 -1.5929,-0.7699 -1.6405,-3.1098 -3.2814,-14.0011 -1.6434,-1.7566 -1.6431,-0.093 -1.6404,-3.3219 -1.6412,-7.0845 -1.6403,-5.2352 -1.6429,1.3325 -1.6413,2.146 -1.6404,4.172 -1.6405,6.8604 -1.6436,7.8175 -9.846,53.9166 -3.2841,16.8232 -1.6404,6.7063 -1.6406,3.8465 -1.6408,-0.8149 -1.6432,-7.5772 -1.6406,-16.0005 -3.2811,-50.0704 -1.6412,-14.6166 -1.6427,-8.7237 -1.6409,-12.0042 -3.281,-31.5766 -3.284,-24.8621 -1.6409,-8.0642 -1.6406,-4.5992 -1.6432,-3.7433 -3.2802,-3.3933 -3.2845,-6.1327 -1.6405,-2.5244 -1.6401,-1.9668 -1.6408,-1.1911 -1.6435,0.1073 -1.6403,0.9661 -1.6407,1.1891 -3.2844,2.6836 -3.2807,3.1215 -3.2843,3.5746 -6.5628,8.0673 -3.2831,3.6592 -1.6407,1.2924 -1.6413,0.5988 -1.6431,-0.4948 -1.6404,-2.1481 -3.281,-8.2038 -1.6432,-2.6275 -3.2814,-7.4788 -3.2839,-5.0432 -1.641,-2.2081 -1.6407,-0.9944 -1.6403,-0.018 -3.2839,0.6108 -1.6405,-0.045 -3.2843,-0.9636 -3.2812,-1.2193 -1.6404,-1.0831 -1.6444,-1.6444 -1.6434,-1.2418 -1.6403,-0.097 -3.2814,0.2244 -13.1301,2.7968 -3.284,0.5047 -1.6406,0.055 -1.6404,-0.1795 -1.6435,-0.4089 -1.6406,-0.242 -3.2817,0.1365 -3.2835,-0.3942 -1.6407,0.025 -8.2062,1.6537 -4.9241,0.5574 -3.2812,0.9642 -4.9245,1.8426 -4.925,2.2719 -3.2805,1.7965 -4.9251,3.1656 -8.2055,6.2393 -4.9244,3.5793 -1.6405,0.9008 -1.641,0.4775 -1.6434,0.093 -3.2809,1.1074 -3.2842,0.503 -1.6408,0.7394 -1.6404,1.5726 -1.6409,2.0318 -6.5649,9.2885 -3.2841,4.3923 -1.6404,1.7084 -1.6405,1.3351 -1.6433,1.6913 -1.6405,2.728 -1.6409,3.5394 -4.9246,11.616 -3.2813,7.4385 -1.6406,3.1069 -1.643,2.2715 -1.6408,0.9317 -1.6407,-0.7625 -1.6378,-1.7368 -1.6432,-2.3828 -1.6406,-3.0845 -1.641,-1.2012 -1.6401,2.8062 -1.6431,4.8085 -3.2813,10.6516 -4.9246,16.331 -1.6409,4.7075 -1.6403,3.9953 -1.6433,2.5244 -1.6408,0.1242 -1.6407,-3.342 -4.9248,-20.9747 -3.2808,-18.8429 -1.6406,-7.4261 -1.6435,-5.2497 -1.6405,-2.5697 -1.6425,-1.5152 -1.6405,0.3281 -1.643,0.9365 -1.6405,-0.157 -1.6388,-1.5115 -1.6409,-2.2363 -1.6425,-2.6508 -1.6433,-1.6857 -1.6407,1.3277 -4.9247,8.3774 -3.2812,7.1557 -3.2836,8.6778 -1.6408,5.245 -3.2813,11.9187 -3.2837,13.5086 -3.2811,15.0486 -4.9246,24.5645 -3.2837,15.8563 -1.6411,6.7296 -1.6401,5.1666 -3.2842,6.9815 -1.6403,4.455 -3.2814,14.0215 -1.6437,5.5532 -1.6402,4.9317 -1.6408,7.5346 -1.6406,10.7196 -3.2838,21.3363 -1.6409,7.9686 -1.6403,4.0887 -1.6412,-1.4078 -1.6428,-6.5756 -1.6411,-9.6696 -3.2809,-28.1088 -1.6435,-7.7685 -3.2809,-11.6417 -1.6409,-2.7963 -1.6428,-1.896 -1.6411,-3.6973 -1.6405,-6.265 -1.6405,-4.6571 -1.6435,-1.7919 -1.6407,-5.4393 -3.2813,-17.497 -1.6428,-5.6139 -1.6378,-1.6661 -1.6411,3.163 -3.2836,9.1092 -1.6407,2.1154 -1.6409,-1.2845 -1.6403,-3.9936 -1.6434,-6.603 -1.6408,-12.6858 -1.6405,-15.7657 -1.6407,-8.4176 -1.6408,1.8325 -1.6433,4.8437 -1.6403,5.5326 -1.6408,7.1132 -1.6408,8.5641 -3.2833,19.7882 -4.925,33.4752 -3.2809,21.588 -1.6405,9.0665 -1.6432,6.6611 -1.6408,2.7942 -1.6404,-3.1324 -1.6408,-11.785 -1.6436,-22.1964 -1.6402,-27.2176 -1.641,-22.0552 -1.6409,-13.2615 -3.2834,-14.105 -1.6407,-10.3084 -3.281,-31.9626 -1.6432,-11.53 -1.6412,-7.9783 -1.6409,-6.1763 -1.6398,-3.812 -3.284,-0.5022 -1.6356,-1.6356 -1.6413,-2.6624 -1.6427,-4.1374 -0.018,-0.089 a 267.18137,267.18137 0 0 1 224.0986,-121.6964 267.18137,267.18137 0 0 1 263.3274,221.9715 z" />
      <path
         id="path2963-8-6-1-3-0-2-96-4-6-3-3"
         style="fill:none;fill-rule:evenodd;stroke:#a3c208;stroke-width:12.6519;stroke-linecap:round;stroke-linejoin:round;stroke-miterlimit:10;stroke-dasharray:none;stroke-opacity:1"
         d="m 8191.949,-7231.8629 c -0.4886,4.232 -1.0775,8.4317 -1.7639,12.5974 -1.3724,8.3305 -3.135,16.5226 -5.2679,24.5579 -4.2657,16.0707 -10.0123,31.5133 -17.0815,46.1805 -14.1395,29.3349 -33.5673,55.5649 -57.0127,77.5002 -46.8921,43.8722 -109.8541,70.5671 -178.7126,70.5666 -144.4658,0 -261.5776,-117.1143 -261.5786,-261.5786 1e-4,-22.5113 2.9052,-44.8315 8.5751,-66.4263 2.8354,-10.7976 6.3615,-21.4136 10.5607,-31.7808"
         sodipodi:nodetypes="cssssccsc" />
    </g>
  </g>
</svg>
