<?xml version="1.0" encoding="UTF-8" standalone="no"?>
<svg
   xmlns:dc="http://purl.org/dc/elements/1.1/"
   xmlns:cc="http://creativecommons.org/ns#"
   xmlns:rdf="http://www.w3.org/1999/02/22-rdf-syntax-ns#"
   xmlns:svg="http://www.w3.org/2000/svg"
   xmlns="http://www.w3.org/2000/svg"
   xmlns:sodipodi="http://sodipodi.sourceforge.net/DTD/sodipodi-0.dtd"
   xmlns:inkscape="http://www.inkscape.org/namespaces/inkscape"
   width="653.67627mm"
   height="209.0163mm"
   viewBox="0 0 653.67627 209.0163"
   version="1.1"
   id="svg3643"
   inkscape:version="1.0.2 (e86c8708, 2021-01-15)"
   sodipodi:docname="evalhyd_logo+text.svg">
  <defs
     id="defs3637" />
  <sodipodi:namedview
     id="base"
     pagecolor="#ffffff"
     bordercolor="#666666"
     borderopacity="1.0"
     inkscape:pageopacity="0.0"
     inkscape:pageshadow="2"
     inkscape:zoom="0.36120427"
     inkscape:cx="695.29347"
     inkscape:cy="765.5203"
     inkscape:document-units="mm"
     inkscape:current-layer="layer1"
     inkscape:document-rotation="0"
     showgrid="false"
     fit-margin-top="10"
     fit-margin-left="10"
     fit-margin-bottom="10"
     fit-margin-right="10"
     inkscape:window-width="1440"
     inkscape:window-height="847"
     inkscape:window-x="0"
     inkscape:window-y="25"
     inkscape:window-maximized="0" />
  <metadata
     id="metadata3640">
    <rdf:RDF>
      <cc:Work
         rdf:about="">
        <dc:format>image/svg+xml</dc:format>
        <dc:type
           rdf:resource="http://purl.org/dc/dcmitype/StillImage" />
        <dc:title />
      </cc:Work>
    </rdf:RDF>
  </metadata>
  <g
     inkscape:label="Layer 1"
     inkscape:groupmode="layer"
     id="layer1"
     transform="translate(129.53451,94.680814)">
    <g
       id="g3607"
       transform="matrix(0.35277777,0,0,-0.35277777,-1096.81,-1511.7563)">
      <g
         id="g5084-9-3"
         transform="matrix(1.7232126,0,0,1.7232126,4690.2687,136.84767)"
         inkscape:export-xdpi="136.84"
         inkscape:export-ydpi="136.84">
        <path
           id="path8657-0-05-0-2-3-4-0-4-5"
           style="fill:#259bd2;fill-opacity:1;fill-rule:evenodd;stroke:#259bd2;stroke-width:0.77475;stroke-linecap:round;stroke-linejoin:round;stroke-miterlimit:10;stroke-dasharray:none;stroke-opacity:1"
           d="m -804.00498,-2572.0973 -0.0249,0.025 -0.95215,-1.3697 -0.95215,-3.914 -0.95361,-3.2403 -0.95214,-0.3603 -0.95215,-1.6992 -1.90577,-7.8926 -0.95214,-0.8921 -0.95215,0.081 -0.95215,-1.7827 -0.95362,-3.958 -0.95214,-2.8755 -0.95215,0.9477 -0.95215,1.4312 -0.95362,2.6191 -0.95214,4.1924 -1.9043,10.0225 -4.76367,27.7221 -1.9043,10.4898 -0.95215,4.2905 -0.95215,2.6587 -0.95361,-0.021 -0.95215,-3.9155 -0.95214,-8.7759 -1.90577,-27.9463 -0.95215,-7.8853 -0.95214,-4.4384 -0.95215,-6.3223 -1.90577,-17.0142 -1.90429,-13.2041 -0.95362,-4.1806 -0.95215,-2.3174 -0.95214,-2.0493 -0.95215,-1.2188 -0.95362,-1.7182 -0.95215,-3.2534 -0.95214,-4.1133 -0.95215,-2.6734 -0.95361,-0.7646 -0.95215,-0.1743 -0.95215,0.6665 -0.95215,1.2436 -1.90576,2.959 -1.90429,3.4175 -1.90577,3.9126 -1.90429,4.4092 -2.85792,7.289 -1.90429,4.7447 -0.95362,2.0156 -0.95215,1.5029 -0.95214,0.6768 -0.95215,-0.6065 -0.95362,-2.2309 -1.90429,-6.2915 -0.95215,-5.6045 -0.95361,-7.5821 -1.9043,-14.4345 -0.95215,-5.4771 -0.95361,-1.4458 -0.95215,-0.016 -1.90429,0.4336 -0.95216,-0.041 -0.95361,-0.3091 -0.95215,-0.4189 -1.90429,-0.9404 -0.95362,-0.8277 -0.95215,-1.2554 -0.95214,-0.9638 -0.95215,-0.104 -1.90577,0.104 -7.62011,1.8091 -1.9043,0.3091 -0.95361,0.016 -0.95215,-0.1495 -0.95215,-0.309 -0.95214,-0.1963 -1.90577,0.035 -0.95215,-0.1231 -0.95214,-0.2197 -0.95215,-0.019 -3.81006,0.7807 -1.90577,0.3106 -1.90429,0.1348 -1.90577,0.5566 -2.8579,1.0708 -2.85645,1.3213 -1.90576,1.043 -2.85645,1.8398 -4.76367,3.6255 -2.85644,2.0786 -0.95362,0.5244 -0.95215,0.2783 -0.95215,0.054 -1.90576,0.6446 -1.9043,0.2944 -0.95214,0.4292 -0.95361,0.9141 -0.95215,1.1806 -3.81006,5.3936 -1.9043,2.5517 -0.95215,0.9917 -0.95361,0.7764 -0.95215,0.9829 -0.95215,1.5835 -0.95214,2.0552 -2.85792,6.7441 -1.90576,4.3184 -0.95215,1.8061 -0.95215,1.3184 -0.95214,0.542 -0.95362,-0.4409 -0.95215,-1.0049 -0.95215,-1.3814 -0.95214,-1.7885 -0.95361,-0.6958 -0.95215,1.6303 -0.95216,2.792 -1.90575,6.1846 -2.85645,9.4819 -0.95215,2.7334 -0.95361,2.3203 -0.95215,1.4664 -0.95215,0.073 -0.95214,-1.938 -2.85792,-12.1656 -1.90579,-10.9306 -0.9521,-4.3081 -0.9522,-3.0454 -0.9521,-1.4869 -0.9536,-0.8789 -0.9522,0.1934 -0.9521,0.5449 -0.9522,-0.088 -0.9536,-0.873 -0.9521,-1.295 -0.9522,-1.5351 -0.9521,-0.9771 -0.9536,0.7735 -2.8565,4.8735 -1.9058,4.1602 -1.9043,5.0464 -0.9521,3.0483 -1.9058,6.9272 -1.9043,7.8501 -1.9057,8.7452 -2.8579,14.2763 -1.9043,9.2168 -0.9522,3.9126 -0.9536,3.0088 -1.9043,4.0708 -0.9521,2.5957 -1.9058,8.1592 -0.9521,3.2329 -0.9522,2.8755 -0.9521,4.3843 -0.9536,6.2358 -1.9044,12.4116 -0.9521,4.6407 -0.9536,2.3906 -0.9522,-0.7998 -0.9521,-3.7969 -0.9522,-5.5913 -1.9057,-16.2686 -0.9522,-4.4853 -1.9057,-6.7046 -0.9522,-1.5938 -0.9521,-1.0707 -0.9522,-2.1138 -0.9536,-3.6035 -0.9521,-2.6661 -0.9522,-1.0034 -0.9521,-3.1172 -1.9058,-10.0664 -0.9521,-3.2109 -0.9522,-0.9141 -0.9521,1.8882 -1.9058,5.4038 -0.9521,1.292 -0.9522,-0.6767 -0.9536,-2.2456 -0.9522,-3.7544 -0.9521,-7.2803 -0.9522,-9.0645 -0.9536,-4.7915 -0.9521,1.1617 -0.9522,2.915 -0.9521,3.3223 -0.9536,4.2466 -0.9522,5.0961 -1.9043,11.7613 -2.8579,19.9174 -1.9057,12.9126 -0.9522,5.4727 -0.9521,4.0928 -0.9522,1.8618 -0.9536,-1.5586 -0.9521,-6.564 -0.9522,-12.5888 -0.9521,-15.482 -0.9522,-12.4673 -0.9536,-7.3403 -1.9043,-7.4092 -0.9522,-5.5605 -1.9057,-17.6499 -0.9522,-6.2183 -0.9521,-4.1528 -0.9536,-3.1128 -0.9522,-1.7593 -0.9521,0.2988 -0.9522,0.1377 -0.9536,-0.7544 -0.9521,-1.5571 -0.9522,-2.7173 -0.9521,-4.9922 -2.8579,-22.9702 -0.1875,-0.6401 a 155.05755,155.05755 0 0 1 135.05708,-78.8863 155.05755,155.05755 0 0 1 155.05811,155.0567 155.05755,155.05755 0 0 1 -0.34277,10.3066 z" />
        <path
           id="path8657-7-3-2-3-0-9-1-9-5"
           style="fill:#003a80;fill-opacity:1;fill-rule:evenodd;stroke:#003a80;stroke-width:0.77475;stroke-linecap:round;stroke-linejoin:round;stroke-miterlimit:10;stroke-dasharray:none;stroke-opacity:1"
           d="m -805.89902,-2608.6408 -0.92432,-0.4468 -0.95215,-1.8047 -1.9043,-8.1255 -0.95215,-1.021 -0.95361,-0.054 -0.95215,-1.9277 -0.95215,-4.1118 -0.95215,-3.0381 -0.95361,0.7734 -0.95214,1.2452 -0.95216,2.4213 -0.95215,3.9815 -0.95361,4.5366 -5.71435,31.2905 -1.90577,9.7632 -0.95214,3.8921 -0.95215,2.2324 -0.95215,-0.4731 -0.95361,-4.3975 -0.95216,-9.2856 -1.90429,-29.0581 -0.95215,-8.4829 -0.95361,-5.0625 -0.95215,-6.9668 -1.9043,-18.3252 -1.90576,-14.4287 -0.95215,-4.6802 -0.95215,-2.669 -0.95361,-2.1723 -1.90429,-1.9688 -1.90577,-3.5595 -0.95215,-1.4649 -0.95214,-1.1411 -0.95215,-0.6914 -0.95362,0.062 -0.95215,0.561 -0.95214,0.69 -1.90576,1.5571 -1.9043,1.812 -1.90576,2.0742 -3.8086,4.6817 -1.90576,2.124 -0.95215,0.75 -0.95215,0.3472 -0.95361,-0.2871 -0.95215,-1.2466 -1.90429,-4.7608 -0.95362,-1.5249 -1.90429,-4.3403 -1.90577,-2.9268 -0.95215,-1.2817 -0.95214,-0.5771 -0.95215,-0.01 -1.90577,0.3544 -0.95214,-0.026 -1.90576,-0.5595 -1.9043,-0.7076 -0.95215,-0.6284 -0.95215,-0.9565 -0.95361,-0.7207 -0.95215,-0.056 -1.9043,0.1303 -7.62011,1.6231 -1.90577,0.2929 -0.95214,0.032 -0.95215,-0.1041 -0.95361,-0.2373 -0.95216,-0.1406 -1.90429,0.079 -1.90576,-0.2285 -0.95215,0.015 -4.76221,0.9595 -2.85791,0.3237 -1.90429,0.5596 -2.85791,1.0693 -2.85792,1.3184 -1.90429,1.0429 -2.85792,1.8369 -4.7622,3.6211 -2.85791,2.0772 -0.95215,0.5229 -0.95215,0.2769 -0.95361,0.054 -1.9043,0.643 -1.90576,0.2916 -0.95215,0.4292 -0.95215,0.9126 -0.95214,1.1791 -3.81006,5.3907 -1.90577,2.5488 -0.95215,0.9917 -0.95214,0.7749 -0.95361,0.9814 -0.95215,1.5835 -0.95216,2.0538 -2.8579,6.7412 -1.9043,4.3169 -0.95215,1.8032 -0.95361,1.3184 -0.95215,0.5405 -0.95215,-0.4424 -0.95214,-1.0064 -0.95362,-1.3828 -0.95215,-1.79 -0.95215,-0.6973 -0.95214,1.6289 -0.95362,2.7906 -1.9043,6.1816 -2.85791,9.4775 -0.95215,2.732 -0.95214,2.3188 -0.95361,1.4649 -0.95215,0.072 -0.95216,-1.9395 -2.8579,-12.1728 -1.9043,-10.9351 -0.95219,-4.3096 -0.9536,-3.0468 -0.9521,-1.4913 -0.9522,-0.8803 -0.9521,0.1904 -0.9536,0.5435 -0.9522,-0.091 -0.9521,-0.876 -0.9522,-1.2979 -0.9536,-1.5381 -0.9521,-0.9799 -0.9522,0.7705 -2.8579,4.8618 -1.9043,4.1528 -1.9057,5.0362 -0.9522,3.0439 -1.9043,6.917 -1.9058,7.8398 -1.9043,8.7334 -2.8579,14.2559 -1.9057,9.2021 -0.9522,3.9053 -0.9521,2.9986 -1.9058,4.0517 -0.9521,2.5855 -1.9043,8.1372 -0.9536,3.2226 -0.9522,2.8623 -0.9521,4.3726 -0.9522,6.2212 -1.9057,12.3823 -0.9522,4.6245 -0.9522,2.3731 -0.9521,-0.8174 -0.9536,-3.8159 -0.9522,-5.6119 -1.9043,-16.3125 -0.9536,-4.5087 -1.9043,-6.7559 -0.9521,-1.6231 -0.9536,-1.1001 -0.9522,-2.1459 -0.9521,-3.6358 -0.9522,-2.7026 -0.9536,-1.0401 -0.9521,-3.1567 -1.9043,-10.1543 -0.9536,-3.2578 -0.9522,-0.9653 -0.9521,1.8354 -1.9058,5.2866 -0.9521,1.2276 -0.9522,-0.7456 -0.9522,-2.3174 -0.9536,-3.8321 -0.9521,-7.3623 -0.9522,-9.1494 -0.9521,-4.8852 -0.9522,1.0634 -0.9536,2.8111 -0.9521,3.2109 -0.9522,4.128 -0.9521,4.9702 -1.9058,11.4843 -2.8579,19.4268 -1.9043,12.5288 -0.9521,5.2617 -0.9536,3.8657 -0.9522,1.6216 -0.9521,-1.8178 -0.9522,-6.8394 -0.9536,-12.8818 -0.9521,-15.7954 -0.9522,-12.7998 -0.9522,-7.6963 -1.9057,-8.1856 -0.9522,-5.9824 -1.9043,-18.5493 -0.9536,-6.6914 -0.9521,-4.6304 -0.9522,-3.5845 -0.9521,-2.2119 -1.9058,-0.2915 -0.9521,-0.9463 -0.9522,-1.5454 -0.9536,-2.4009 -0.012,-0.05 a 155.05755,155.05755 0 0 1 130.05468,-70.6259 155.05755,155.05755 0 0 1 152.8213,128.8198 z" />
        <path
           id="path2963-8-6-1-3-0-2-9-6-4"
           style="fill:none;fill-rule:evenodd;stroke:#a3c208;stroke-width:7.3425;stroke-linecap:round;stroke-linejoin:round;stroke-miterlimit:10;stroke-dasharray:none;stroke-opacity:1"
           d="m -807.94796,-2564.8857 c -0.28355,2.456 -0.62517,4.8933 -1.02338,7.3106 -0.79645,4.8345 -1.81934,9.5888 -3.05715,14.252 -2.47562,9.3266 -5.81089,18.289 -9.91359,26.801 -8.20537,17.0241 -19.4804,32.2466 -33.08703,44.9769 -27.21328,25.4607 -63.753,40.953 -103.71491,40.9528 -83.84008,-5e-4 -151.80558,-67.9666 -151.80528,-151.8067 10e-5,-13.0643 1.6863,-26.018 4.9768,-38.5504 1.6453,-6.2662 3.6916,-12.4271 6.1289,-18.4439"
           sodipodi:nodetypes="cssssccsc" />
      </g>
      <path
         id="path1025-8-9-4-2-7-9-0-1-1"
         style="color:#000000;font-style:normal;font-variant:normal;font-weight:normal;font-stretch:normal;font-size:50.8px;line-height:1.25;font-family:sans-serif;font-variant-ligatures:normal;font-variant-position:normal;font-variant-caps:normal;font-variant-numeric:normal;font-variant-alternates:normal;font-variant-east-asian:normal;font-feature-settings:normal;font-variation-settings:normal;text-indent:0;text-align:end;text-decoration:none;text-decoration-line:none;text-decoration-style:solid;text-decoration-color:#000000;letter-spacing:normal;word-spacing:normal;text-transform:none;writing-mode:lr-tb;direction:ltr;text-orientation:mixed;dominant-baseline:auto;baseline-shift:baseline;text-anchor:end;white-space:normal;shape-padding:0;shape-margin:0;inline-size:0;clip-rule:nonzero;display:inline;overflow:visible;visibility:visible;isolation:auto;mix-blend-mode:normal;color-interpolation:sRGB;color-interpolation-filters:linearRGB;solid-color:#000000;solid-opacity:1;vector-effect:none;fill:#a3c208;fill-opacity:1;fill-rule:nonzero;stroke:none;stroke-width:0.426371;stroke-linecap:round;stroke-linejoin:miter;stroke-miterlimit:4;stroke-dasharray:none;stroke-dashoffset:0;stroke-opacity:1;color-rendering:auto;image-rendering:auto;shape-rendering:auto;text-rendering:auto;enable-background:accumulate;stop-color:#000000"
         d="m 3892.3917,-4217.0873 a 17.819986,17.819986 0 0 1 -17.821,-17.8211 v -156.4544 a 17.819986,17.819986 0 0 1 17.821,-17.821 17.819986,17.819986 0 0 1 17.8178,17.821 v 156.4544 a 17.819986,17.819986 0 0 1 -17.8178,17.8211 z m -57.2057,0 c -28.6665,0 -51.6046,-9.4508 -63.0507,-28.4111 -11.4461,-18.9604 -12.0137,-41.1873 -12.0137,-67.6576 0,-26.4701 0.5676,-48.6974 12.0137,-67.6576 11.4461,-18.9601 34.3842,-28.4078 63.0507,-28.408 28.6665,0 51.6046,9.4479 63.0507,28.408 11.4461,18.9602 12.0167,41.1875 12.0167,67.6576 0,26.4703 -0.5708,48.6972 -12.0167,67.6576 -11.4461,18.9603 -34.3842,28.4111 -63.0507,28.4111 z m 0,-35.6389 c 22.4577,0 28.1447,-3.9089 32.5404,-11.1903 4.3956,-7.2816 6.8851,-24.1805 6.8851,-49.2395 0,-25.0589 -2.4896,-41.9552 -6.8851,-49.2364 -4.3957,-7.2812 -10.0825,-11.1904 -32.5404,-11.1904 -22.4579,0 -28.1417,3.9092 -32.5373,11.1904 -4.3955,7.2813 -6.8882,24.1775 -6.8882,49.2364 0,25.059 2.4926,41.9579 6.8882,49.2395 4.3956,7.2814 10.0796,11.1903 32.5373,11.1903 z"
         inkscape:export-xdpi="136.84"
         inkscape:export-ydpi="136.84" />
      <path
         style="color:#000000;font-style:normal;font-variant:normal;font-weight:normal;font-stretch:normal;font-size:50.8px;line-height:1.25;font-family:sans-serif;font-variant-ligatures:normal;font-variant-position:normal;font-variant-caps:normal;font-variant-numeric:normal;font-variant-alternates:normal;font-variant-east-asian:normal;font-feature-settings:normal;font-variation-settings:normal;text-indent:0;text-align:end;text-decoration:none;text-decoration-line:none;text-decoration-style:solid;text-decoration-color:#000000;letter-spacing:normal;word-spacing:normal;text-transform:none;writing-mode:lr-tb;direction:ltr;text-orientation:mixed;dominant-baseline:auto;baseline-shift:baseline;text-anchor:end;white-space:normal;shape-padding:0;shape-margin:0;inline-size:0;clip-rule:nonzero;display:inline;overflow:visible;visibility:visible;isolation:auto;mix-blend-mode:normal;color-interpolation:sRGB;color-interpolation-filters:linearRGB;solid-color:#000000;solid-opacity:1;vector-effect:none;fill:#a3c208;fill-opacity:1;fill-rule:nonzero;stroke:none;stroke-width:0.426371;stroke-linecap:round;stroke-linejoin:miter;stroke-miterlimit:4;stroke-dasharray:none;stroke-dashoffset:0;stroke-opacity:1;color-rendering:auto;image-rendering:auto;shape-rendering:auto;text-rendering:auto;enable-background:accumulate;stop-color:#000000"
         d="m 3956.0455,-4167.7002 a 17.819986,17.819986 0 0 1 -17.821,-17.8209 v -172.8771 c 0,-20.4682 10.7583,-37.0283 23.7351,-43.9915 12.9768,-6.963 25.644,-6.8317 33.3763,-6.8317 10.3003,0 20.6505,2.3018 29.6524,4.3868 9.0018,2.085 16.1901,4.1795 16.1901,4.1795 a 17.819986,17.819986 0 0 1 12.1299,22.0917 17.819986,17.819986 0 0 1 -22.0916,12.1299 c 0,0 -6.3083,-1.8358 -14.2701,-3.6798 -7.9617,-1.8442 -18.0409,-3.4694 -21.6107,-3.4694 -6.4123,0 -13.3908,0.9181 -16.5233,2.5988 -3.1323,1.6809 -4.9492,1.6216 -4.9492,12.5857 v 172.8771 a 17.819986,17.819986 0 0 1 -17.8179,17.8209 z"
         id="path980-0-0-7-6-9-37-0-3-3-1"
         inkscape:export-xdpi="136.84"
         inkscape:export-ydpi="136.84" />
      <g
         id="g2830-1-4-9-2-9-2-6"
         transform="matrix(21.732242,0,0,-21.732242,383.8748,2090.1796)"
         style="font-size:50.8px;line-height:1.25;font-family:sans-serif;text-align:end;text-anchor:end;fill:#a3c208;fill-opacity:1;stroke:#000000;stroke-width:0;stroke-miterlimit:4;stroke-dasharray:none;stroke-opacity:1"
         inkscape:export-xdpi="136.84"
         inkscape:export-ydpi="136.84">
        <g
           id="path980-0-0-7-4-7-3-7-4-3-2-9-6-1"
           style="opacity:1;fill:#a3c208;fill-opacity:1">
          <path
             style="color:#000000;font-style:normal;font-variant:normal;font-weight:normal;font-stretch:normal;font-size:medium;line-height:normal;font-family:sans-serif;font-variant-ligatures:normal;font-variant-position:normal;font-variant-caps:normal;font-variant-numeric:normal;font-variant-alternates:normal;font-variant-east-asian:normal;font-feature-settings:normal;font-variation-settings:normal;text-indent:0;text-align:start;text-decoration:none;text-decoration-line:none;text-decoration-style:solid;text-decoration-color:#000000;letter-spacing:normal;word-spacing:normal;text-transform:none;writing-mode:lr-tb;direction:ltr;text-orientation:mixed;dominant-baseline:auto;baseline-shift:baseline;text-anchor:start;white-space:normal;shape-padding:0;shape-margin:0;inline-size:0;clip-rule:nonzero;display:inline;overflow:visible;visibility:visible;isolation:auto;mix-blend-mode:normal;color-interpolation:sRGB;color-interpolation-filters:linearRGB;solid-color:#000000;solid-opacity:1;vector-effect:none;fill:#a3c208;fill-opacity:1;fill-rule:nonzero;stroke:none;stroke-width:0;stroke-linecap:round;stroke-linejoin:miter;stroke-miterlimit:4;stroke-dasharray:none;stroke-dashoffset:0;stroke-opacity:1;color-rendering:auto;image-rendering:auto;shape-rendering:auto;text-rendering:auto;enable-background:accumulate;stop-color:#000000;stop-opacity:1"
             d="m 178.33594,291.10352 c -0.45315,-0.008 -0.82668,0.35349 -0.83399,0.80664 0,0 -0.0184,1.10487 0.0371,2.38086 0.0555,1.27598 0.10733,2.63403 0.53906,3.60546 0.51923,1.1683 1.70354,1.56734 2.6211,1.68555 0.55206,0.0713 1.06053,0.0625 1.4043,0.0625 0.14274,0 0.46289,-10e-6 0.46289,-10e-6 v 0.23488 c 0,0.20132 -0.0352,0.23687 -0.0723,0.27929 -0.0371,0.0424 -0.11998,0.10096 -0.27539,0.14844 -0.31082,0.095 -0.80994,0.0918 -1.17969,0.0918 -0.11587,0 -0.76324,-0.10204 -1.27344,-0.2168 -0.51019,-0.11476 -0.94531,-0.23047 -0.94531,-0.23047 -0.43795,-0.11546 -0.88656,0.14602 -1.00195,0.58399 -0.11558,0.43735 0.14485,0.88569 0.58203,1.00195 0,0 0.46113,0.12161 1.00586,0.24414 0.54473,0.12253 1.11046,0.25781 1.63281,0.25781 0.28112,0 0.95824,0.0498 1.65821,-0.16406 0.34998,-0.10693 0.72998,-0.29215 1.03125,-0.63672 0.30127,-0.34457 0.47851,-0.83752 0.47851,-1.35937 v -7.95508 c -3.4e-4,-0.12757 -0.0304,-0.2533 -0.0879,-0.36719 l -0.002,-0.002 c -0.0683,-0.13599 -0.17315,-0.25028 -0.30274,-0.33008 -10e-4,-6.5e-4 -0.003,-0.001 -0.004,-0.002 -0.0434,-0.0263 -0.0892,-0.0486 -0.13672,-0.0664 -0.0224,-0.009 -0.0452,-0.0166 -0.0684,-0.0234 h -0.004 c -0.0232,-0.007 -0.0466,-0.0128 -0.0703,-0.0176 h -0.004 c -0.0233,-0.004 -0.0467,-0.008 -0.0703,-0.01 -0.002,-1e-5 -0.004,-1e-5 -0.006,0 -0.0228,-0.002 -0.0456,-0.002 -0.0684,-0.002 -0.0491,1.6e-4 -0.0982,0.005 -0.14648,0.0137 -0.0446,0.009 -0.0883,0.0211 -0.13086,0.0371 -0.005,10e-4 -0.0104,0.003 -0.0156,0.004 -0.001,6.5e-4 -0.003,10e-4 -0.004,0.002 -0.0462,0.0181 -0.0906,0.0403 -0.13282,0.0664 -0.001,6.5e-4 -0.003,10e-4 -0.004,0.002 -0.0201,0.0128 -0.0397,0.0265 -0.0586,0.041 -0.001,6.5e-4 -0.003,10e-4 -0.004,0.002 -0.0189,0.0148 -0.0372,0.0305 -0.0547,0.0469 -0.17031,0.15525 -0.26743,0.37501 -0.26758,0.60547 0,0 0.007,4.60418 0,5.91992 v 0.002 0.002 c 0,0.11344 -2e-5,0.15628 -2e-5,0.15628 0,0 -0.0903,-3e-5 -0.46091,-3e-5 -0.36235,0 -0.78964,0.003 -1.19336,-0.0488 -0.67169,-0.0865 -1.13068,-0.26715 -1.33399,-0.72461 -0.14679,-0.33029 -0.34543,-1.7908 -0.39844,-3.00977 -0.053,-1.21896 -0.0371,-2.2832 -0.0371,-2.2832 0.008,-0.45239 -0.3523,-0.8256 -0.80468,-0.83398 z"
             id="path4739-8-7-9-9-9" />
          <path
             style="color:#000000;font-style:normal;font-variant:normal;font-weight:normal;font-stretch:normal;font-size:medium;line-height:normal;font-family:sans-serif;font-variant-ligatures:normal;font-variant-position:normal;font-variant-caps:normal;font-variant-numeric:normal;font-variant-alternates:normal;font-variant-east-asian:normal;font-feature-settings:normal;font-variation-settings:normal;text-indent:0;text-align:start;text-decoration:none;text-decoration-line:none;text-decoration-style:solid;text-decoration-color:#000000;letter-spacing:normal;word-spacing:normal;text-transform:none;writing-mode:lr-tb;direction:ltr;text-orientation:mixed;dominant-baseline:auto;baseline-shift:baseline;text-anchor:start;white-space:normal;shape-padding:0;shape-margin:0;inline-size:0;clip-rule:nonzero;display:inline;overflow:visible;visibility:visible;isolation:auto;mix-blend-mode:normal;color-interpolation:sRGB;color-interpolation-filters:linearRGB;solid-color:#000000;solid-opacity:1;vector-effect:none;fill:#a3c208;fill-opacity:1;fill-rule:nonzero;stroke:none;stroke-linecap:round;stroke-linejoin:miter;stroke-miterlimit:4;stroke-dasharray:none;stroke-dashoffset:0;stroke-opacity:1;color-rendering:auto;image-rendering:auto;shape-rendering:auto;text-rendering:auto;enable-background:accumulate;stop-color:#000000;stop-opacity:1"
             d="m 178.33594,291.08789 c -0.003,-6e-5 -0.003,0.006 -0.006,0.006 l -0.002,-0.004 -0.0488,0.0293 h 0.0234 c -0.43759,0.0197 -0.80924,0.34702 -0.8164,0.79102 0,0 -0.0184,1.10431 0.0371,2.38086 0.0555,1.27592 0.10723,2.63527 0.54101,3.61132 0.52235,1.17532 1.71246,1.57675 2.63282,1.69532 0.55346,0.0715 1.06275,0.0625 1.40625,0.0625 0.13792,0 0.42693,0 0.44726,0 v 0.21875 c 0,0.0997 -0.009,0.15858 -0.0215,0.19531 -0.0125,0.0367 -0.0281,0.0528 -0.0469,0.0742 -0.0341,0.039 -0.11416,0.0957 -0.26758,0.14258 -0.30614,0.0936 -0.80594,0.0918 -1.17578,0.0918 -0.0266,0 -0.0891,-0.006 -0.17383,-0.0176 -0.0847,-0.0113 -0.19258,-0.027 -0.3125,-0.0469 -0.23983,-0.0398 -0.52852,-0.0951 -0.7832,-0.15234 -0.50984,-0.11469 -0.94531,-0.23047 -0.94531,-0.23047 -0.44631,-0.11767 -0.90389,0.14937 -1.02149,0.5957 -0.11778,0.4457 0.14823,0.903 0.59375,1.02148 0,0 0.46081,0.12154 1.00586,0.24415 0.54459,0.12249 1.11161,0.25781 1.63672,0.25781 0.27923,0 0.95872,0.0508 1.66211,-0.16407 0.35182,-0.10749 0.73528,-0.29317 1.03906,-0.64062 0.3042,-0.34792 0.48243,-0.84562 0.48243,-1.37109 v -7.95508 c -3.5e-4,-0.13006 -0.0312,-0.25693 -0.0898,-0.37305 v -0.004 l -0.004,-0.004 0.002,0.006 c -0.0696,-0.13865 -0.17648,-0.25654 -0.30859,-0.33789 10e-5,1e-4 -0.001,4.5e-4 -0.002,0 v -0.002 c -6e-4,-4.5e-4 -0.002,-7e-5 -0.002,0 -0.0442,-0.0268 -0.0902,-0.0482 -0.13867,-0.0664 -0.023,-0.009 -0.0467,-0.0185 -0.0703,-0.0254 h -0.002 -0.002 -0.004 c -0.0225,-0.007 -0.0454,-0.0129 -0.0684,-0.0176 h -0.004 -0.002 c -0.0227,-0.004 -0.0465,-0.008 -0.0703,-0.01 -0.002,-10e-6 -0.004,-10e-6 -0.006,0 -0.0237,-0.002 -0.0456,-0.002 -0.0684,-0.002 -0.0501,1.6e-4 -0.10126,0.005 -0.15039,0.0137 -0.0453,0.009 -0.0894,0.0208 -0.13281,0.0371 -0.006,10e-4 -0.0107,0.003 -0.0137,0.004 h -0.002 l -0.004,0.002 c -7e-4,3.2e-4 -0.002,0.002 -0.002,0.002 -3.4e-4,1.9e-4 -0.004,0.002 -0.004,0.002 -0.0445,0.0178 -0.0881,0.0393 -0.12891,0.0645 0,0 -0.002,0 -0.002,0 -6.9e-4,3.1e-4 -0.002,0.002 -0.002,0.002 -3.5e-4,1.9e-4 -0.004,0.002 -0.004,0.002 -0.0189,0.0121 -0.0368,0.0254 -0.0547,0.0391 -7.2e-4,5.5e-4 -0.001,0.001 -0.002,0.002 -4.4e-4,2.1e-4 -0.002,-7e-5 -0.002,0 -3.5e-4,1.9e-4 -0.004,0.002 -0.004,0.002 -0.0189,0.0148 -0.0372,0.0305 -0.0547,0.0469 -0.17362,0.15827 -0.27328,0.38224 -0.27343,0.61719 0,0 0.007,4.60444 0,5.91992 v 0.002 0.002 c 0,0.10209 0,0.13266 0,0.14062 -0.007,0 -0.0869,0 -0.44336,0 -0.36244,0 -0.78918,0.003 -1.19141,-0.0488 -0.3349,-0.0431 -0.61634,-0.10884 -0.83789,-0.2207 -0.22155,-0.11186 -0.38422,-0.26878 -0.48438,-0.49414 -0.0355,-0.0798 -0.0752,-0.23361 -0.11523,-0.43555 -0.04,-0.20194 -0.0799,-0.45327 -0.11719,-0.73242 -0.0746,-0.55829 -0.13758,-1.22704 -0.16406,-1.83594 -0.053,-1.21841 -0.0371,-2.2832 -0.0371,-2.2832 0.008,-0.44918 -0.35454,-0.80134 -0.79883,-0.82812 l 0.0352,-0.0215 z m 5.04687,0.0312 c 0.0228,0 0.0445,3e-5 0.0664,0.002 h 0.002 c 0.002,-10e-6 0.004,-10e-6 0.006,0 0.0221,0.002 0.0438,0.006 0.0664,0.01 h 0.002 0.006 c 0.022,0.005 0.043,0.0111 0.0644,0.0176 h 0.004 0.002 c 0.0228,0.007 0.0446,0.0147 0.0664,0.0234 0.0466,0.0174 0.0922,0.0387 0.13476,0.0645 8.1e-4,5.9e-4 0.002,0.002 0.002,0.002 0,0 0.002,0 0.002,0 0,0 0,0.002 0,0.002 0.12649,0.0782 0.23013,0.18937 0.29688,0.32227 v 0.002 l 0.004,0.004 c 0.0551,0.11064 0.0837,0.23182 0.084,0.35547 v 7.95508 c 0,0.51822 -0.17627,1.00839 -0.47461,1.34961 -0.29875,0.34169 -0.6753,0.52449 -1.02344,0.63086 -0.69655,0.21281 -1.37129,0.16406 -1.6543,0.16406 -0.51959,0 -1.08403,-0.13525 -1.6289,-0.25782 -0.54441,-0.12245 -1.00586,-0.24414 -1.00586,-0.24414 -0.42883,-0.11404 -0.68369,-0.55342 -0.57032,-0.98242 0.11319,-0.42961 0.55284,-0.68552 0.98243,-0.57226 0,0 0.43477,0.11563 0.94531,0.23047 0.25552,0.0575 0.54479,0.11244 0.78516,0.15234 0.12018,0.0199 0.22925,0.0355 0.31445,0.0469 0.0852,0.0114 0.14642,0.0176 0.17773,0.0176 0.36966,0 0.8681,0.005 1.1836,-0.0918 0.1574,-0.0481 0.24313,-0.10656 0.2832,-0.15235 0.0184,-0.021 0.0384,-0.044 0.0527,-0.0859 0.0143,-0.042 0.0234,-0.10348 0.0234,-0.20507 v -0.25 h -0.0156 c 0,0 -0.32016,0 -0.46289,0 -0.34405,0 -0.85169,0.009 -1.40235,-0.0625 -0.91476,-0.11785 -2.09326,-0.5145 -2.60937,-1.67579 -0.42968,-0.9668 -0.48161,-2.32356 -0.53711,-3.5996 -0.0555,-1.27544 -0.0371,-2.38086 -0.0371,-2.38086 0.007,-0.44342 0.37337,-0.79514 0.8164,-0.78907 0.44297,0.009 0.7969,0.37322 0.78907,0.81641 0,0 -0.0159,1.06565 0.0371,2.28516 0.0265,0.61007 0.0894,1.27861 0.16406,1.83789 0.0374,0.27964 0.0789,0.53148 0.11914,0.73437 0.0402,0.2029 0.0793,0.35801 0.11719,0.44336 0.10315,0.2321 0.27135,0.39336 0.49804,0.50781 0.2267,0.11446 0.51283,0.18124 0.84961,0.22461 0.40521,0.052 0.83305,0.0488 1.19532,0.0488 0.3706,0 0.46093,0 0.46093,0 h 0.0156 v -0.0156 c 0,0 0,-0.0428 0,-0.15625 v -0.002 -0.002 c 0.007,-1.316 0,-5.91992 0,-5.91992 1.5e-4,-0.22597 0.0947,-0.44153 0.26172,-0.59375 0.0168,-0.0157 0.0346,-0.0307 0.0527,-0.0449 3e-4,-1.3e-4 0.001,3.2e-4 0.002,0 v -0.002 c 5.9e-4,-3.1e-4 0.002,7e-5 0.002,0 h 0.002 c 0.0185,-0.0142 0.0369,-0.0285 0.0566,-0.041 3e-4,-1.3e-4 0.001,3.2e-4 0.002,0 v -0.002 c 5.9e-4,-3e-4 0.002,7e-5 0.002,0 0.0414,-0.0256 0.0856,-0.0467 0.13086,-0.0645 v -0.002 c 8.3e-4,-1.6e-4 0.001,1.7e-4 0.002,0 9.8e-4,-2.2e-4 0.001,-0.002 0.002,-0.002 0.005,-0.001 0.009,-0.001 0.0117,-0.002 h 0.002 0.002 c 0.0417,-0.0157 0.0831,-0.0283 0.12695,-0.0371 0.0474,-0.009 0.0965,-0.0135 0.14453,-0.0137 z"
             id="path4741-0-3-1-0-3" />
        </g>
      </g>
      <g
         id="g2680-8-0-4-2-7-7-0-4"
         transform="matrix(21.732242,0,0,-21.732242,323.6507,1608.4961)"
         style="font-size:50.8px;line-height:1.25;font-family:sans-serif;text-align:end;text-anchor:end;fill:#a3c208;fill-opacity:1;stroke:#000000;stroke-width:0;stroke-miterlimit:4;stroke-dasharray:none;stroke-opacity:1"
         inkscape:export-xdpi="136.84"
         inkscape:export-ydpi="136.84">
        <g
           id="path841-5-8-7-3-5-4-3-4-9-2-3-7"
           style="opacity:1;fill:#a3c208;fill-opacity:1">
          <path
             style="color:#000000;font-style:normal;font-variant:normal;font-weight:normal;font-stretch:normal;font-size:medium;line-height:normal;font-family:sans-serif;font-variant-ligatures:normal;font-variant-position:normal;font-variant-caps:normal;font-variant-numeric:normal;font-variant-alternates:normal;font-variant-east-asian:normal;font-feature-settings:normal;font-variation-settings:normal;text-indent:0;text-align:start;text-decoration:none;text-decoration-line:none;text-decoration-style:solid;text-decoration-color:#000000;letter-spacing:normal;word-spacing:normal;text-transform:none;writing-mode:lr-tb;direction:ltr;text-orientation:mixed;dominant-baseline:auto;baseline-shift:baseline;text-anchor:start;white-space:normal;shape-padding:0;shape-margin:0;inline-size:0;clip-rule:nonzero;display:inline;overflow:visible;visibility:visible;isolation:auto;mix-blend-mode:normal;color-interpolation:sRGB;color-interpolation-filters:linearRGB;solid-color:#000000;solid-opacity:1;vector-effect:none;fill:#a3c208;fill-opacity:1;fill-rule:nonzero;stroke:none;stroke-width:0;stroke-linecap:round;stroke-linejoin:round;stroke-miterlimit:4;stroke-dasharray:none;stroke-dashoffset:0;stroke-opacity:1;color-rendering:auto;image-rendering:auto;shape-rendering:auto;text-rendering:auto;enable-background:accumulate;stop-color:#000000;stop-opacity:1"
             d="m 173.17773,265.77344 c -0.45312,-1.8e-4 -0.82049,0.36719 -0.82031,0.82031 v 9.47266 c 7.7e-4,0.20673 0.0796,0.40555 0.2207,0.55664 0.0505,0.0551 0.10835,0.10311 0.17188,0.14257 0.001,6.6e-4 0.003,10e-4 0.004,0.002 0.0434,0.0263 0.0892,0.0485 0.13671,0.0664 0.0224,0.009 0.0452,0.0166 0.0684,0.0234 h 0.004 c 0.0232,0.007 0.0466,0.0128 0.0703,0.0176 h 0.004 c 0.0239,0.004 0.048,0.008 0.0723,0.01 0.0241,0.002 0.0482,0.002 0.0723,0.002 0.0932,2e-5 0.18562,-0.0158 0.27344,-0.0469 0.007,-0.002 0.0144,-0.005 0.0215,-0.008 0.001,-6.5e-4 0.003,-10e-4 0.004,-0.002 0.0219,-0.009 0.0434,-0.0186 0.0644,-0.0293 10e-4,-6.5e-4 0.003,-10e-4 0.004,-0.002 0.0213,-0.0108 0.0422,-0.0225 0.0625,-0.0352 0.001,-6.5e-4 0.003,-10e-4 0.004,-0.002 0.0201,-0.0128 0.0397,-0.0265 0.0586,-0.041 0.001,-6.5e-4 0.003,-10e-4 0.004,-0.002 0.0189,-0.0148 0.0372,-0.0304 0.0547,-0.0469 0.001,-6.5e-4 0.003,-10e-4 0.004,-0.002 0.0177,-0.0168 0.0346,-0.0344 0.0508,-0.0527 0.0683,-0.0754 0.12191,-0.16281 0.1582,-0.25781 0.0366,-0.0934 0.0558,-0.19267 0.0566,-0.29297 0,0 -0.007,-4.60419 0,-5.91993 v -0.004 c 0,-0.11339 2e-5,-0.15627 2e-5,-0.15627 0,0 0.0884,3e-5 0.45895,3e-5 0.48224,0 1.08939,4.1e-4 1.58008,0.11914 0.49068,0.11872 0.78447,0.288 0.94726,0.6543 0.14679,0.33027 0.34739,1.79079 0.40039,3.00976 0.053,1.21897 0.0352,2.2832 0.0352,2.2832 -0.008,0.45315 0.35349,0.82668 0.80664,0.83399 0.45239,0.007 0.82472,-0.35426 0.83203,-0.80664 0,0 0.0203,-1.10488 -0.0352,-2.38086 -0.0555,-1.27599 -0.10926,-2.63403 -0.54101,-3.60547 -0.41575,-0.93546 -1.29085,-1.39627 -2.0586,-1.58203 -0.76774,-0.18576 -1.50891,-0.16602 -1.96679,-0.16602 -0.14275,0 -0.46289,2e-5 -0.46289,2e-5 v -1.75197 c 1.8e-4,-0.45312 -0.3672,-0.8205 -0.82032,-0.82031 z"
             id="path4745-8-0-3-9-9" />
          <path
             style="color:#000000;font-style:normal;font-variant:normal;font-weight:normal;font-stretch:normal;font-size:medium;line-height:normal;font-family:sans-serif;font-variant-ligatures:normal;font-variant-position:normal;font-variant-caps:normal;font-variant-numeric:normal;font-variant-alternates:normal;font-variant-east-asian:normal;font-feature-settings:normal;font-variation-settings:normal;text-indent:0;text-align:start;text-decoration:none;text-decoration-line:none;text-decoration-style:solid;text-decoration-color:#000000;letter-spacing:normal;word-spacing:normal;text-transform:none;writing-mode:lr-tb;direction:ltr;text-orientation:mixed;dominant-baseline:auto;baseline-shift:baseline;text-anchor:start;white-space:normal;shape-padding:0;shape-margin:0;inline-size:0;clip-rule:nonzero;display:inline;overflow:visible;visibility:visible;isolation:auto;mix-blend-mode:normal;color-interpolation:sRGB;color-interpolation-filters:linearRGB;solid-color:#000000;solid-opacity:1;vector-effect:none;fill:#a3c208;fill-opacity:1;fill-rule:nonzero;stroke:none;stroke-linecap:round;stroke-linejoin:round;stroke-miterlimit:4;stroke-dasharray:none;stroke-dashoffset:0;stroke-opacity:1;color-rendering:auto;image-rendering:auto;shape-rendering:auto;text-rendering:auto;enable-background:accumulate;stop-color:#000000;stop-opacity:1"
             d="m 173.17773,265.75781 c -0.46177,-1.8e-4 -0.83612,0.37417 -0.83593,0.83594 v 9.47266 c 7.8e-4,0.21076 0.0808,0.41432 0.22461,0.56836 0.0511,0.0558 0.10956,0.10445 0.17382,0.14453 2.5e-4,1.6e-4 0.003,0.002 0.004,0.002 a 0.0160016,0.0160016 0 0 0 0.002,0 c 0.0443,0.0268 0.0903,0.0501 0.13868,0.0684 0.023,0.009 0.0467,0.0165 0.0703,0.0234 a 0.0160016,0.0160016 0 0 0 0.004,0 c 0.0237,0.007 0.0462,0.0127 0.0703,0.0176 a 0.0160016,0.0160016 0 0 0 0.004,0 h 0.004 c 0.0233,0.004 0.0458,0.008 0.0703,0.01 0.025,0.002 0.0501,0.002 0.0742,0.002 0.0944,2e-5 0.18835,-0.0156 0.27734,-0.0469 0.008,-0.002 0.0162,-0.005 0.0234,-0.008 a 0.0160016,0.0160016 0 0 0 0.002,-0.002 c 0,0 0.002,0 0.002,0 l 0.004,-0.002 c 0.001,-8.1e-4 0.002,-0.002 0.002,-0.002 0.02,-0.008 0.0411,-0.0174 0.0605,-0.0273 a 0.0160016,0.0160016 0 0 0 0.002,0 c 5.8e-4,-2.6e-4 0.002,9e-5 0.002,0 9e-5,-4e-5 -4.3e-4,-0.002 0,-0.002 l 0.004,-0.002 c 0.0198,-0.0102 0.0395,-0.0213 0.0586,-0.0332 0,0 0.002,0 0.002,0 5.8e-4,-2.6e-4 0.002,10e-5 0.002,0 1.7e-4,-9e-5 8.5e-4,-0.001 0.002,-0.002 l 0.002,-0.002 c 0.0189,-0.0121 0.0368,-0.0254 0.0547,-0.0391 2.5e-4,-10e-5 0.001,2e-4 0.002,0 v -0.002 c 4.4e-4,-2e-4 0.002,8e-5 0.002,0 2e-4,-1.1e-4 6.9e-4,-10e-4 0.002,-0.002 0.0181,-0.0142 0.0358,-0.0291 0.0527,-0.0449 6.3e-4,-2.5e-4 0.004,-0.002 0.004,-0.002 3.4e-4,-1.8e-4 0.004,-0.002 0.004,-0.002 0.0181,-0.0171 0.0362,-0.0361 0.0527,-0.0547 0.0696,-0.0769 0.12316,-0.16486 0.16016,-0.26172 0.0373,-0.0952 0.0578,-0.19657 0.0586,-0.29882 0,0 -0.007,-4.60444 0,-5.91993 v -0.004 c 0,-0.10205 0,-0.13266 0,-0.14063 0.007,10e-6 0.085,0 0.44141,0 0.48223,0 1.0884,10e-4 1.57617,0.11914 0.48872,0.11825 0.77687,0.28309 0.9375,0.64453 0.0355,0.0798 0.075,0.23361 0.11523,0.43555 0.0402,0.20194 0.0816,0.45328 0.11914,0.73242 0.0751,0.55829 0.13759,1.22705 0.16407,1.83594 0.053,1.21841 0.0351,2.2832 0.0351,2.2832 -0.008,0.46181 0.36047,0.84216 0.82227,0.84961 0.46104,0.007 0.84216,-0.36124 0.84961,-0.82226 0,0 0.0204,-1.10431 -0.0352,-2.38086 -0.0555,-1.27595 -0.10917,-2.63528 -0.54297,-3.61133 -0.41834,-0.94129 -1.29938,-1.40527 -2.07031,-1.5918 -0.77028,-0.18637 -1.51328,-0.16601 -1.9707,-0.16601 -0.13733,0 -0.42261,0 -0.44532,0 v -1.73633 c 1.9e-4,-0.46177 -0.37611,-0.83613 -0.83789,-0.83594 z m 0,0.0312 c 0.44447,-1.8e-4 0.80487,0.36022 0.80469,0.80469 v 1.75195 a 0.0160016,0.0160016 0 0 0 0.0156,0.0156 c 0,0 0.32014,0 0.46289,0 0.45834,0 1.19769,-0.0191 1.96289,0.16601 0.76457,0.18499 1.63567,0.64264 2.04883,1.57227 0.4297,0.96683 0.48356,2.32357 0.53906,3.59961 0.0555,1.27541 0.0352,2.38086 0.0352,2.38086 -0.007,0.44374 -0.37072,0.79788 -0.81446,0.79101 -0.4445,-0.007 -0.79886,-0.37387 -0.79101,-0.81836 0,0 0.0179,-1.06367 -0.0352,-2.2832 -0.0265,-0.61008 -0.0908,-1.28056 -0.16602,-1.83984 -0.0376,-0.27964 -0.0788,-0.53149 -0.11914,-0.73438 -0.0404,-0.20289 -0.0793,-0.35607 -0.11718,-0.4414 -0.16495,-0.37116 -0.46635,-0.54487 -0.95899,-0.66407 -0.49361,-0.11943 -1.10173,-0.11914 -1.58398,-0.11914 -0.37055,0 -0.45899,0 -0.45899,0 a 0.0160016,0.0160016 0 0 0 -0.0156,0.0156 c 0,0 0,0.0429 0,0.15625 v 0.004 c -0.007,1.316 0,5.91993 0,5.91993 -7.9e-4,0.0983 -0.0188,0.19552 -0.0547,0.28711 -0.0356,0.0931 -0.0893,0.17802 -0.15625,0.25195 -0.0153,0.0173 -0.0303,0.0349 -0.0469,0.0508 -7.6e-4,3.1e-4 -0.004,0.002 -0.004,0.002 a 0.0160016,0.0160016 0 0 0 -0.002,0.002 c -0.0171,0.0161 -0.0361,0.0304 -0.0547,0.0449 a 0.0160016,0.0160016 0 0 0 0,0.002 c -5.8e-4,3.1e-4 -0.002,-6e-5 -0.002,0 a 0.0160016,0.0160016 0 0 0 -0.002,0 c -0.0185,0.0142 -0.0369,0.0285 -0.0566,0.041 -7.5e-4,3e-4 -0.004,0.002 -0.004,0.002 -0.0199,0.0124 -0.0396,0.0245 -0.0606,0.0352 a 0.0160016,0.0160016 0 0 0 -0.002,0 c -7.6e-4,3e-4 -0.004,0.002 -0.004,0.002 -0.02,0.0101 -0.0415,0.0187 -0.0625,0.0273 a 0.0160016,0.0160016 0 0 0 -0.004,0.002 c -0.007,0.003 -0.0137,0.006 -0.0195,0.008 a 0.0160016,0.0160016 0 0 0 -0.002,0 c -0.0861,0.0305 -0.17619,0.0469 -0.26758,0.0469 -0.0241,0 -0.0471,-2e-5 -0.0703,-0.002 -0.0234,-0.002 -0.0464,-0.006 -0.0703,-0.01 a 0.0160016,0.0160016 0 0 0 -0.004,0 h -0.004 c -0.022,-0.005 -0.0449,-0.0111 -0.0664,-0.0176 a 0.0160016,0.0160016 0 0 0 -0.004,0 c -0.0228,-0.007 -0.0446,-0.0147 -0.0664,-0.0234 -0.0466,-0.0176 -0.0922,-0.0387 -0.13476,-0.0644 -8.1e-4,-5.9e-4 -0.002,-0.002 -0.002,-0.002 0,0 -0.002,0 -0.002,0 -0.0623,-0.0387 -0.11845,-0.0866 -0.16797,-0.14062 -0.13835,-0.14815 -0.21604,-0.34222 -0.21679,-0.54492 v -9.47266 c -1.8e-4,-0.44447 0.36022,-0.80486 0.80468,-0.80469 z"
             id="path4747-3-2-6-5-8" />
        </g>
      </g>
      <path
         id="path1025-8-9-7-9-3-5-3-0"
         style="color:#000000;font-style:normal;font-variant:normal;font-weight:normal;font-stretch:normal;font-size:50.8px;line-height:1.25;font-family:sans-serif;font-variant-ligatures:normal;font-variant-position:normal;font-variant-caps:normal;font-variant-numeric:normal;font-variant-alternates:normal;font-variant-east-asian:normal;font-feature-settings:normal;font-variation-settings:normal;text-indent:0;text-align:end;text-decoration:none;text-decoration-line:none;text-decoration-style:solid;text-decoration-color:#000000;letter-spacing:normal;word-spacing:normal;text-transform:none;writing-mode:lr-tb;direction:ltr;text-orientation:mixed;dominant-baseline:auto;baseline-shift:baseline;text-anchor:end;white-space:normal;shape-padding:0;shape-margin:0;inline-size:0;clip-rule:nonzero;display:inline;overflow:visible;visibility:visible;isolation:auto;mix-blend-mode:normal;color-interpolation:sRGB;color-interpolation-filters:linearRGB;solid-color:#000000;solid-opacity:1;vector-effect:none;fill:#a3c208;fill-opacity:1;fill-rule:nonzero;stroke:none;stroke-width:0.426371;stroke-linecap:round;stroke-linejoin:miter;stroke-miterlimit:4;stroke-dasharray:none;stroke-dashoffset:0;stroke-opacity:1;color-rendering:auto;image-rendering:auto;shape-rendering:auto;text-rendering:auto;enable-background:accumulate;stop-color:#000000"
         d="m 4548.4815,-4167.6899 c -10.4693,0.3171 -19.127,-9.8506 -17.8211,-20.1105 0.06,-68.4626 -0.1218,-136.9332 0.091,-205.3909 0.7304,-11.3845 13.8943,-19.3588 24.3239,-14.7588 8.2373,3.017 12.3221,12.2093 11.2274,20.5633 -0.06,67.8903 0.1218,135.7886 -0.091,203.6739 -0.7476,8.8966 -8.7992,16.1766 -17.7301,16.023 z m -51.7661,-49.3556 c -26.046,0.8661 -55.048,-7.0755 -70.3221,-29.7538 -15.0257,-23.0553 -13.586,-51.9541 -13.4428,-78.3228 0.5179,-23.2744 4.5077,-49.3022 23.1985,-65.3208 21.4063,-18.5527 52.269,-21.5426 79.1685,-16.6157 15.7878,3.322 31.6988,8.5139 45.0277,17.8002 8.9267,7.3791 7.4341,23.0222 -2.7175,28.5877 -6.8514,4.4027 -15.6173,2.4672 -21.9487,-1.9182 -22.6519,-10.8325 -51.0323,-16.0167 -74.0405,-3.3719 -10.8703,8.1108 -11.3746,23.2408 -12.6673,35.6253 -0.6867,19.8437 -1.8159,40.5022 4.7111,59.5598 4.2574,12.9236 19.2855,16.0651 31.146,17.5838 20.2661,1.9865 40.268,-4.6149 57.9757,-13.9313 10.8301,-4.1017 23.6846,4.9377 23.493,16.5145 0.4507,8.794 -6.5467,15.8679 -14.3038,18.8285 -17.097,8.7186 -36.0583,14.0598 -55.2778,14.7347 z"
         inkscape:export-xdpi="136.84"
         inkscape:export-ydpi="136.84" />
      <path
         style="color:#000000;font-style:normal;font-variant:normal;font-weight:normal;font-stretch:normal;font-size:50.8px;line-height:1.25;font-family:sans-serif;font-variant-ligatures:normal;font-variant-position:normal;font-variant-caps:normal;font-variant-numeric:normal;font-variant-alternates:normal;font-variant-east-asian:normal;font-feature-settings:normal;font-variation-settings:normal;text-indent:0;text-align:end;text-decoration:none;text-decoration-line:none;text-decoration-style:solid;text-decoration-color:#000000;letter-spacing:normal;word-spacing:normal;text-transform:none;writing-mode:lr-tb;direction:ltr;text-orientation:mixed;dominant-baseline:auto;baseline-shift:baseline;text-anchor:end;white-space:normal;shape-padding:0;shape-margin:0;inline-size:0;clip-rule:nonzero;display:inline;overflow:visible;visibility:visible;isolation:auto;mix-blend-mode:normal;color-interpolation:sRGB;color-interpolation-filters:linearRGB;solid-color:#000000;solid-opacity:1;vector-effect:none;fill:#a3c208;fill-opacity:1;fill-rule:nonzero;stroke:none;stroke-width:0.426371;stroke-linecap:round;stroke-linejoin:miter;stroke-miterlimit:4;stroke-dasharray:none;stroke-dashoffset:0;stroke-opacity:1;color-rendering:auto;image-rendering:auto;shape-rendering:auto;text-rendering:auto;enable-background:accumulate;stop-color:#000000"
         d="m 3491.2014,-4217.0843 c -28.6666,0 -51.6016,-9.4507 -63.0476,-28.4112 -11.3616,-18.8206 -11.9984,-40.8819 -12.0074,-67.095 a 17.819904,17.819904 0 0 1 -0.01,-0.5624 17.819904,17.819904 0 0 1 0.01,-0.4494 c 0.01,-26.2645 0.6319,-48.3597 12.0105,-67.2082 11.4461,-18.9602 34.3811,-28.4111 63.0475,-28.4111 28.6665,0 51.6045,9.4507 63.0491,28.4111 a 17.819904,17.819904 0 0 1 -6.0455,24.4673 17.819904,17.819904 0 0 1 -24.4632,-6.0461 c -4.3955,-7.2812 -10.0825,-11.1904 -32.5404,-11.1904 -22.4578,0 -28.1416,3.9092 -32.5372,11.1904 -3.2514,5.386 -5.443,16.0949 -6.3729,31.4153 h 93.6232 c 6.1655,0 12.2647,3.9307 14.8754,7.1523 2.6105,3.2217 3.3623,5.6782 3.9469,7.6487 1.1692,3.9412 1.2562,6.5668 1.3732,9.2075 0.2341,5.2816 -0.1094,10.2288 -0.2262,12.7804 v 0.017 0.016 c -0.286,6.0594 -0.7588,11.8603 -1.5461,17.4534 -0.7875,5.5925 -1.8878,10.9837 -3.4945,16.1994 -1.6065,5.2157 -3.7313,10.2684 -6.5928,15.0084 -11.4443,18.9605 -34.3821,28.4114 -63.0487,28.4114 z m 0,-35.642 c 22.4577,0 28.1447,-3.9092 32.5403,-11.1905 1.0991,-1.8205 2.134,-4.1325 3.0419,-7.08 0.9081,-2.9477 1.6772,-6.5164 2.2627,-10.6748 0.5645,-4.0107 0.9436,-8.6216 1.1939,-13.6635 h -77.949 c 0.93,15.3187 3.1217,26.0297 6.3729,31.4153 4.3957,7.2814 10.0794,11.1904 32.5373,11.1904 z"
         id="path4507-7-52-9-5-1-7"
         inkscape:export-xdpi="136.84"
         inkscape:export-ydpi="136.84" />
      <path
         style="color:#000000;font-style:normal;font-variant:normal;font-weight:normal;font-stretch:normal;font-size:50.8px;line-height:1.25;font-family:sans-serif;font-variant-ligatures:normal;font-variant-position:normal;font-variant-caps:normal;font-variant-numeric:normal;font-variant-alternates:normal;font-variant-east-asian:normal;font-feature-settings:normal;font-variation-settings:normal;text-indent:0;text-align:end;text-decoration:none;text-decoration-line:none;text-decoration-style:solid;text-decoration-color:#000000;letter-spacing:normal;word-spacing:normal;text-transform:none;writing-mode:lr-tb;direction:ltr;text-orientation:mixed;dominant-baseline:auto;baseline-shift:baseline;text-anchor:end;white-space:normal;shape-padding:0;shape-margin:0;inline-size:0;clip-rule:nonzero;display:inline;overflow:visible;visibility:visible;isolation:auto;mix-blend-mode:normal;color-interpolation:sRGB;color-interpolation-filters:linearRGB;solid-color:#000000;solid-opacity:1;vector-effect:none;fill:#a3c208;fill-opacity:1;fill-rule:nonzero;stroke:none;stroke-width:0.426371;stroke-linecap:round;stroke-linejoin:round;stroke-miterlimit:4;stroke-dasharray:none;stroke-dashoffset:0;stroke-opacity:1;color-rendering:auto;image-rendering:auto;shape-rendering:auto;text-rendering:auto;enable-background:accumulate;stop-color:#000000"
         d="m 3609.298,-4216.4212 a 17.819986,17.819986 0 0 1 -0.974,-0.032 17.819986,17.819986 0 0 1 -16.6836,-18.8893 c 0,0 1.357,-21.9646 5.1067,-48.6959 3.7495,-26.7312 9.1897,-57.8577 20.6052,-80.7428 3.213,-6.4416 7.3196,-15.9151 13.8362,-24.9574 6.5168,-9.0425 17.5627,-19.4834 33.2443,-19.4834 15.6818,0 26.7276,10.4409 33.2442,19.4834 6.5168,9.0423 10.6233,18.5158 13.8364,24.9574 11.4155,22.8851 16.8556,54.0116 20.6053,80.7428 3.7495,26.7313 5.1065,48.6959 5.1065,48.6959 a 17.819986,17.819986 0 0 1 -16.6834,18.8893 17.819986,17.819986 0 0 1 -18.8863,-16.6833 c 0,0 -1.2883,-20.7036 -4.8301,-45.9526 -3.5416,-25.2486 -10.0383,-55.4174 -17.2049,-69.7848 -3.7096,-7.4369 -7.4153,-15.251 -10.8573,-20.0271 -3.4419,-4.7758 -4.503,-4.6821 -4.3304,-4.6821 0.1728,0 -0.8883,-0.094 -4.3303,4.6821 -3.4419,4.7761 -7.1478,12.5902 -10.8572,20.0271 -7.1667,14.3674 -13.6603,44.5362 -17.2019,69.7848 -3.5418,25.249 -4.8301,45.9526 -4.8301,45.9526 a 17.819986,17.819986 0 0 1 -17.9153,16.7149 z"
         id="path841-5-1-2-3-7-2-2-7-8-1-5"
         inkscape:export-xdpi="136.84"
         inkscape:export-ydpi="136.84" />
    </g>
  </g>
</svg>
