<?xml version="1.0" encoding="UTF-8" standalone="no"?>
<!-- Created with Inkscape (http://www.inkscape.org/) -->

<svg
   width="653.67102mm"
   height="209.005mm"
   viewBox="0 0 653.67102 209.005"
   version="1.1"
   id="svg5016"
   sodipodi:docname="evalhyd-cli_logo+text.svg"
   inkscape:version="1.2.1 (9c6d41e4, 2022-07-14)"
   xmlns:inkscape="http://www.inkscape.org/namespaces/inkscape"
   xmlns:sodipodi="http://sodipodi.sourceforge.net/DTD/sodipodi-0.dtd"
   xmlns="http://www.w3.org/2000/svg"
   xmlns:svg="http://www.w3.org/2000/svg">
  <sodipodi:namedview
     id="namedview5018"
     pagecolor="#505050"
     bordercolor="#ffffff"
     borderopacity="1"
     inkscape:showpageshadow="0"
     inkscape:pageopacity="0"
     inkscape:pagecheckerboard="1"
     inkscape:deskcolor="#505050"
     inkscape:document-units="mm"
     showgrid="false"
     inkscape:zoom="0.35004679"
     inkscape:cx="1118.4219"
     inkscape:cy="658.4834"
     inkscape:window-width="1920"
     inkscape:window-height="1027"
     inkscape:window-x="0"
     inkscape:window-y="25"
     inkscape:window-maximized="1"
     inkscape:current-layer="g185" />
  <defs
     id="defs5013" />
  <g
     inkscape:label="Layer 1"
     inkscape:groupmode="layer"
     id="layer1"
     transform="translate(379.75904,89.468595)">
    <g
       id="g185">
      <path
         id="path2938"
         style="color:#000000;font-style:normal;font-variant:normal;font-weight:normal;font-stretch:normal;font-size:medium;line-height:normal;font-family:sans-serif;font-variant-ligatures:normal;font-variant-position:normal;font-variant-caps:normal;font-variant-numeric:normal;font-variant-alternates:normal;font-variant-east-asian:normal;font-feature-settings:normal;font-variation-settings:normal;text-indent:0;text-align:start;text-decoration:none;text-decoration-line:none;text-decoration-style:solid;text-decoration-color:#000000;letter-spacing:normal;word-spacing:normal;text-transform:none;writing-mode:lr-tb;direction:ltr;text-orientation:mixed;dominant-baseline:auto;baseline-shift:baseline;text-anchor:start;white-space:normal;shape-padding:0;shape-margin:0;inline-size:0;clip-rule:nonzero;display:inline;overflow:visible;visibility:visible;isolation:auto;mix-blend-mode:normal;color-interpolation:sRGB;color-interpolation-filters:linearRGB;solid-color:#000000;solid-opacity:1;fill:#00a3a6;fill-opacity:1;fill-rule:evenodd;stroke:none;stroke-width:3.75193;stroke-linecap:round;stroke-linejoin:round;stroke-miterlimit:10;stroke-dasharray:none;stroke-dashoffset:0;stroke-opacity:1;color-rendering:auto;image-rendering:auto;shape-rendering:auto;text-rendering:auto;enable-background:accumulate;stop-color:#000000"
         d="m -252.27912,-73.000198 c -13.01618,-1e-5 -26.03228,4.95989 -35.95235,14.87993 -19.84009,19.84012 -19.83972,52.0644904 0,71.90471 19.84,19.84006 52.06368,19.83964 71.9038,-4.5e-4 19.8401,-19.8401196 19.84062,-52.06425 0,-71.90426 h 0.002 c -9.9201,-9.92012 -22.93662,-14.87993 -35.9528,-14.87993 z m 0.0396,14.89659 a 8.5504869,8.5504869 0 0 1 4.3588,1.1944 l 22.69555,13.47184 a 9.0497271,9.0497271 0 0 1 4.33451,7.79761 v 26.9432404 a 9.0497271,9.0497271 0 0 1 -4.37409,7.79760997 L -247.92031,12.572492 a 8.5504869,8.5504869 0 0 1 -8.7176,0 L -279.333,-0.89890763 a 9.0497271,9.0497271 0 0 1 -4.3741,-7.79760997 V -35.639758 a 9.0497271,9.0497271 0 0 1 4.41369,-7.79761 l 22.69554,-13.47184 a 8.5504869,8.5504869 0 0 1 4.35835,-1.1944 z m -0.023,1.59658 a 6.9972936,6.9972936 0 0 0 -3.56568,0.97668 h -8.7e-4 l -22.69555,13.47183 a 7.4648363,7.4648363 0 0 0 -3.59762,6.41876 v 26.9432404 a 7.4648363,7.4648363 0 0 0 3.59762,6.41067 l 22.69555,13.4718296 a 7.0289915,7.0289915 0 0 0 3.58187,0.99062 6.9497468,6.9497468 0 0 0 1.18856,-0.11921 c -1.18852,-0.38035 -1.98123,-1.61633 -1.98123,-3.5499396 V -17.944518 c 0,-3.22522 1.9731,-4.96075 4.65167,-6.54563 l 21.4755,-13.26535 h -0.007 c 1.58699,-0.93058 2.99389,-0.82414 3.86754,0.0855 a 7.4172899,7.4172899 0 0 0 -2.94801,-4.3885 l -22.696,-13.47183 a 6.9972936,6.9972936 0 0 0 -3.56613,-0.97668 z m 29.20923,18.83701 a 7.4172899,7.4172899 0 0 1 0.5385,0.80212 c -0.14419,-0.31325 -0.32591,-0.58082 -0.5385,-0.80212 z m -19.99137,19.08713 c -0.0398,0 -0.0838,0.0124 -0.12911,0.0359 l -1.10939,0.70539 a 0.70527648,0.70527648 0 0 0 -0.3329,0.60238 v 1.95739 a 7.0448403,7.0448403 0 0 0 -2.66279,5.3885604 c 0.0396,2.43281 1.56156,2.74961 3.20983,2.74961 1.29955,0.008 1.83818,0.42004 1.83818,1.4027 a 3.1697819,3.1697819 0 0 1 -1.7752,2.71812 3.1697819,3.1697819 0 0 1 -2.37712,0.30096 0.22980919,0.22980919 0 0 0 -0.1822,0 0.45961837,0.45961837 0 0 0 -0.11156,0.0797 0.72904983,0.72904983 0 0 0 -0.22988,0.38014 l -0.41209,1.75134997 a 0.34867602,0.34867602 0 0 0 0.12732,0.42782 3.7324182,3.7324182 0 0 0 2.6151,-0.25327 V 1.5654724 c 0,0.25358 0.15069,0.3488 0.3329,0.25372 l 1.14897,-0.65771 a 0.71320095,0.71320095 0 0 0 0.33291,-0.59428003 V -1.3663476 a 7.5123831,7.5123831 0 0 0 2.75771,-5.68142 c -0.0237,-2.10786 -0.92725,-3.0591204 -3.02719,-3.0591204 -1.56903,-0.0317 -2.03656,-0.30104 -2.03656,-1.18856 a 2.630919,2.630919 0 0 1 1.58489,-2.32988 2.8765772,2.8765772 0 0 1 2.09191,-0.34055 0.26150702,0.26150702 0 0 0 0.16599,0 0.45961837,0.45961837 0 0 0 0.11157,-0.0868 0.74489875,0.74489875 0 0 0 0.19795,-0.34865 l 0.38823,-1.7356 a 0.34867602,0.34867602 0 0 0 -0.1426,-0.45167 3.6135514,3.6135514 0 0 0 -2.17108,0.26183 v -1.95739 c 0,-0.19613 -0.0845,-0.29892 -0.20379,-0.29782 z m 12.03001,12.4470404 a 0.16641355,0.16641355 0 0 0 -0.13002,0.0382 l -5.64993,3.38394 a 0.41207164,0.41207164 0 0 0 -0.26138,0.36439 v 1.48187997 a 0.16641355,0.16641355 0 0 0 0.26948,0.16645 l 5.7372,-3.48649997 a 0.45169393,0.45169393 0 0 0 0.1741,-0.43592 v -1.30778 a 0.16641355,0.16641355 0 0 0 -0.13945,-0.20469 z" />
      <path
         id="path5318"
         style="color:#000000;fill:#66c1bf;fill-rule:evenodd;stroke-width:0.470951;stroke-linecap:round;stroke-linejoin:round;stroke-miterlimit:10;fill-opacity:1"
         d="M -317.78866 -29.170467 A 0.2354982 0.23549964 0 0 0 -317.9964 -29.123958 L -318.57466 -28.637683 A 0.2354982 0.23549964 0 0 0 -318.65269 -28.514693 L -319.23095 -26.20579 A 0.2354982 0.23549964 0 0 0 -319.23509 -26.18822 L -319.81283 -22.789461 A 0.2354982 0.23549964 0 0 0 -319.8149 -22.778092 L -320.97296 -12.899109 L -321.54761 -10.189713 L -322.69586 -6.1527503 L -323.24673 -5.2287757 L -323.81103 -4.5941891 A 0.2354982 0.23549964 0 0 0 -323.85031 -4.5357947 L -324.42805 -3.2506018 A 0.2354982 0.23549964 0 0 0 -324.442 -3.2133948 L -325.0182 -1.0336829 L -325.57682 0.53056271 L -326.12149 1.1052046 A 0.2354982 0.23549964 0 0 0 -326.17626 1.198739 L -326.75452 3.093197 A 0.2354982 0.23549964 0 0 0 -326.76072 3.1185184 L -327.91724 9.226156 L -328.47587 11.106661 L -328.78024 11.398116 L -329.20812 10.548556 L -330.3605 7.278988 A 0.2354982 0.23549964 0 0 0 -330.39358 7.2164595 L -330.97184 6.4309778 A 0.2354982 0.23549964 0 0 0 -331.29792 6.3782678 L -331.87824 6.7906457 A 0.2354982 0.23549964 0 0 0 -331.95834 6.8898645 L -332.53608 8.2551558 A 0.2354982 0.23549964 0 0 0 -332.54797 8.2887455 L -333.12829 10.57181 A 0.2354982 0.23549964 0 0 0 -333.13191 10.599199 L -333.71224 15.024768 A 0.2354982 0.23549964 0 0 0 -333.71224 15.03097 L -334.2905 20.528825 L -334.77057 22.941081 L -335.00518 22.655827 L -335.56949 20.931385 L -336.14361 18.921171 L -336.72187 16.351302 L -337.30013 13.261052 L -338.45613 6.116785 L -340.19246 -5.988936 A 0.2354982 0.23549964 0 0 0 -340.19246 -5.9894527 A 0.2354982 0.23549964 0 0 0 -340.19246 -5.9899695 A 0.2354982 0.23549964 0 0 0 -340.19246 -5.9904863 L -341.35105 -13.840136 A 0.2354982 0.23549964 0 0 0 -341.35312 -13.846338 L -341.93137 -17.172233 A 0.2354982 0.23549964 0 0 0 -341.93551 -17.186185 L -342.51377 -19.672338 A 0.2354982 0.23549964 0 0 0 -342.53289 -19.727116 L -343.11115 -20.857796 A 0.2354982 0.23549964 0 0 0 -343.52353 -20.873816 L -344.10127 -19.92607 A 0.2354982 0.23549964 0 0 0 -344.13486 -19.83822 L -344.7126 -15.848283 A 0.2354982 0.23549964 0 0 0 -344.71467 -15.83278 L -345.29293 -8.1800167 A 0.2354982 0.23549964 0 0 0 -345.29499 -8.1763994 L -345.87325 1.233879 L -346.451 8.8039595 L -347.02719 13.245549 L -348.18164 17.735714 A 0.2354982 0.23549964 0 0 0 -348.18526 17.753284 L -348.76507 21.134473 A 0.2354982 0.23549964 0 0 0 -348.76713 21.147909 L -349.92365 31.872319 L -350.50139 35.637981 L -351.07552 38.145838 L -351.64603 40.007223 L -352.12093 40.886239 L -352.51522 40.763249 A 0.2354982 0.23549964 0 0 0 -352.55243 40.753431 L -353.13069 40.671265 A 0.2354982 0.23549964 0 0 0 -353.31001 40.718291 L -353.89033 41.177177 A 0.2354982 0.23549964 0 0 0 -353.94511 41.239706 L -354.52285 42.184868 A 0.2354982 0.23549964 0 0 0 -354.54456 42.231893 L -355.12437 43.882439 A 0.2354982 0.23549964 0 0 0 -355.13264 43.915511 L -355.71245 46.950468 A 0.2354982 0.23549964 0 0 0 -355.71451 46.966488 L -357.44929 60.909823 L -357.55833 61.28086 A 0.2354982 0.23549964 0 0 0 -357.53714 61.462244 C -356.56928 63.178354 -355.54677 64.852275 -354.48306 66.491394 A 0.23551157 0.23549937 0 0 1 -354.51097 66.32758 L -354.50528 66.296574 A 0.23551157 0.23549937 0 0 1 -354.49392 66.263501 L -353.91566 64.804159 A 0.23551157 0.23549937 0 0 1 -353.89602 64.767469 L -353.31776 63.827991 A 0.23551157 0.23549937 0 0 1 -353.28314 63.784583 L -352.70488 63.208907 A 0.23551157 0.23549937 0 0 1 -352.57414 63.144312 L -351.54474 62.986182 L -351.02436 61.776954 L -350.4523 59.621013 L -349.87611 56.82015 L -349.29785 52.764584 L -348.13978 41.493437 A 0.23551157 0.23549937 0 0 1 -348.13771 41.479484 L -347.55946 37.843014 A 0.23551157 0.23549937 0 0 1 -347.55532 37.827511 L -346.40087 32.862439 L -345.82468 28.202259 L -345.24487 20.42909 L -344.66661 10.829676 A 0.23551157 0.23549937 0 0 1 -344.66661 10.827609 L -344.08628 2.9955285 A 0.23551157 0.23549937 0 0 1 -344.08421 2.9815759 L -343.50647 -1.1763098 A 0.23551157 0.23549937 0 0 1 -343.48063 -1.252791 L -342.90289 -2.3581499 A 0.23551157 0.23549937 0 0 1 -342.6998 -2.4847571 A 0.23551157 0.23549937 0 0 1 -342.49051 -2.3679684 L -341.91329 -1.3814653 A 0.23551157 0.23549937 0 0 1 -341.88745 -1.3189368 L -341.30764 1.0307906 A 0.23551157 0.23549937 0 0 1 -341.30557 1.0442265 L -340.72525 4.2435144 A 0.23551157 0.23549937 0 0 1 -340.72525 4.2445479 A 0.23551157 0.23549937 0 0 1 -340.72525 4.2455814 A 0.23551157 0.23549937 0 0 1 -340.72525 4.2471317 A 0.23551157 0.23549937 0 0 1 -340.72525 4.2481653 A 0.23551157 0.23549937 0 0 1 -340.72525 4.2491988 L -339.56718 11.866305 L -337.83085 23.673336 L -336.67278 30.649655 L -336.09452 33.663424 L -335.51833 36.161463 L -334.9442 38.102946 L -334.38196 39.760726 L -334.15149 40.018592 L -333.66315 37.524687 L -333.08695 31.973605 A 0.23551157 0.23549937 0 0 1 -333.08489 31.96792 L -332.50663 27.491191 A 0.23551157 0.23549937 0 0 1 -332.50043 27.46587 L -331.92217 25.135779 A 0.23551157 0.23549937 0 0 1 -331.91028 25.102706 L -331.33151 23.694523 A 0.23551157 0.23549937 0 0 1 -331.26019 23.598922 L -330.67987 23.14572 A 0.23551157 0.23549937 0 0 1 -330.50623 23.098177 A 0.23551157 0.23549937 0 0 1 -330.34965 23.186544 L -329.76933 23.932752 A 0.23551157 0.23549937 0 0 1 -329.7347 23.997347 L -328.58232 27.196635 L -328.15857 28.011056 L -327.84955 27.696346 L -327.28937 25.784318 L -326.13492 19.622421 A 0.23551157 0.23549937 0 0 1 -326.12872 19.598649 L -325.54891 17.67887 A 0.23551157 0.23549937 0 0 1 -325.49827 17.588953 L -324.9505 16.991573 L -324.39033 15.403557 L -323.81413 13.202657 A 0.23551157 0.23549937 0 0 1 -323.80225 13.167001 L -323.22192 11.862688 A 0.23551157 0.23549937 0 0 1 -323.18523 11.803776 L -322.62041 11.15162 L -322.06799 10.210075 L -320.92129 6.1400394 L -320.3451 3.4172082 L -319.18909 -6.4870968 A 0.23551157 0.23549937 0 0 1 -319.18703 -6.5005327 L -318.6067 -9.9106604 A 0.23551157 0.23549937 0 0 1 -318.60463 -9.9282304 L -318.02482 -12.248502 A 0.23551157 0.23549937 0 0 1 -317.94834 -12.369942 L -317.3706 -12.867586 A 0.23551157 0.23549937 0 0 1 -317.16234 -12.916162 A 0.23551157 0.23549937 0 0 0 -317.16286 -12.916678 L -317.16131 -12.916678 A 0.23551157 0.23549937 0 0 0 -317.16234 -12.916162 L -317.16131 -12.916162 A 0.23551157 0.23549937 0 0 1 -316.99956 -12.776119 L -316.41975 -11.332796 A 0.23551157 0.23549937 0 0 1 -316.40787 -11.293522 L -315.82961 -8.4828406 A 0.23551157 0.23549937 0 0 1 -315.82754 -8.4714718 L -314.66741 -0.9437659 L -314.09121 2.8311975 L -313.51709 5.4703129 L -312.9409 7.1968225 A 0.23551157 0.23549937 0 0 1 -312.93883 7.2045739 L -312.35902 9.1636275 A 0.23551157 0.23549937 0 0 1 -312.35489 9.1770634 L -311.20043 14.108545 L -310.63044 15.657805 L -309.47806 18.110885 A 0.23551157 0.23549937 0 0 1 -309.46617 18.139824 L -308.88636 19.962452 A 0.23551157 0.23549937 0 0 1 -308.88223 19.977954 L -308.30397 22.353003 A 0.23551157 0.23549937 0 0 1 -308.3019 22.360755 L -307.14383 27.954212 A 0.23551157 0.23549937 0 0 0 -307.14383 27.954729 A 0.23551157 0.23549937 0 0 0 -307.14383 27.955245 A 0.23551157 0.23549937 0 0 0 -307.14383 27.955762 A 0.23551157 0.23549937 0 0 0 -307.14383 27.956279 L -305.40544 36.620349 L -304.24892 41.922868 L -303.0924 46.682784 L -301.9364 50.879944 L -301.36021 52.720142 L -300.20782 55.766984 L -299.05957 58.274842 L -297.34857 61.182675 L -296.97133 61.487565 L -296.55947 61.065369 L -295.99309 60.15173 A 0.23551157 0.23549937 0 0 1 -295.98276 60.13571 L -295.40502 59.347128 A 0.23551157 0.23549937 0 0 1 -295.37349 59.313538 L -294.79575 58.780237 A 0.23551157 0.23549937 0 0 1 -294.65881 58.719776 L -294.07848 58.664999 A 0.23551157 0.23549937 0 0 1 -293.93999 58.694454 L -293.39325 59.007097 L -292.96899 59.090813 L -292.50183 58.657247 L -291.9551 57.804069 L -291.38872 55.99126 L -290.81253 53.385734 L -289.65653 46.745313 A 0.23551157 0.23549937 0 0 1 -289.65446 46.731877 L -287.91607 39.331295 A 0.23551157 0.23549937 0 0 1 -287.8985 39.282719 L -287.32024 38.102946 A 0.23551157 0.23549937 0 0 1 -287.08976 37.972205 L -286.5115 38.015096 A 0.23551157 0.23549937 0 0 1 -286.33218 38.122583 L -285.75186 39.012968 A 0.23551157 0.23549937 0 0 1 -285.73222 39.052242 L -285.15241 40.460425 A 0.23551157 0.23549937 0 0 1 -285.14828 40.471794 L -284.57002 42.134225 A 0.23551157 0.23549937 0 0 1 -284.56588 42.144043 L -282.82956 47.903382 L -281.67304 51.657675 L -281.10098 53.32734 L -280.66741 54.071481 L -280.34134 53.833252 L -279.7884 52.794039 A 0.23551157 0.23549937 0 0 1 -279.77445 52.770785 L -279.19464 51.928976 A 0.23551157 0.23549937 0 0 1 -279.17086 51.901587 L -278.59261 51.290255 A 0.23551157 0.23549937 0 0 1 -278.52026 51.237545 L -277.942 50.969861 A 0.23551157 0.23549937 0 0 1 -277.72754 50.977613 L -277.14722 51.305758 A 0.23551157 0.23549937 0 0 1 -277.0728 51.374488 L -276.49299 52.174956 A 0.23551157 0.23549937 0 0 1 -276.47542 52.202344 L -275.89716 53.297884 A 0.23551157 0.23549937 0 0 1 -275.88941 53.313904 L -274.73289 55.93855 A 0.23551157 0.23549937 0 0 1 -274.73083 55.941134 L -272.99398 60.037008 L -272.42192 61.269491 L -271.86537 62.197083 L -271.31243 62.765524 L -270.74606 63.228544 A 0.23551157 0.23549937 0 0 1 -270.72435 63.247665 L -270.14454 63.849178 A 0.23551157 0.23549937 0 0 1 -270.12697 63.87295 L -268.9689 65.421692 A 0.23551157 0.23549937 0 0 1 -268.96477 65.42531 L -266.65225 68.696945 L -266.08794 69.396127 L -265.54844 69.911857 L -265.03684 70.144401 L -263.90978 70.315967 A 0.23551157 0.23549937 0 0 1 -263.87102 70.325786 L -262.74189 70.706641 L -262.19516 70.738164 A 0.23551157 0.23549937 0 0 1 -262.14245 70.745915 L -261.56419 70.913863 A 0.23551157 0.23549937 0 0 1 -261.51509 70.933501 L -260.93684 71.251827 A 0.23551157 0.23549937 0 0 1 -260.91151 71.26733 L -259.17519 72.530819 A 0.23551157 0.23549937 0 0 1 -259.17105 72.532886 L -256.28234 74.730168 L -254.55996 75.835527 L -253.4174 76.462879 L -251.69451 77.257662 L -249.97368 77.9 L -248.84455 78.23228 L -247.12786 78.427617 A 0.23551157 0.23549937 0 0 1 -247.10616 78.431234 L -244.23295 79.009493 L -243.69189 79.017245 L -242.54933 78.880819 A 0.23551157 0.23549937 0 0 1 -242.51264 78.878752 L -241.37576 78.925778 L -240.83057 78.845679 L -240.26213 78.704602 A 0.23551157 0.23549937 0 0 1 -240.23112 78.698918 L -239.6508 78.634322 A 0.23551157 0.23549937 0 0 1 -239.61721 78.634322 L -239.03946 78.65396 A 0.23551157 0.23549937 0 0 1 -239.01208 78.656027 L -237.85401 78.833794 A 0.23551157 0.23549937 0 0 1 -237.84005 78.837411 L -233.22483 79.820297 L -232.09725 79.896261 L -231.60529 79.866805 L -231.09525 79.482333 L -230.52887 78.913892 A 0.23551157 0.23549937 0 0 1 -230.49167 78.882369 L -229.91186 78.499964 A 0.23551157 0.23549937 0 0 1 -229.86483 78.476193 L -228.70676 78.046761 A 0.23551157 0.23549937 0 0 1 -228.69126 78.04056 L -227.53319 77.701046 A 0.23551157 0.23549937 0 0 1 -227.47221 77.691228 L -226.89447 77.675208 A 0.23551157 0.23549937 0 0 1 -226.84538 77.679342 L -225.70849 77.890182 L -225.21654 77.884497 L -224.73388 77.591492 L -224.18507 76.855103 L -223.04251 75.099138 L -221.89219 72.478109 A 0.23551157 0.23549937 0 0 1 -221.87669 72.447103 L -221.30825 71.538632 L -220.15741 68.663872 A 0.23551157 0.23549937 0 0 1 -220.12641 68.609095 L -219.54815 67.851001 A 0.23551157 0.23549937 0 0 1 -219.42877 67.769353 L -218.84897 67.593136 A 0.23551157 0.23549937 0 0 1 -218.70065 67.59727 L -218.12033 67.810177 A 0.23551157 0.23549937 0 0 1 -218.05573 67.845317 L -217.47799 68.302137 A 0.23551157 0.23549937 0 0 1 -217.44853 68.329525 L -216.29046 69.620919 A 0.23551157 0.23549937 0 0 1 -216.28271 69.628671 L -213.97174 72.468291 L -212.82349 73.718343 L -211.67679 74.808199 L -210.53061 75.74561 L -209.96785 76.153854 L -209.44644 76.460295 L -209.00719 76.489751 L -208.5204 76.136284 L -207.97004 75.476376 L -207.40367 74.607178 L -206.25128 72.450721 A 0.23551157 0.23549937 0 0 1 -206.21201 72.398011 L -205.08236 71.23219 L -204.52374 69.958366 L -203.95375 68.358981 L -203.37963 65.538481 L -202.22311 56.778809 L -201.06504 45.642021 A 0.23551157 0.23549937 0 0 1 -201.06504 45.63582 L -200.48471 41.399386 A 0.23551157 0.23549937 0 0 1 -200.48471 41.388017 L -199.90697 38.319471 L -199.32871 33.177149 L -198.17219 15.518795 A 0.23551157 0.23549937 0 0 1 -198.17012 15.511044 L -197.59186 9.866427 A 0.23551157 0.23549937 0 0 1 -197.58773 9.8390385 L -197.00792 7.1673669 A 0.23551157 0.23549937 0 0 1 -196.88286 7.0051029 L -196.30254 6.7182987 A 0.23551157 0.23549937 0 0 1 -196.1165 6.708997 A 0.23551157 0.23549937 0 0 1 -195.98214 6.8371545 L -195.4044 8.1946944 A 0.23551157 0.23549937 0 0 1 -195.39045 8.2298344 L -194.81271 10.597132 A 0.23551157 0.23549937 0 0 1 -194.81064 10.60695 L -193.65257 16.541988 A 0.23551157 0.23549937 0 0 1 -193.6505 16.544056 L -190.17733 35.561499 L -189.59907 38.313786 L -189.02495 40.714156 L -188.46426 42.139909 L -187.9232 42.84891 L -187.63433 43.083004 L -187.16149 41.575603 L -186.5853 39.085315 A 0.23551157 0.23549937 0 0 1 -186.56618 39.034156 L -185.98792 37.862651 A 0.23551157 0.23549937 0 0 1 -185.79052 37.73191 L -185.30424 37.704521 L -184.83347 37.198609 L -183.68884 32.31932 A 0.23551157 0.23549937 0 0 1 -183.66972 32.26506 L -183.08939 31.167452 A 0.23551157 0.23549937 0 0 1 -182.98397 31.06565 L -182.42173 30.794349 A 0.23551157 0.23549937 0 0 1 -182.20779 30.798483 A 0.23551157 0.23549937 0 0 1 -182.08635 30.972632 C -181.2069 25.793691 -180.74279 20.473643 -180.74276 15.044405 C -180.74274 12.956884 -180.81337 10.871392 -180.95154 8.7884566 C -180.95206 8.7806666 -180.95102 8.7729962 -180.95154 8.7652022 L -180.9536 8.7750207 A 0.2354982 0.23549964 0 0 0 -181.01975 8.6127567 L -181.03577 8.5972538 A 0.2354982 0.23549964 0 0 0 -181.39492 8.6303267 L -181.97473 9.4623173 A 0.2354982 0.23549964 0 0 0 -182.01039 9.5424157 L -182.58658 11.915398 L -183.13125 13.766964 L -183.60202 13.944731 A 0.2354982 0.23549964 0 0 0 -183.72294 14.050151 L -184.30327 15.08368 A 0.2354982 0.23549964 0 0 0 -184.32652 15.142074 L -185.46702 19.872535 L -185.91816 20.294214 L -186.39307 20.25339 A 0.2354982 0.23549964 0 0 0 -186.62147 20.378447 L -187.19973 21.462102 A 0.2354982 0.23549964 0 0 0 -187.22092 21.516879 L -187.79711 23.913632 L -188.25445 25.290292 L -188.54435 24.999353 L -189.09523 24.173564 L -189.65953 22.622754 L -190.23366 20.091126 L -191.39224 14.005192 L -194.28664 -2.8444251 A 0.2354982 0.23549964 0 0 0 -194.28664 -2.8449418 A 0.2354982 0.23549964 0 0 0 -194.28664 -2.8454586 A 0.2354982 0.23549964 0 0 0 -194.28664 -2.8459754 L -195.44471 -9.2233639 A 0.2354982 0.23549964 0 0 0 -195.44678 -9.2311153 L -196.02504 -11.840258 A 0.2354982 0.23549964 0 0 0 -196.03279 -11.867647 L -196.61311 -13.485119 A 0.2354982 0.23549964 0 0 0 -196.83946 -13.641182 L -197.41978 -13.627229 A 0.2354982 0.23549964 0 0 0 -197.64251 -13.447912 L -198.22025 -11.066662 A 0.2354982 0.23549964 0 0 0 -198.22645 -11.037723 L -198.80471 -5.7036821 A 0.2354982 0.23549964 0 0 0 -198.80678 -5.6938636 L -199.96485 11.288562 L -200.54104 16.066049 L -201.11723 18.753223 A 0.2354982 0.23549964 0 0 0 -201.12085 18.767176 L -201.69911 22.610869 A 0.2354982 0.23549964 0 0 0 -201.70117 22.61862 L -202.85924 32.958558 L -204.01369 40.969955 L -204.58782 43.484013 L -205.15626 44.868425 L -205.72263 46.085405 L -206.28332 46.806291 A 0.2354982 0.23549964 0 0 0 -206.30451 46.83523 L -206.88484 47.880127 A 0.2354982 0.23549964 0 0 0 -206.90447 47.92922 L -207.48222 49.905843 A 0.2354982 0.23549964 0 0 0 -207.48635 49.919279 L -208.06254 52.4075 L -208.61341 53.956759 L -209.09607 54.341232 L -209.51775 54.419263 L -209.98646 54.091118 L -210.53733 53.372299 L -211.68765 51.587395 L -212.83796 49.522921 L -213.99035 47.155624 L -215.1448 44.483952 L -216.88113 40.056315 A 0.2354982 0.23549964 0 0 0 -216.88113 40.055799 A 0.2354982 0.23549964 0 0 0 -216.88113 40.055282 A 0.2354982 0.23549964 0 0 0 -216.88113 40.054765 A 0.2354982 0.23549964 0 0 0 -216.88113 40.054248 L -218.0392 37.169153 A 0.2354982 0.23549964 0 0 0 -218.04488 37.157784 L -218.62469 35.933053 A 0.2354982 0.23549964 0 0 0 -218.63864 35.907731 L -219.21638 34.993575 A 0.2354982 0.23549964 0 0 0 -219.27891 34.92743 L -219.85717 34.515052 A 0.2354982 0.23549964 0 0 0 -220.12072 34.509367 L -220.69898 34.878337 A 0.2354982 0.23549964 0 0 0 -220.7889 34.983757 L -221.36871 36.33923 A 0.2354982 0.23549964 0 0 0 -221.37904 36.364551 L -222.53505 40.188607 A 0.2354982 0.23549964 0 0 0 -222.54331 40.218063 L -223.12106 43.624573 A 0.2354982 0.23549964 0 0 0 -223.12312 43.634392 L -223.70345 48.243413 L -224.85945 57.011353 L -225.42996 60.288672 L -225.91417 61.022994 L -226.33998 61.028679 L -227.46911 60.77288 A 0.2354982 0.23549964 0 0 0 -227.53112 60.767196 L -228.11093 60.79045 A 0.2354982 0.23549964 0 0 0 -228.17346 60.802336 L -228.75172 60.989921 A 0.2354982 0.23549964 0 0 0 -228.77394 60.99974 L -229.3522 61.253471 A 0.2354982 0.23549964 0 0 0 -229.36254 61.257089 L -230.5206 61.829663 A 0.2354982 0.23549964 0 0 0 -230.5697 61.862736 L -231.14951 62.366582 A 0.2354982 0.23549964 0 0 0 -231.18258 62.401722 L -231.75309 63.152063 L -232.26107 63.667277 L -232.73752 63.719987 L -233.85683 63.659526 L -238.46792 62.563986 A 0.2354982 0.23549964 0 0 0 -238.48343 62.559851 L -239.64149 62.372266 A 0.2354982 0.23549964 0 0 0 -239.67508 62.370716 L -240.25489 62.360897 A 0.2354982 0.23549964 0 0 0 -240.29623 62.362964 L -240.87398 62.454432 A 0.2354982 0.23549964 0 0 0 -240.91118 62.462183 L -241.47756 62.646151 L -242.01654 62.757255 L -243.14929 62.735551 A 0.2354982 0.23549964 0 0 0 -243.18495 62.737618 L -243.76269 62.814099 A 0.2354982 0.23549964 0 0 0 -243.78646 62.817717 L -244.34095 62.944841 L -244.86805 62.956726 L -247.15938 62.485954 A 0.2354982 0.23549964 0 0 0 -247.1692 62.485954 L -248.32727 62.296302 A 0.2354982 0.23549964 0 0 0 -248.34897 62.294235 L -249.48172 62.214136 L -250.60672 61.88444 L -252.32754 61.239519 L -254.04837 60.442668 L -255.193 59.8179 L -256.91538 58.708407 L -259.80202 56.511125 A 0.2354982 0.23549964 0 0 0 -259.80616 56.506991 L -261.54455 55.243502 A 0.2354982 0.23549964 0 0 0 -261.5678 55.227999 L -262.14813 54.909672 A 0.2354982 0.23549964 0 0 0 -262.19464 54.890035 L -262.77497 54.72002 A 0.2354982 0.23549964 0 0 0 -262.82768 54.710201 L -263.37441 54.681263 L -264.50148 54.29834 A 0.2354982 0.23549964 0 0 0 -264.5423 54.288522 L -265.6673 54.114372 L -266.18096 53.883895 L -266.71994 53.366614 L -267.28477 52.667432 L -269.59729 49.39373 A 0.2354982 0.23549964 0 0 0 -269.59936 49.390113 L -270.75794 47.837236 A 0.2354982 0.23549964 0 0 0 -270.77654 47.815532 L -271.3548 47.212468 A 0.2354982 0.23549964 0 0 0 -271.37651 47.192831 L -271.94495 46.72981 L -272.4953 46.161369 L -273.05393 45.233777 L -273.62598 43.999227 L -275.36024 39.90387 A 0.2354982 0.23549964 0 0 0 -275.36231 39.899736 L -276.52038 37.27509 A 0.2354982 0.23549964 0 0 0 -276.52865 37.261137 L -277.10639 36.161463 A 0.2354982 0.23549964 0 0 0 -277.12396 36.134074 L -277.70222 35.333606 A 0.2354982 0.23549964 0 0 0 -277.7787 35.266944 L -278.35644 34.937248 A 0.2354982 0.23549964 0 0 0 -278.57142 34.92743 L -279.15174 35.194597 A 0.2354982 0.23549964 0 0 0 -279.22409 35.247307 L -279.80183 35.858639 A 0.2354982 0.23549964 0 0 0 -279.8256 35.886027 L -280.40335 36.725769 A 0.2354982 0.23549964 0 0 0 -280.4173 36.749541 L -280.97179 37.788754 L -281.29632 38.024915 L -281.73143 37.280774 L -282.30194 35.609042 L -283.46001 31.853199 L -285.19479 26.091276 A 0.2354982 0.23549964 0 0 0 -285.19892 26.081458 L -285.77718 24.419544 A 0.2354982 0.23549964 0 0 0 -285.78286 24.407658 L -286.36267 22.997408 A 0.2354982 0.23549964 0 0 0 -286.38231 22.958651 L -286.96057 22.067749 A 0.2354982 0.23549964 0 0 0 -287.13989 21.960262 L -287.72021 21.915304 A 0.2354982 0.23549964 0 0 0 -287.94862 22.046045 L -288.52688 23.225818 A 0.2354982 0.23549964 0 0 0 -288.54445 23.274911 L -290.28285 30.669292 A 0.2354982 0.23549964 0 0 0 -290.28491 30.683244 L -291.44298 37.323666 L -292.01918 39.927124 L -292.58555 41.737867 L -293.13022 42.589494 L -293.59892 43.020992 L -294.02319 42.93521 L -294.56786 42.622567 A 0.2354982 0.23549964 0 0 0 -294.70635 42.593112 L -295.28668 42.645822 A 0.2354982 0.23549964 0 0 0 -295.4231 42.70835 L -296.00343 43.237517 A 0.2354982 0.23549964 0 0 0 -296.03288 43.272657 L -296.61269 44.060205 A 0.2354982 0.23549964 0 0 0 -296.62303 44.075708 L -297.1894 44.98573 L -297.5992 45.40741 L -297.9785 45.100969 L -299.68744 42.184868 L -300.83776 39.673393 L -301.99014 36.620349 L -302.56634 34.778601 L -303.72234 30.57369 L -304.87886 25.80809 L -306.03486 20.497303 L -307.77119 11.821863 A 0.2354982 0.23549964 0 0 0 -307.77325 11.819796 L -308.92925 6.2160038 A 0.2354982 0.23549964 0 0 0 -308.93132 6.2082523 L -309.51165 3.8295862 A 0.2354982 0.23549964 0 0 0 -309.51527 3.8156335 L -310.09508 1.985771 A 0.2354982 0.23549964 0 0 0 -310.10541 1.9563155 L -311.25986 -0.50865034 L -311.83037 -2.0630774 L -312.9843 -7.008512 A 0.2354982 0.23549964 0 0 0 -312.98844 -7.0219479 L -313.5667 -8.9872026 A 0.2354982 0.23549964 0 0 0 -313.57032 -8.994954 L -314.14444 -10.731282 L -314.71857 -13.375565 L -315.29682 -17.158797 L -316.45489 -24.703556 A 0.2354982 0.23549964 0 0 0 -316.45696 -24.715442 L -317.03522 -27.537491 A 0.2354982 0.23549964 0 0 0 -317.04866 -27.576766 L -317.62692 -29.029907 A 0.2354982 0.23549964 0 0 0 -317.78866 -29.16995 L -317.78866 -29.170467 z " />
      <path
         id="path2963-8-6-1-3-0-2-96"
         style="fill:none;fill-rule:evenodd;stroke:#00a3a6;stroke-width:4.46332;stroke-linecap:round;stroke-linejoin:round;stroke-miterlimit:10;stroke-dasharray:none;stroke-opacity:1"
         d="m -183.58337,4.3966269 c -0.17233,-1.4929331 -0.38002,-2.9745095 -0.62209,-4.44391254 -0.48409,-2.93880606 -1.10591,-5.82880186 -1.85833,-8.66345336 -1.50487,-5.66942 -3.5323,-11.117424 -6.02622,-16.291701 -4.9879,-10.348477 -11.84164,-19.601893 -20.11278,-27.340324 -16.54229,-15.476939 -38.75388,-24.894326 -63.04572,-24.894171 -50.96434,3.11e-4 -92.27891,41.31519 -92.27867,92.279529 4e-5,7.94145 1.02501,15.815694 3.02522,23.43383 1.00017,3.809068 2.24407,7.554118 3.72565,11.211583"
         sodipodi:nodetypes="cssssccsc" />
      <path
         id="path5236"
         style="color:#000000;fill:#275662;fill-rule:evenodd;stroke-width:0.470953;stroke-linecap:round;stroke-linejoin:round;stroke-miterlimit:10;fill-opacity:1"
         d="m -317.16275,-12.916794 a 0.23551157,0.23549937 0 0 0 5.1e-4,5.16e-4 0.23551157,0.23549937 0 0 1 10e-4,-5.16e-4 z m 5.1e-4,5.16e-4 a 0.23551157,0.23549937 0 0 0 -0.20826,0.04858 l -0.57774,0.497647 a 0.23551157,0.23549937 0 0 0 -0.0765,0.12144 l -0.57992,2.3202836 a 0.23551157,0.23549937 0 0 0 -0.002,0.01757 l -0.58045,3.4101451 a 0.23551157,0.23549937 0 0 0 -0.002,0.013436 l -1.15605,9.9043557 -0.57621,2.7228451 -1.1467,4.0700565 -0.55242,0.94155 -0.56483,0.65216 a 0.23551157,0.23549937 0 0 0 -0.0367,0.05891 l -0.58034,1.304319 a 0.23551157,0.23549937 0 0 0 -0.0119,0.03566 l -0.57618,2.20091 -0.56026,1.588025 -0.5474,0.597382 a 0.23551157,0.23549937 0 0 0 -0.0507,0.08992 l -0.57988,1.91979 a 0.23551157,0.23549937 0 0 0 -0.006,0.02377 l -1.15446,6.16193 -0.56018,1.912038 -0.30903,0.31471 -0.42373,-0.814425 -1.1524,-3.199303 a 0.23551157,0.23549937 0 0 0 -0.0351,-0.0646 l -0.57982,-0.746211 a 0.23551157,0.23549937 0 0 0 -0.33021,-0.04082 l -0.58033,0.453205 a 0.23551157,0.23549937 0 0 0 -0.0718,0.0956 l -0.57846,1.408189 a 0.23551157,0.23549937 0 0 0 -0.0119,0.03307 l -0.57835,2.330103 a 0.23551157,0.23549937 0 0 0 -0.006,0.02532 l -0.57825,4.476752 a 0.23551157,0.23549937 0 0 0 -0.002,0.0057 l -0.57619,5.55111 -0.48836,2.493918 -0.23047,-0.257868 -0.56224,-1.657787 -0.57413,-1.941494 -0.5762,-2.498052 -0.57827,-3.013784 -1.15807,-6.976355 -1.73664,-11.807091 -1.15809,-7.6171458 a 0.23551157,0.23549937 0 0 0 0,-0.00568 l -0.58032,-3.1993044 a 0.23551157,0.23549937 0 0 0 -0.002,-0.013436 l -0.57981,-2.3497395 a 0.23551157,0.23549937 0 0 0 -0.0258,-0.062528 l -0.57722,-0.9865081 a 0.23551157,0.23549937 0 0 0 -0.41238,0.00982 l -0.57775,1.1053646 a 0.23551157,0.23549937 0 0 0 -0.0258,0.076481 l -0.57774,4.157907 a 0.23551157,0.23549937 0 0 0 -0.002,0.013953 l -0.58043,7.8321202 a 0.23551157,0.23549937 0 0 0 0,0.0021 l -0.57848,9.599464 -0.57981,7.773208 -0.57619,4.660205 -1.15446,4.965097 a 0.23551157,0.23549937 0 0 0 -0.004,0.0155 l -0.57826,3.636489 a 0.23551157,0.23549937 0 0 0 -0.002,0.01395 l -1.15808,11.271205 -0.57827,4.055071 -0.57619,2.800876 -0.57206,2.155952 -0.52019,1.209234 -1.02938,0.158131 a 0.23551157,0.23549937 0 0 0 -0.13074,0.0646 l -0.57827,0.575678 a 0.23551157,0.23549937 0 0 0 -0.0346,0.04341 l -0.57827,0.939482 a 0.23551157,0.23549937 0 0 0 -0.0196,0.03669 l -0.57826,1.459351 a 0.23551157,0.23549937 0 0 0 -0.0114,0.03307 l -0.006,0.03101 a 0.23551157,0.23549937 0 0 0 0.031,0.181902 c 17.42638,26.841235 47.25505,43.038989 79.25823,43.038939 46.01733,-7e-5 85.3475,-33.150711 93.1342,-78.502072 a 0.23551157,0.23549937 0 0 0 0.002,-0.07235 0.23551157,0.23549937 0 0 0 -0.33591,-0.179317 l -0.56226,0.271302 a 0.23551157,0.23549937 0 0 0 -0.10542,0.101803 l -0.58035,1.097613 a 0.23551157,0.23549937 0 0 0 -0.0191,0.05426 l -1.14472,4.879314 -0.47081,0.505915 -0.48628,0.02739 a 0.23551157,0.23549937 0 0 0 -0.19743,0.130742 l -0.57828,1.171511 a 0.23551157,0.23549937 0 0 0 -0.0191,0.05116 l -0.57622,2.4903 -0.47288,1.507408 -0.28887,-0.234095 -0.54109,-0.709004 -0.56072,-1.42576 -0.57414,-2.400383 -0.57828,-2.7523 -3.47286,-19.017541 a 0.23551157,0.23549937 0 0 0 -0.002,-0.0021 l -1.15815,-5.93507 a 0.23551157,0.23549937 0 0 0 -0.002,-0.0098 l -0.57778,-2.3673096 a 0.23551157,0.23549937 0 0 0 -0.014,-0.03514 l -0.57776,-1.3575469 a 0.23551157,0.23549937 0 0 0 -0.3204,-0.1188564 l -0.58036,0.2868057 a 0.23551157,0.23549937 0 0 0 -0.12506,0.1622648 l -0.57987,2.6716852 a 0.23551157,0.23549937 0 0 0 -0.004,0.027389 l -0.57827,5.6446462 a 0.23551157,0.23549937 0 0 0 -0.002,0.0078 l -1.15657,17.658445 -0.57829,5.142348 -0.57778,3.068562 a 0.23551157,0.23549937 0 0 0 0,0.01137 l -0.58035,4.236455 a 0.23551157,0.23549937 0 0 0 0,0.0062 l -1.15814,11.136328 -1.15659,8.759717 -0.57418,2.820515 -0.57,1.599394 -0.55862,1.27383 -1.12919,1.165826 a 0.23551157,0.23549937 0 0 0 -0.0393,0.05271 l -1.15245,2.156469 -0.56642,0.869201 -0.55038,0.659911 -0.48681,0.353469 -0.43927,-0.02946 -0.52145,-0.306442 -0.5628,-0.408247 -1.1462,-0.937414 -1.14677,-1.089862 -1.14833,-1.250059 -2.31058,-2.839635 a 0.23551157,0.23549937 0 0 0 -0.008,-0.0078 l -1.15814,-1.291401 a 0.23551157,0.23549937 0 0 0 -0.0294,-0.02739 l -0.57775,-0.456822 a 0.23551157,0.23549937 0 0 0 -0.0646,-0.03514 l -0.58036,-0.212908 a 0.23551157,0.23549937 0 0 0 -0.14831,-0.0041 l -0.57986,0.176218 a 0.23551157,0.23549937 0 0 0 -0.11937,0.08165 l -0.57829,0.758097 a 0.23551157,0.23549937 0 0 0 -0.031,0.05478 l -1.15041,2.874775 -0.56846,0.908477 a 0.23551157,0.23549937 0 0 0 -0.0155,0.03101 l -1.15038,2.621041 -1.14262,1.755974 -0.54879,0.736393 -0.48269,0.293007 -0.49199,0.0057 -1.13696,-0.210841 a 0.23551157,0.23549937 0 0 0 -0.0491,-0.0041 l -0.57778,0.01602 a 0.23551157,0.23549937 0 0 0 -0.061,0.0098 l -1.15813,0.339516 a 0.23551157,0.23549937 0 0 0 -0.0155,0.0062 l -1.15816,0.429433 a 0.23551157,0.23549937 0 0 0 -0.047,0.02377 l -0.57981,0.382408 a 0.23551157,0.23549937 0 0 0 -0.0372,0.03152 l -0.56637,0.568444 -0.51005,0.384474 -0.492,0.02945 -1.12714,-0.07596 -4.61545,-0.982891 a 0.23551157,0.23549937 0 0 0 -0.014,-0.0036 l -1.15812,-0.177768 a 0.23551157,0.23549937 0 0 0 -0.0274,-0.0021 l -0.57781,-0.01964 a 0.23551157,0.23549937 0 0 0 -0.0336,0 l -0.57984,0.06459 a 0.23551157,0.23549937 0 0 0 -0.0315,0.0057 l -0.56798,0.141077 -0.54521,0.0801 -1.13697,-0.04703 a 0.23551157,0.23549937 0 0 0 -0.0367,0.0021 l -1.14259,0.136427 -0.54105,-0.0078 -2.8734,-0.578262 a 0.23551157,0.23549937 0 0 0 -0.0217,-0.0036 l -1.71682,-0.195338 -1.12865,-0.332281 -1.72086,-0.642341 -1.72302,-0.794788 -1.14265,-0.627355 -1.72248,-1.105365 -2.88879,-2.197292 a 0.23551157,0.23549937 0 0 0 -0.004,-0.0021 l -1.7365,-1.263494 a 0.23551157,0.23549937 0 0 0 -0.0253,-0.0155 l -0.57831,-0.318328 a 0.23551157,0.23549937 0 0 0 -0.0486,-0.01964 l -0.57829,-0.167949 a 0.23551157,0.23549937 0 0 0 -0.0527,-0.0078 l -0.54673,-0.03152 -1.12913,-0.380857 a 0.23551157,0.23549937 0 0 0 -0.0388,-0.0098 l -1.1271,-0.171567 -0.51164,-0.232545 -0.53955,-0.515734 -0.56437,-0.699186 -2.31268,-3.271651 a 0.23551157,0.23549937 0 0 0 -0.004,-0.0036 l -1.15807,-1.548751 a 0.23551157,0.23549937 0 0 0 -0.0176,-0.02377 l -0.57981,-0.601517 a 0.23551157,0.23549937 0 0 0 -0.0217,-0.01912 l -0.56638,-0.463023 -0.553,-0.568444 -0.55658,-0.927597 -0.57213,-1.232489 -1.73649,-4.095895 a 0.23551157,0.23549937 0 0 0 -0.002,-0.0021 l -1.15653,-2.624659 a 0.23551157,0.23549937 0 0 0 -0.008,-0.01602 l -0.57825,-1.095547 a 0.23551157,0.23549937 0 0 0 -0.0176,-0.02739 l -0.5798,-0.800472 a 0.23551157,0.23549937 0 0 0 -0.0744,-0.06873 l -0.58033,-0.328146 a 0.23551157,0.23549937 0 0 0 -0.21446,-0.0078 l -0.57832,0.267685 a 0.23551157,0.23549937 0 0 0 -0.0724,0.05271 l -0.57831,0.611335 a 0.23551157,0.23549937 0 0 0 -0.0233,0.02739 l -0.57989,0.841813 a 0.23551157,0.23549937 0 0 0 -0.014,0.02325 l -0.55298,1.039219 -0.32611,0.23823 -0.43362,-0.744145 -0.57205,-1.669674 -1.15653,-3.754312 -1.73634,-5.759367 a 0.23551157,0.23549937 0 0 0 -0.004,-0.0098 l -0.57832,-1.66244 a 0.23551157,0.23549937 0 0 0 -0.004,-0.01137 l -0.57987,-1.408189 a 0.23551157,0.23549937 0 0 0 -0.0196,-0.03928 l -0.5804,-0.890389 a 0.23551157,0.23549937 0 0 0 -0.17934,-0.107488 l -0.57831,-0.04289 a 0.23551157,0.23549937 0 0 0 -0.23052,0.130743 l -0.57827,1.179778 a 0.23551157,0.23549937 0 0 0 -0.0176,0.04858 l -1.73841,7.40062 a 0.23551157,0.23549937 0 0 0 -0.002,0.01344 l -1.156,6.640456 -0.5762,2.605538 -0.56645,1.81282 -0.5468,0.853181 -0.46723,0.433568 -0.4238,-0.08372 -0.54679,-0.312644 a 0.23551157,0.23549937 0 0 0 -0.13849,-0.02946 l -0.58034,0.05478 a 0.23551157,0.23549937 0 0 0 -0.13694,0.06046 l -0.57776,0.533303 a 0.23551157,0.23549937 0 0 0 -0.0315,0.03359 l -0.57773,0.788586 a 0.23551157,0.23549937 0 0 0 -0.0103,0.01602 l -0.56637,0.913643 -0.41186,0.4222 -0.37725,-0.304893 -1.71117,-2.907848 -1.14841,-2.50787 -1.15239,-3.046858 -0.5762,-1.840208 -1.156,-4.19718 -1.15654,-4.759942 -1.15611,-5.302545 -1.7386,-8.664115 a 0.23551157,0.23549937 0 0 0 0,-5.17e-4 0.23551157,0.23549937 0 0 0 0,-5.16e-4 0.23551157,0.23549937 0 0 0 0,-5.17e-4 0.23551157,0.23549937 0 0 0 0,-5.17e-4 l -1.15809,-5.593486 a 0.23551157,0.23549937 0 0 0 -0.002,-0.0078 l -0.57825,-2.37506 a 0.23551157,0.23549937 0 0 0 -0.004,-0.0155 l -0.57981,-1.822637 a 0.23551157,0.23549937 0 0 0 -0.0119,-0.02894 l -1.15239,-2.453093 -0.57,-1.549268 -1.15465,-4.9315073 a 0.23551157,0.23549937 0 0 0 -0.004,-0.013436 l -0.57992,-1.9590604 a 0.23551157,0.23549937 0 0 0 -0.002,-0.00775 l -0.57619,-1.7265184 -0.57414,-2.6391289 -0.57619,-3.77498274 -1.16014,-7.52774436 a 0.23551157,0.23549937 0 0 0 -0.002,-0.011369 l -0.57826,-2.8106959 a 0.23551157,0.23549937 0 0 0 -0.0119,-0.03927 l -0.57982,-1.443329 a 0.23551157,0.23549937 0 0 0 -0.16175,-0.140045 z" />
    </g>
    <g
       id="g200">
      <path
         id="path1025-8-9-4-2-7-9-0-1-1-9"
         style="color:#000000;font-style:normal;font-variant:normal;font-weight:normal;font-stretch:normal;font-size:50.8px;line-height:1.25;font-family:sans-serif;font-variant-ligatures:normal;font-variant-position:normal;font-variant-caps:normal;font-variant-numeric:normal;font-variant-alternates:normal;font-variant-east-asian:normal;font-feature-settings:normal;font-variation-settings:normal;text-indent:0;text-align:end;text-decoration:none;text-decoration-line:none;text-decoration-style:solid;text-decoration-color:#000000;letter-spacing:normal;word-spacing:normal;text-transform:none;writing-mode:lr-tb;direction:ltr;text-orientation:mixed;dominant-baseline:auto;baseline-shift:baseline;text-anchor:end;white-space:normal;shape-padding:0;shape-margin:0;inline-size:0;clip-rule:nonzero;display:inline;overflow:visible;visibility:visible;isolation:auto;mix-blend-mode:normal;color-interpolation:sRGB;color-interpolation-filters:linearRGB;solid-color:#000000;solid-opacity:1;vector-effect:none;fill:#00a3a6;fill-opacity:1;fill-rule:nonzero;stroke:none;stroke-width:0.150414;stroke-linecap:round;stroke-linejoin:miter;stroke-miterlimit:4;stroke-dasharray:none;stroke-dashoffset:0;stroke-opacity:1;color-rendering:auto;image-rendering:auto;shape-rendering:auto;text-rendering:auto;enable-background:accumulate;stop-color:#000000"
         d="m 26.109345,-18.855283 a 6.2864949,6.2864949 0 0 0 -6.286853,6.286887 v 55.193635 a 6.2864949,6.2864949 0 0 0 6.286853,6.286852 6.2864949,6.2864949 0 0 0 6.285724,-6.286852 v -55.193635 a 6.2864949,6.2864949 0 0 0 -6.285724,-6.286887 z m -20.1808991,0 c -10.1129039,0 -18.2049559,3.334032 -22.2428849,10.022804 -4.03793,6.688808 -4.238167,14.5299639 -4.238167,23.868097 0,9.338063 0.200237,17.17936 4.238167,23.868098 4.037929,6.688701 12.129981,10.02164 22.2428849,10.02171 10.1129041,0 18.2049561,-3.333009 22.2428851,-10.02171 4.03793,-6.688738 4.239225,-14.530035 4.239225,-23.868098 0,-9.3381331 -0.201366,-17.179289 -4.239225,-23.868097 C 24.133402,-15.521251 16.04135,-18.855283 5.9284459,-18.855283 Z m 0,12.572611 c 7.9225771,0 9.9288241,1.378973 11.4795301,3.947689 1.55067,2.5687869 2.42891,8.5303432 2.42891,17.370601 0,8.840223 -0.878276,14.800862 -2.42891,17.369508 -1.550706,2.568645 -3.556882,3.947724 -11.4795301,3.947724 -7.9226479,0 -9.9277659,-1.379079 -11.4784359,-3.947724 -1.550635,-2.568681 -2.430004,-8.529285 -2.430004,-17.369508 0,-8.8402578 0.879334,-14.8018141 2.430004,-17.370601 1.55067,-2.568716 3.555859,-3.947689 11.4784359,-3.947689 z"
         inkscape:export-xdpi="136.84"
         inkscape:export-ydpi="136.84" />
      <path
         style="color:#000000;font-style:normal;font-variant:normal;font-weight:normal;font-stretch:normal;font-size:50.8px;line-height:1.25;font-family:sans-serif;font-variant-ligatures:normal;font-variant-position:normal;font-variant-caps:normal;font-variant-numeric:normal;font-variant-alternates:normal;font-variant-east-asian:normal;font-feature-settings:normal;font-variation-settings:normal;text-indent:0;text-align:end;text-decoration:none;text-decoration-line:none;text-decoration-style:solid;text-decoration-color:#000000;letter-spacing:normal;word-spacing:normal;text-transform:none;writing-mode:lr-tb;direction:ltr;text-orientation:mixed;dominant-baseline:auto;baseline-shift:baseline;text-anchor:end;white-space:normal;shape-padding:0;shape-margin:0;inline-size:0;clip-rule:nonzero;display:inline;overflow:visible;visibility:visible;isolation:auto;mix-blend-mode:normal;color-interpolation:sRGB;color-interpolation-filters:linearRGB;solid-color:#000000;solid-opacity:1;vector-effect:none;fill:#00a3a6;fill-opacity:1;fill-rule:nonzero;stroke:none;stroke-width:0.150414;stroke-linecap:round;stroke-linejoin:miter;stroke-miterlimit:4;stroke-dasharray:none;stroke-dashoffset:0;stroke-opacity:1;color-rendering:auto;image-rendering:auto;shape-rendering:auto;text-rendering:auto;enable-background:accumulate;stop-color:#000000"
         d="m 48.564991,-36.277954 a 6.2864949,6.2864949 0 0 0 -6.286853,6.286817 v 60.987198 c 0,7.220726 3.795289,13.062761 8.373216,15.519223 4.577926,2.456392 9.046633,2.410072 11.774416,2.410072 3.633717,0 7.285038,-0.812024 10.460708,-1.547566 3.175635,-0.735541 5.711507,-1.474434 5.711507,-1.474434 a 6.2864949,6.2864949 0 0 0 4.279159,-7.793461 6.2864949,6.2864949 0 0 0 -7.793425,-4.279159 c 0,0 -2.225428,0.647629 -5.034174,1.298152 -2.808711,0.650592 -6.364428,1.223927 -7.623775,1.223927 -2.262116,0 -4.723976,-0.323885 -5.829052,-0.916799 -1.105006,-0.592984 -1.745968,-0.572065 -1.745968,-4.439955 v -60.987198 a 6.2864949,6.2864949 0 0 0 -6.285759,-6.286817 z"
         id="path980-0-0-7-6-9-37-0-3-3-1-9"
         inkscape:export-xdpi="136.84"
         inkscape:export-ydpi="136.84" />
      <g
         id="g2830-1-4-9-2-9-2-6-9"
         transform="matrix(7.6666519,0,0,7.6666519,-1211.6174,-2243.9189)"
         style="font-size:50.8px;line-height:1.25;font-family:sans-serif;text-align:end;text-anchor:end;fill:#00a3a6;fill-opacity:1;stroke:#000000;stroke-width:0;stroke-miterlimit:4;stroke-dasharray:none;stroke-opacity:1"
         inkscape:export-xdpi="136.84"
         inkscape:export-ydpi="136.84">
        <g
           id="path980-0-0-7-4-7-3-7-4-3-2-9-6-1-6"
           style="opacity:1;fill:#00a3a6;fill-opacity:1">
          <path
             style="color:#000000;font-style:normal;font-variant:normal;font-weight:normal;font-stretch:normal;font-size:medium;line-height:normal;font-family:sans-serif;font-variant-ligatures:normal;font-variant-position:normal;font-variant-caps:normal;font-variant-numeric:normal;font-variant-alternates:normal;font-variant-east-asian:normal;font-feature-settings:normal;font-variation-settings:normal;text-indent:0;text-align:start;text-decoration:none;text-decoration-line:none;text-decoration-style:solid;text-decoration-color:#000000;letter-spacing:normal;word-spacing:normal;text-transform:none;writing-mode:lr-tb;direction:ltr;text-orientation:mixed;dominant-baseline:auto;baseline-shift:baseline;text-anchor:start;white-space:normal;shape-padding:0;shape-margin:0;inline-size:0;clip-rule:nonzero;display:inline;overflow:visible;visibility:visible;isolation:auto;mix-blend-mode:normal;color-interpolation:sRGB;color-interpolation-filters:linearRGB;solid-color:#000000;solid-opacity:1;vector-effect:none;fill:#00a3a6;fill-opacity:1;fill-rule:nonzero;stroke:none;stroke-width:0;stroke-linecap:round;stroke-linejoin:miter;stroke-miterlimit:4;stroke-dasharray:none;stroke-dashoffset:0;stroke-opacity:1;color-rendering:auto;image-rendering:auto;shape-rendering:auto;text-rendering:auto;enable-background:accumulate;stop-color:#000000;stop-opacity:1"
             d="m 178.33594,291.10352 c -0.45315,-0.008 -0.82668,0.35349 -0.83399,0.80664 0,0 -0.0184,1.10487 0.0371,2.38086 0.0555,1.27598 0.10733,2.63403 0.53906,3.60546 0.51923,1.1683 1.70354,1.56734 2.6211,1.68555 0.55206,0.0713 1.06053,0.0625 1.4043,0.0625 0.14274,0 0.46289,-10e-6 0.46289,-10e-6 v 0.23488 c 0,0.20132 -0.0352,0.23687 -0.0723,0.27929 -0.0371,0.0424 -0.11998,0.10096 -0.27539,0.14844 -0.31082,0.095 -0.80994,0.0918 -1.17969,0.0918 -0.11587,0 -0.76324,-0.10204 -1.27344,-0.2168 -0.51019,-0.11476 -0.94531,-0.23047 -0.94531,-0.23047 -0.43795,-0.11546 -0.88656,0.14602 -1.00195,0.58399 -0.11558,0.43735 0.14485,0.88569 0.58203,1.00195 0,0 0.46113,0.12161 1.00586,0.24414 0.54473,0.12253 1.11046,0.25781 1.63281,0.25781 0.28112,0 0.95824,0.0498 1.65821,-0.16406 0.34998,-0.10693 0.72998,-0.29215 1.03125,-0.63672 0.30127,-0.34457 0.47851,-0.83752 0.47851,-1.35937 v -7.95508 c -3.4e-4,-0.12757 -0.0304,-0.2533 -0.0879,-0.36719 l -0.002,-0.002 c -0.0683,-0.13599 -0.17315,-0.25028 -0.30274,-0.33008 -10e-4,-6.5e-4 -0.003,-0.001 -0.004,-0.002 -0.0434,-0.0263 -0.0892,-0.0486 -0.13672,-0.0664 -0.0224,-0.009 -0.0452,-0.0166 -0.0684,-0.0234 h -0.004 c -0.0232,-0.007 -0.0466,-0.0128 -0.0703,-0.0176 h -0.004 c -0.0233,-0.004 -0.0467,-0.008 -0.0703,-0.01 -0.002,-1e-5 -0.004,-1e-5 -0.006,0 -0.0228,-0.002 -0.0456,-0.002 -0.0684,-0.002 -0.0491,1.6e-4 -0.0982,0.005 -0.14648,0.0137 -0.0446,0.009 -0.0883,0.0211 -0.13086,0.0371 -0.005,10e-4 -0.0104,0.003 -0.0156,0.004 -0.001,6.5e-4 -0.003,10e-4 -0.004,0.002 -0.0462,0.0181 -0.0906,0.0403 -0.13282,0.0664 -0.001,6.5e-4 -0.003,10e-4 -0.004,0.002 -0.0201,0.0128 -0.0397,0.0265 -0.0586,0.041 -0.001,6.5e-4 -0.003,10e-4 -0.004,0.002 -0.0189,0.0148 -0.0372,0.0305 -0.0547,0.0469 -0.17031,0.15525 -0.26743,0.37501 -0.26758,0.60547 0,0 0.007,4.60418 0,5.91992 v 0.002 0.002 c 0,0.11344 -2e-5,0.15628 -2e-5,0.15628 0,0 -0.0903,-3e-5 -0.46091,-3e-5 -0.36235,0 -0.78964,0.003 -1.19336,-0.0488 -0.67169,-0.0865 -1.13068,-0.26715 -1.33399,-0.72461 -0.14679,-0.33029 -0.34543,-1.7908 -0.39844,-3.00977 -0.053,-1.21896 -0.0371,-2.2832 -0.0371,-2.2832 0.008,-0.45239 -0.3523,-0.8256 -0.80468,-0.83398 z"
             id="path4739-8-7-9-9-9-1" />
          <path
             style="color:#000000;font-style:normal;font-variant:normal;font-weight:normal;font-stretch:normal;font-size:medium;line-height:normal;font-family:sans-serif;font-variant-ligatures:normal;font-variant-position:normal;font-variant-caps:normal;font-variant-numeric:normal;font-variant-alternates:normal;font-variant-east-asian:normal;font-feature-settings:normal;font-variation-settings:normal;text-indent:0;text-align:start;text-decoration:none;text-decoration-line:none;text-decoration-style:solid;text-decoration-color:#000000;letter-spacing:normal;word-spacing:normal;text-transform:none;writing-mode:lr-tb;direction:ltr;text-orientation:mixed;dominant-baseline:auto;baseline-shift:baseline;text-anchor:start;white-space:normal;shape-padding:0;shape-margin:0;inline-size:0;clip-rule:nonzero;display:inline;overflow:visible;visibility:visible;isolation:auto;mix-blend-mode:normal;color-interpolation:sRGB;color-interpolation-filters:linearRGB;solid-color:#000000;solid-opacity:1;vector-effect:none;fill:#00a3a6;fill-opacity:1;fill-rule:nonzero;stroke:none;stroke-linecap:round;stroke-linejoin:miter;stroke-miterlimit:4;stroke-dasharray:none;stroke-dashoffset:0;stroke-opacity:1;color-rendering:auto;image-rendering:auto;shape-rendering:auto;text-rendering:auto;enable-background:accumulate;stop-color:#000000;stop-opacity:1"
             d="m 178.33594,291.08789 c -0.003,-6e-5 -0.003,0.006 -0.006,0.006 l -0.002,-0.004 -0.0488,0.0293 h 0.0234 c -0.43759,0.0197 -0.80924,0.34702 -0.8164,0.79102 0,0 -0.0184,1.10431 0.0371,2.38086 0.0555,1.27592 0.10723,2.63527 0.54101,3.61132 0.52235,1.17532 1.71246,1.57675 2.63282,1.69532 0.55346,0.0715 1.06275,0.0625 1.40625,0.0625 0.13792,0 0.42693,0 0.44726,0 v 0.21875 c 0,0.0997 -0.009,0.15858 -0.0215,0.19531 -0.0125,0.0367 -0.0281,0.0528 -0.0469,0.0742 -0.0341,0.039 -0.11416,0.0957 -0.26758,0.14258 -0.30614,0.0936 -0.80594,0.0918 -1.17578,0.0918 -0.0266,0 -0.0891,-0.006 -0.17383,-0.0176 -0.0847,-0.0113 -0.19258,-0.027 -0.3125,-0.0469 -0.23983,-0.0398 -0.52852,-0.0951 -0.7832,-0.15234 -0.50984,-0.11469 -0.94531,-0.23047 -0.94531,-0.23047 -0.44631,-0.11767 -0.90389,0.14937 -1.02149,0.5957 -0.11778,0.4457 0.14823,0.903 0.59375,1.02148 0,0 0.46081,0.12154 1.00586,0.24415 0.54459,0.12249 1.11161,0.25781 1.63672,0.25781 0.27923,0 0.95872,0.0508 1.66211,-0.16407 0.35182,-0.10749 0.73528,-0.29317 1.03906,-0.64062 0.3042,-0.34792 0.48243,-0.84562 0.48243,-1.37109 v -7.95508 c -3.5e-4,-0.13006 -0.0312,-0.25693 -0.0898,-0.37305 v -0.004 l -0.004,-0.004 0.002,0.006 c -0.0696,-0.13865 -0.17648,-0.25654 -0.30859,-0.33789 10e-5,1e-4 -0.001,4.5e-4 -0.002,0 v -0.002 c -6e-4,-4.5e-4 -0.002,-7e-5 -0.002,0 -0.0442,-0.0268 -0.0902,-0.0482 -0.13867,-0.0664 -0.023,-0.009 -0.0467,-0.0185 -0.0703,-0.0254 h -0.002 -0.002 -0.004 c -0.0225,-0.007 -0.0454,-0.0129 -0.0684,-0.0176 h -0.004 -0.002 c -0.0227,-0.004 -0.0465,-0.008 -0.0703,-0.01 -0.002,-10e-6 -0.004,-10e-6 -0.006,0 -0.0237,-0.002 -0.0456,-0.002 -0.0684,-0.002 -0.0501,1.6e-4 -0.10126,0.005 -0.15039,0.0137 -0.0453,0.009 -0.0894,0.0208 -0.13281,0.0371 -0.006,10e-4 -0.0107,0.003 -0.0137,0.004 h -0.002 l -0.004,0.002 c -7e-4,3.2e-4 -0.002,0.002 -0.002,0.002 -3.4e-4,1.9e-4 -0.004,0.002 -0.004,0.002 -0.0445,0.0178 -0.0881,0.0393 -0.12891,0.0645 0,0 -0.002,0 -0.002,0 -6.9e-4,3.1e-4 -0.002,0.002 -0.002,0.002 -3.5e-4,1.9e-4 -0.004,0.002 -0.004,0.002 -0.0189,0.0121 -0.0368,0.0254 -0.0547,0.0391 -7.2e-4,5.5e-4 -0.001,0.001 -0.002,0.002 -4.4e-4,2.1e-4 -0.002,-7e-5 -0.002,0 -3.5e-4,1.9e-4 -0.004,0.002 -0.004,0.002 -0.0189,0.0148 -0.0372,0.0305 -0.0547,0.0469 -0.17362,0.15827 -0.27328,0.38224 -0.27343,0.61719 0,0 0.007,4.60444 0,5.91992 v 0.002 0.002 c 0,0.10209 0,0.13266 0,0.14062 -0.007,0 -0.0869,0 -0.44336,0 -0.36244,0 -0.78918,0.003 -1.19141,-0.0488 -0.3349,-0.0431 -0.61634,-0.10884 -0.83789,-0.2207 -0.22155,-0.11186 -0.38422,-0.26878 -0.48438,-0.49414 -0.0355,-0.0798 -0.0752,-0.23361 -0.11523,-0.43555 -0.04,-0.20194 -0.0799,-0.45327 -0.11719,-0.73242 -0.0746,-0.55829 -0.13758,-1.22704 -0.16406,-1.83594 -0.053,-1.21841 -0.0371,-2.2832 -0.0371,-2.2832 0.008,-0.44918 -0.35454,-0.80134 -0.79883,-0.82812 l 0.0352,-0.0215 z m 5.04687,0.0312 c 0.0228,0 0.0445,3e-5 0.0664,0.002 h 0.002 c 0.002,-10e-6 0.004,-10e-6 0.006,0 0.0221,0.002 0.0438,0.006 0.0664,0.01 h 0.002 0.006 c 0.022,0.005 0.043,0.0111 0.0644,0.0176 h 0.004 0.002 c 0.0228,0.007 0.0446,0.0147 0.0664,0.0234 0.0466,0.0174 0.0922,0.0387 0.13476,0.0645 8.1e-4,5.9e-4 0.002,0.002 0.002,0.002 0,0 0.002,0 0.002,0 0,0 0,0.002 0,0.002 0.12649,0.0782 0.23013,0.18937 0.29688,0.32227 v 0.002 l 0.004,0.004 c 0.0551,0.11064 0.0837,0.23182 0.084,0.35547 v 7.95508 c 0,0.51822 -0.17627,1.00839 -0.47461,1.34961 -0.29875,0.34169 -0.6753,0.52449 -1.02344,0.63086 -0.69655,0.21281 -1.37129,0.16406 -1.6543,0.16406 -0.51959,0 -1.08403,-0.13525 -1.6289,-0.25782 -0.54441,-0.12245 -1.00586,-0.24414 -1.00586,-0.24414 -0.42883,-0.11404 -0.68369,-0.55342 -0.57032,-0.98242 0.11319,-0.42961 0.55284,-0.68552 0.98243,-0.57226 0,0 0.43477,0.11563 0.94531,0.23047 0.25552,0.0575 0.54479,0.11244 0.78516,0.15234 0.12018,0.0199 0.22925,0.0355 0.31445,0.0469 0.0852,0.0114 0.14642,0.0176 0.17773,0.0176 0.36966,0 0.8681,0.005 1.1836,-0.0918 0.1574,-0.0481 0.24313,-0.10656 0.2832,-0.15235 0.0184,-0.021 0.0384,-0.044 0.0527,-0.0859 0.0143,-0.042 0.0234,-0.10348 0.0234,-0.20507 v -0.25 h -0.0156 c 0,0 -0.32016,0 -0.46289,0 -0.34405,0 -0.85169,0.009 -1.40235,-0.0625 -0.91476,-0.11785 -2.09326,-0.5145 -2.60937,-1.67579 -0.42968,-0.9668 -0.48161,-2.32356 -0.53711,-3.5996 -0.0555,-1.27544 -0.0371,-2.38086 -0.0371,-2.38086 0.007,-0.44342 0.37337,-0.79514 0.8164,-0.78907 0.44297,0.009 0.7969,0.37322 0.78907,0.81641 0,0 -0.0159,1.06565 0.0371,2.28516 0.0265,0.61007 0.0894,1.27861 0.16406,1.83789 0.0374,0.27964 0.0789,0.53148 0.11914,0.73437 0.0402,0.2029 0.0793,0.35801 0.11719,0.44336 0.10315,0.2321 0.27135,0.39336 0.49804,0.50781 0.2267,0.11446 0.51283,0.18124 0.84961,0.22461 0.40521,0.052 0.83305,0.0488 1.19532,0.0488 0.3706,0 0.46093,0 0.46093,0 h 0.0156 v -0.0156 c 0,0 0,-0.0428 0,-0.15625 v -0.002 -0.002 c 0.007,-1.316 0,-5.91992 0,-5.91992 1.5e-4,-0.22597 0.0947,-0.44153 0.26172,-0.59375 0.0168,-0.0157 0.0346,-0.0307 0.0527,-0.0449 3e-4,-1.3e-4 0.001,3.2e-4 0.002,0 v -0.002 c 5.9e-4,-3.1e-4 0.002,7e-5 0.002,0 h 0.002 c 0.0185,-0.0142 0.0369,-0.0285 0.0566,-0.041 3e-4,-1.3e-4 0.001,3.2e-4 0.002,0 v -0.002 c 5.9e-4,-3e-4 0.002,7e-5 0.002,0 0.0414,-0.0256 0.0856,-0.0467 0.13086,-0.0645 v -0.002 c 8.3e-4,-1.6e-4 0.001,1.7e-4 0.002,0 9.8e-4,-2.2e-4 0.001,-0.002 0.002,-0.002 0.005,-0.001 0.009,-0.001 0.0117,-0.002 h 0.002 0.002 c 0.0417,-0.0157 0.0831,-0.0283 0.12695,-0.0371 0.0474,-0.009 0.0965,-0.0135 0.14453,-0.0137 z"
             id="path4741-0-3-1-0-3-7" />
        </g>
      </g>
      <g
         id="g2680-8-0-4-2-7-7-0-4-3"
         transform="matrix(7.6666519,0,0,7.6666519,-1232.8631,-2073.9916)"
         style="font-size:50.8px;line-height:1.25;font-family:sans-serif;text-align:end;text-anchor:end;fill:#00a3a6;fill-opacity:1;stroke:#000000;stroke-width:0;stroke-miterlimit:4;stroke-dasharray:none;stroke-opacity:1"
         inkscape:export-xdpi="136.84"
         inkscape:export-ydpi="136.84">
        <g
           id="path841-5-8-7-3-5-4-3-4-9-2-3-7-9"
           style="opacity:1;fill:#00a3a6;fill-opacity:1">
          <path
             style="color:#000000;font-style:normal;font-variant:normal;font-weight:normal;font-stretch:normal;font-size:medium;line-height:normal;font-family:sans-serif;font-variant-ligatures:normal;font-variant-position:normal;font-variant-caps:normal;font-variant-numeric:normal;font-variant-alternates:normal;font-variant-east-asian:normal;font-feature-settings:normal;font-variation-settings:normal;text-indent:0;text-align:start;text-decoration:none;text-decoration-line:none;text-decoration-style:solid;text-decoration-color:#000000;letter-spacing:normal;word-spacing:normal;text-transform:none;writing-mode:lr-tb;direction:ltr;text-orientation:mixed;dominant-baseline:auto;baseline-shift:baseline;text-anchor:start;white-space:normal;shape-padding:0;shape-margin:0;inline-size:0;clip-rule:nonzero;display:inline;overflow:visible;visibility:visible;isolation:auto;mix-blend-mode:normal;color-interpolation:sRGB;color-interpolation-filters:linearRGB;solid-color:#000000;solid-opacity:1;vector-effect:none;fill:#00a3a6;fill-opacity:1;fill-rule:nonzero;stroke:none;stroke-width:0;stroke-linecap:round;stroke-linejoin:round;stroke-miterlimit:4;stroke-dasharray:none;stroke-dashoffset:0;stroke-opacity:1;color-rendering:auto;image-rendering:auto;shape-rendering:auto;text-rendering:auto;enable-background:accumulate;stop-color:#000000;stop-opacity:1"
             d="m 173.17773,265.77344 c -0.45312,-1.8e-4 -0.82049,0.36719 -0.82031,0.82031 v 9.47266 c 7.7e-4,0.20673 0.0796,0.40555 0.2207,0.55664 0.0505,0.0551 0.10835,0.10311 0.17188,0.14257 0.001,6.6e-4 0.003,10e-4 0.004,0.002 0.0434,0.0263 0.0892,0.0485 0.13671,0.0664 0.0224,0.009 0.0452,0.0166 0.0684,0.0234 h 0.004 c 0.0232,0.007 0.0466,0.0128 0.0703,0.0176 h 0.004 c 0.0239,0.004 0.048,0.008 0.0723,0.01 0.0241,0.002 0.0482,0.002 0.0723,0.002 0.0932,2e-5 0.18562,-0.0158 0.27344,-0.0469 0.007,-0.002 0.0144,-0.005 0.0215,-0.008 0.001,-6.5e-4 0.003,-10e-4 0.004,-0.002 0.0219,-0.009 0.0434,-0.0186 0.0644,-0.0293 10e-4,-6.5e-4 0.003,-10e-4 0.004,-0.002 0.0213,-0.0108 0.0422,-0.0225 0.0625,-0.0352 0.001,-6.5e-4 0.003,-10e-4 0.004,-0.002 0.0201,-0.0128 0.0397,-0.0265 0.0586,-0.041 0.001,-6.5e-4 0.003,-10e-4 0.004,-0.002 0.0189,-0.0148 0.0372,-0.0304 0.0547,-0.0469 0.001,-6.5e-4 0.003,-10e-4 0.004,-0.002 0.0177,-0.0168 0.0346,-0.0344 0.0508,-0.0527 0.0683,-0.0754 0.12191,-0.16281 0.1582,-0.25781 0.0366,-0.0934 0.0558,-0.19267 0.0566,-0.29297 0,0 -0.007,-4.60419 0,-5.91993 v -0.004 c 0,-0.11339 2e-5,-0.15627 2e-5,-0.15627 0,0 0.0884,3e-5 0.45895,3e-5 0.48224,0 1.08939,4.1e-4 1.58008,0.11914 0.49068,0.11872 0.78447,0.288 0.94726,0.6543 0.14679,0.33027 0.34739,1.79079 0.40039,3.00976 0.053,1.21897 0.0352,2.2832 0.0352,2.2832 -0.008,0.45315 0.35349,0.82668 0.80664,0.83399 0.45239,0.007 0.82472,-0.35426 0.83203,-0.80664 0,0 0.0203,-1.10488 -0.0352,-2.38086 -0.0555,-1.27599 -0.10926,-2.63403 -0.54101,-3.60547 -0.41575,-0.93546 -1.29085,-1.39627 -2.0586,-1.58203 -0.76774,-0.18576 -1.50891,-0.16602 -1.96679,-0.16602 -0.14275,0 -0.46289,2e-5 -0.46289,2e-5 v -1.75197 c 1.8e-4,-0.45312 -0.3672,-0.8205 -0.82032,-0.82031 z"
             id="path4745-8-0-3-9-9-8" />
          <path
             style="color:#000000;font-style:normal;font-variant:normal;font-weight:normal;font-stretch:normal;font-size:medium;line-height:normal;font-family:sans-serif;font-variant-ligatures:normal;font-variant-position:normal;font-variant-caps:normal;font-variant-numeric:normal;font-variant-alternates:normal;font-variant-east-asian:normal;font-feature-settings:normal;font-variation-settings:normal;text-indent:0;text-align:start;text-decoration:none;text-decoration-line:none;text-decoration-style:solid;text-decoration-color:#000000;letter-spacing:normal;word-spacing:normal;text-transform:none;writing-mode:lr-tb;direction:ltr;text-orientation:mixed;dominant-baseline:auto;baseline-shift:baseline;text-anchor:start;white-space:normal;shape-padding:0;shape-margin:0;inline-size:0;clip-rule:nonzero;display:inline;overflow:visible;visibility:visible;isolation:auto;mix-blend-mode:normal;color-interpolation:sRGB;color-interpolation-filters:linearRGB;solid-color:#000000;solid-opacity:1;vector-effect:none;fill:#00a3a6;fill-opacity:1;fill-rule:nonzero;stroke:none;stroke-linecap:round;stroke-linejoin:round;stroke-miterlimit:4;stroke-dasharray:none;stroke-dashoffset:0;stroke-opacity:1;color-rendering:auto;image-rendering:auto;shape-rendering:auto;text-rendering:auto;enable-background:accumulate;stop-color:#000000;stop-opacity:1"
             d="m 173.17773,265.75781 c -0.46177,-1.8e-4 -0.83612,0.37417 -0.83593,0.83594 v 9.47266 c 7.8e-4,0.21076 0.0808,0.41432 0.22461,0.56836 0.0511,0.0558 0.10956,0.10445 0.17382,0.14453 2.5e-4,1.6e-4 0.003,0.002 0.004,0.002 a 0.0160016,0.0160016 0 0 0 0.002,0 c 0.0443,0.0268 0.0903,0.0501 0.13868,0.0684 0.023,0.009 0.0467,0.0165 0.0703,0.0234 a 0.0160016,0.0160016 0 0 0 0.004,0 c 0.0237,0.007 0.0462,0.0127 0.0703,0.0176 a 0.0160016,0.0160016 0 0 0 0.004,0 h 0.004 c 0.0233,0.004 0.0458,0.008 0.0703,0.01 0.025,0.002 0.0501,0.002 0.0742,0.002 0.0944,2e-5 0.18835,-0.0156 0.27734,-0.0469 0.008,-0.002 0.0162,-0.005 0.0234,-0.008 a 0.0160016,0.0160016 0 0 0 0.002,-0.002 c 0,0 0.002,0 0.002,0 l 0.004,-0.002 c 0.001,-8.1e-4 0.002,-0.002 0.002,-0.002 0.02,-0.008 0.0411,-0.0174 0.0605,-0.0273 a 0.0160016,0.0160016 0 0 0 0.002,0 c 5.8e-4,-2.6e-4 0.002,9e-5 0.002,0 9e-5,-4e-5 -4.3e-4,-0.002 0,-0.002 l 0.004,-0.002 c 0.0198,-0.0102 0.0395,-0.0213 0.0586,-0.0332 0,0 0.002,0 0.002,0 5.8e-4,-2.6e-4 0.002,10e-5 0.002,0 1.7e-4,-9e-5 8.5e-4,-0.001 0.002,-0.002 l 0.002,-0.002 c 0.0189,-0.0121 0.0368,-0.0254 0.0547,-0.0391 2.5e-4,-10e-5 0.001,2e-4 0.002,0 v -0.002 c 4.4e-4,-2e-4 0.002,8e-5 0.002,0 2e-4,-1.1e-4 6.9e-4,-10e-4 0.002,-0.002 0.0181,-0.0142 0.0358,-0.0291 0.0527,-0.0449 6.3e-4,-2.5e-4 0.004,-0.002 0.004,-0.002 3.4e-4,-1.8e-4 0.004,-0.002 0.004,-0.002 0.0181,-0.0171 0.0362,-0.0361 0.0527,-0.0547 0.0696,-0.0769 0.12316,-0.16486 0.16016,-0.26172 0.0373,-0.0952 0.0578,-0.19657 0.0586,-0.29882 0,0 -0.007,-4.60444 0,-5.91993 v -0.004 c 0,-0.10205 0,-0.13266 0,-0.14063 0.007,10e-6 0.085,0 0.44141,0 0.48223,0 1.0884,10e-4 1.57617,0.11914 0.48872,0.11825 0.77687,0.28309 0.9375,0.64453 0.0355,0.0798 0.075,0.23361 0.11523,0.43555 0.0402,0.20194 0.0816,0.45328 0.11914,0.73242 0.0751,0.55829 0.13759,1.22705 0.16407,1.83594 0.053,1.21841 0.0351,2.2832 0.0351,2.2832 -0.008,0.46181 0.36047,0.84216 0.82227,0.84961 0.46104,0.007 0.84216,-0.36124 0.84961,-0.82226 0,0 0.0204,-1.10431 -0.0352,-2.38086 -0.0555,-1.27595 -0.10917,-2.63528 -0.54297,-3.61133 -0.41834,-0.94129 -1.29938,-1.40527 -2.07031,-1.5918 -0.77028,-0.18637 -1.51328,-0.16601 -1.9707,-0.16601 -0.13733,0 -0.42261,0 -0.44532,0 v -1.73633 c 1.9e-4,-0.46177 -0.37611,-0.83613 -0.83789,-0.83594 z m 0,0.0312 c 0.44447,-1.8e-4 0.80487,0.36022 0.80469,0.80469 v 1.75195 a 0.0160016,0.0160016 0 0 0 0.0156,0.0156 c 0,0 0.32014,0 0.46289,0 0.45834,0 1.19769,-0.0191 1.96289,0.16601 0.76457,0.18499 1.63567,0.64264 2.04883,1.57227 0.4297,0.96683 0.48356,2.32357 0.53906,3.59961 0.0555,1.27541 0.0352,2.38086 0.0352,2.38086 -0.007,0.44374 -0.37072,0.79788 -0.81446,0.79101 -0.4445,-0.007 -0.79886,-0.37387 -0.79101,-0.81836 0,0 0.0179,-1.06367 -0.0352,-2.2832 -0.0265,-0.61008 -0.0908,-1.28056 -0.16602,-1.83984 -0.0376,-0.27964 -0.0788,-0.53149 -0.11914,-0.73438 -0.0404,-0.20289 -0.0793,-0.35607 -0.11718,-0.4414 -0.16495,-0.37116 -0.46635,-0.54487 -0.95899,-0.66407 -0.49361,-0.11943 -1.10173,-0.11914 -1.58398,-0.11914 -0.37055,0 -0.45899,0 -0.45899,0 a 0.0160016,0.0160016 0 0 0 -0.0156,0.0156 c 0,0 0,0.0429 0,0.15625 v 0.004 c -0.007,1.316 0,5.91993 0,5.91993 -7.9e-4,0.0983 -0.0188,0.19552 -0.0547,0.28711 -0.0356,0.0931 -0.0893,0.17802 -0.15625,0.25195 -0.0153,0.0173 -0.0303,0.0349 -0.0469,0.0508 -7.6e-4,3.1e-4 -0.004,0.002 -0.004,0.002 a 0.0160016,0.0160016 0 0 0 -0.002,0.002 c -0.0171,0.0161 -0.0361,0.0304 -0.0547,0.0449 a 0.0160016,0.0160016 0 0 0 0,0.002 c -5.8e-4,3.1e-4 -0.002,-6e-5 -0.002,0 a 0.0160016,0.0160016 0 0 0 -0.002,0 c -0.0185,0.0142 -0.0369,0.0285 -0.0566,0.041 -7.5e-4,3e-4 -0.004,0.002 -0.004,0.002 -0.0199,0.0124 -0.0396,0.0245 -0.0606,0.0352 a 0.0160016,0.0160016 0 0 0 -0.002,0 c -7.6e-4,3e-4 -0.004,0.002 -0.004,0.002 -0.02,0.0101 -0.0415,0.0187 -0.0625,0.0273 a 0.0160016,0.0160016 0 0 0 -0.004,0.002 c -0.007,0.003 -0.0137,0.006 -0.0195,0.008 a 0.0160016,0.0160016 0 0 0 -0.002,0 c -0.0861,0.0305 -0.17619,0.0469 -0.26758,0.0469 -0.0241,0 -0.0471,-2e-5 -0.0703,-0.002 -0.0234,-0.002 -0.0464,-0.006 -0.0703,-0.01 a 0.0160016,0.0160016 0 0 0 -0.004,0 h -0.004 c -0.022,-0.005 -0.0449,-0.0111 -0.0664,-0.0176 a 0.0160016,0.0160016 0 0 0 -0.004,0 c -0.0228,-0.007 -0.0446,-0.0147 -0.0664,-0.0234 -0.0466,-0.0176 -0.0922,-0.0387 -0.13476,-0.0644 -8.1e-4,-5.9e-4 -0.002,-0.002 -0.002,-0.002 0,0 -0.002,0 -0.002,0 -0.0623,-0.0387 -0.11845,-0.0866 -0.16797,-0.14062 -0.13835,-0.14815 -0.21604,-0.34222 -0.21679,-0.54492 v -9.47266 c -1.8e-4,-0.44447 0.36022,-0.80486 0.80468,-0.80469 z"
             id="path4747-3-2-6-5-8-4" />
        </g>
      </g>
      <path
         id="path1025-8-9-7-9-3-5-3-0-0"
         style="color:#000000;font-style:normal;font-variant:normal;font-weight:normal;font-stretch:normal;font-size:50.8px;line-height:1.25;font-family:sans-serif;font-variant-ligatures:normal;font-variant-position:normal;font-variant-caps:normal;font-variant-numeric:normal;font-variant-alternates:normal;font-variant-east-asian:normal;font-feature-settings:normal;font-variation-settings:normal;text-indent:0;text-align:end;text-decoration:none;text-decoration-line:none;text-decoration-style:solid;text-decoration-color:#000000;letter-spacing:normal;word-spacing:normal;text-transform:none;writing-mode:lr-tb;direction:ltr;text-orientation:mixed;dominant-baseline:auto;baseline-shift:baseline;text-anchor:end;white-space:normal;shape-padding:0;shape-margin:0;inline-size:0;clip-rule:nonzero;display:inline;overflow:visible;visibility:visible;isolation:auto;mix-blend-mode:normal;color-interpolation:sRGB;color-interpolation-filters:linearRGB;solid-color:#000000;solid-opacity:1;vector-effect:none;fill:#00a3a6;fill-opacity:1;fill-rule:nonzero;stroke:none;stroke-width:0.150414;stroke-linecap:round;stroke-linejoin:miter;stroke-miterlimit:4;stroke-dasharray:none;stroke-dashoffset:0;stroke-opacity:1;color-rendering:auto;image-rendering:auto;shape-rendering:auto;text-rendering:auto;enable-background:accumulate;stop-color:#000000"
         d="m 257.56324,-36.281588 c -3.69334,-0.111866 -6.74758,3.475073 -6.28689,7.094537 0.0212,24.152084 -0.043,48.306989 0.0321,72.457344 0.25766,4.016198 4.9016,6.829354 8.58093,5.206577 2.90593,-1.064331 4.34696,-4.30717 3.96077,-7.254276 -0.0212,-23.950188 0.043,-47.903199 -0.0321,-71.851624 -0.26374,-3.138523 -3.10416,-5.706745 -6.25478,-5.652558 z m -18.26193,17.411558 c -9.18845,-0.30554 -19.41971,2.49608 -24.80807,10.49648 -5.30074,8.133397 -4.79284,18.3282512 -4.74232,27.630542 0.1827,8.210691 1.59021,17.392721 8.18391,23.043727 7.55167,6.54498 18.43934,7.59975 27.92889,5.861649 5.56958,-1.171928 11.18263,-3.003515 15.88477,-6.279515 3.14914,-2.603182 2.62259,-8.12172 -0.95867,-10.085105 -2.41702,-1.553174 -5.50944,-0.870373 -7.74302,0.676699 -7.99108,3.821465 -18.00306,5.650335 -26.11984,1.189531 -3.8348,-2.86131 -4.01271,-8.198838 -4.46874,-12.567814 -0.24225,-7.000416 -0.64061,-14.2882758 1.66197,-21.0113734 1.50192,-4.5591586 6.8035,-5.6674106 10.98762,-6.2031736 7.14943,-0.700793 14.20565,1.628034 20.45253,4.914653 3.82062,1.4469884 8.35541,-1.741911 8.28781,-5.825949 0.159,-3.102327 -2.30953,-5.597842 -5.04606,-6.642276 -6.03144,-3.075728 -12.72057,-4.959985 -19.50078,-5.198075 z"
         inkscape:export-xdpi="136.84"
         inkscape:export-ydpi="136.84" />
      <path
         style="color:#000000;font-style:normal;font-variant:normal;font-weight:normal;font-stretch:normal;font-size:50.8px;line-height:1.25;font-family:sans-serif;font-variant-ligatures:normal;font-variant-position:normal;font-variant-caps:normal;font-variant-numeric:normal;font-variant-alternates:normal;font-variant-east-asian:normal;font-feature-settings:normal;font-variation-settings:normal;text-indent:0;text-align:end;text-decoration:none;text-decoration-line:none;text-decoration-style:solid;text-decoration-color:#000000;letter-spacing:normal;word-spacing:normal;text-transform:none;writing-mode:lr-tb;direction:ltr;text-orientation:mixed;dominant-baseline:auto;baseline-shift:baseline;text-anchor:end;white-space:normal;shape-padding:0;shape-margin:0;inline-size:0;clip-rule:nonzero;display:inline;overflow:visible;visibility:visible;isolation:auto;mix-blend-mode:normal;color-interpolation:sRGB;color-interpolation-filters:linearRGB;solid-color:#000000;solid-opacity:1;vector-effect:none;fill:#00a3a6;fill-opacity:1;fill-rule:nonzero;stroke:none;stroke-width:0.150414;stroke-linecap:round;stroke-linejoin:miter;stroke-miterlimit:4;stroke-dasharray:none;stroke-dashoffset:0;stroke-opacity:1;color-rendering:auto;image-rendering:auto;shape-rendering:auto;text-rendering:auto;enable-background:accumulate;stop-color:#000000"
         d="m -115.42168,-18.856342 c -10.11293,0 -18.20389,3.333997 -22.24179,10.02284 -4.00812,6.639489 -4.23277,14.4222255 -4.23594,23.669625 a 6.286466,6.286466 0 0 0 -0.004,0.198402 6.286466,6.286466 0 0 0 0.004,0.158538 c 0.004,9.265532 0.22292,17.060227 4.23704,23.709559 4.03793,6.688737 12.12888,10.022804 22.24175,10.022804 10.11291,0 18.204921,-3.333996 22.242321,-10.022804 a 6.286466,6.286466 0 0 0 -2.13271,-8.63152 6.286466,6.286466 0 0 0 -8.630081,2.13293 c -1.55063,2.568646 -3.55688,3.947724 -11.47953,3.947724 -7.92261,0 -9.92773,-1.379078 -11.4784,-3.947724 -1.14702,-1.900061 -1.92017,-5.677923 -2.24822,-11.082619 h 33.028191 c 2.17505,0 4.32671,-1.386664 5.24771,-2.523173 0.920925,-1.136544 1.186144,-2.003143 1.392378,-2.698291 0.412467,-1.390368 0.443159,-2.316621 0.484434,-3.248201 0.08259,-1.863232 -0.03859,-3.6084937 -0.0798,-4.5086415 v -0.006 -0.00564 c -0.100895,-2.1376217 -0.267688,-4.1840502 -0.54543,-6.1571716 -0.277813,-1.9729097 -0.665972,-3.8748049 -1.232782,-5.7147879 -0.56674,-1.839983 -1.31632,-3.622463 -2.32579,-5.29463 -4.0373,-6.688843 -12.129241,-10.02291 -22.242181,-10.02291 z m 0,12.573706 c 7.92258,0 9.92883,1.379078 11.4795,3.947759 0.38774,0.642232 0.75283,1.457854 1.07311,2.4976668 0.32036,1.039883 0.59168,2.298841 0.79823,3.7658321 0.19915,1.4148858 0.33289,3.0415088 0.42119,4.8201791 h -27.49868 c 0.32808,-5.4040969 1.10127,-9.1827 2.24822,-11.08262 1.5507,-2.568716 3.55579,-3.947724 11.47843,-3.947724 z"
         id="path4507-7-52-9-5-1-7-6"
         inkscape:export-xdpi="136.84"
         inkscape:export-ydpi="136.84" />
      <path
         style="color:#000000;font-style:normal;font-variant:normal;font-weight:normal;font-stretch:normal;font-size:50.8px;line-height:1.25;font-family:sans-serif;font-variant-ligatures:normal;font-variant-position:normal;font-variant-caps:normal;font-variant-numeric:normal;font-variant-alternates:normal;font-variant-east-asian:normal;font-feature-settings:normal;font-variation-settings:normal;text-indent:0;text-align:end;text-decoration:none;text-decoration-line:none;text-decoration-style:solid;text-decoration-color:#000000;letter-spacing:normal;word-spacing:normal;text-transform:none;writing-mode:lr-tb;direction:ltr;text-orientation:mixed;dominant-baseline:auto;baseline-shift:baseline;text-anchor:end;white-space:normal;shape-padding:0;shape-margin:0;inline-size:0;clip-rule:nonzero;display:inline;overflow:visible;visibility:visible;isolation:auto;mix-blend-mode:normal;color-interpolation:sRGB;color-interpolation-filters:linearRGB;solid-color:#000000;solid-opacity:1;vector-effect:none;fill:#00a3a6;fill-opacity:1;fill-rule:nonzero;stroke:none;stroke-width:0.150414;stroke-linecap:round;stroke-linejoin:round;stroke-miterlimit:4;stroke-dasharray:none;stroke-dashoffset:0;stroke-opacity:1;color-rendering:auto;image-rendering:auto;shape-rendering:auto;text-rendering:auto;enable-background:accumulate;stop-color:#000000"
         d="m -73.759819,-19.090269 a 6.2864949,6.2864949 0 0 0 -0.343606,0.01129 6.2864949,6.2864949 0 0 0 -5.885603,6.663725 c 0,0 0.47872,7.748623 1.80153,17.1788313 1.322741,9.4301727 3.241922,20.4109107 7.269057,28.4842647 1.133475,2.272454 2.582192,5.614494 4.881104,8.804416 2.298982,3.189993 6.19573,6.873311 11.72785,6.873311 5.53219,0 9.428903,-3.683318 11.727814,-6.873311 2.298983,-3.189922 3.747665,-6.531962 4.881175,-8.804416 4.027134,-8.073354 5.946281,-19.054092 7.269092,-28.4842647 1.32274,-9.4302083 1.801459,-17.1788313 1.801459,-17.1788313 a 6.2864949,6.2864949 0 0 0 -5.885532,-6.663725 6.2864949,6.2864949 0 0 0 -6.662667,5.885498 c 0,0 -0.454484,7.303769 -1.703952,16.2110553 -1.249398,8.9071447 -3.541289,19.5500267 -6.069506,24.6185257 -1.308665,2.623573 -2.615953,5.380214 -3.830214,7.065116 -1.214226,1.684796 -1.588559,1.651741 -1.527669,1.651741 0.06096,0 -0.313373,0.03316 -1.527634,-1.651741 -1.214226,-1.684902 -2.521585,-4.441543 -3.830179,-7.065116 -2.528252,-5.068499 -4.81905,-15.711381 -6.068448,-24.6185257 -1.249468,-8.9072863 -1.703951,-16.2110553 -1.703951,-16.2110553 a 6.2864949,6.2864949 0 0 0 -6.32012,-5.896647 z"
         id="path841-5-1-2-3-7-2-2-7-8-1-5-3"
         inkscape:export-xdpi="136.84"
         inkscape:export-ydpi="136.84" />
    </g>
  </g>
</svg>
