<?xml version="1.0" encoding="UTF-8" standalone="no"?>
<svg
   xmlns:dc="http://purl.org/dc/elements/1.1/"
   xmlns:cc="http://creativecommons.org/ns#"
   xmlns:rdf="http://www.w3.org/1999/02/22-rdf-syntax-ns#"
   xmlns:svg="http://www.w3.org/2000/svg"
   xmlns="http://www.w3.org/2000/svg"
   xmlns:sodipodi="http://sodipodi.sourceforge.net/DTD/sodipodi-0.dtd"
   xmlns:inkscape="http://www.inkscape.org/namespaces/inkscape"
   width="199.10001mm"
   height="199.10001mm"
   viewBox="0 0 199.10001 199.1"
   version="1.1"
   id="svg3904"
   inkscape:version="1.0.2 (e86c8708, 2021-01-15)"
   sodipodi:docname="evalhyd-python_logo.svg">
  <defs
     id="defs3898" />
  <sodipodi:namedview
     id="base"
     pagecolor="#ffffff"
     bordercolor="#666666"
     borderopacity="1.0"
     inkscape:pageopacity="0.0"
     inkscape:pageshadow="2"
     inkscape:zoom="0.25871317"
     inkscape:cx="637.85116"
     inkscape:cy="380.28879"
     inkscape:document-units="mm"
     inkscape:current-layer="layer1"
     inkscape:document-rotation="0"
     showgrid="false"
     fit-margin-top="5"
     fit-margin-left="5"
     fit-margin-right="5"
     fit-margin-bottom="5"
     inkscape:window-width="1920"
     inkscape:window-height="1027"
     inkscape:window-x="0"
     inkscape:window-y="25"
     inkscape:window-maximized="1" />
  <metadata
     id="metadata3901">
    <rdf:RDF>
      <cc:Work
         rdf:about="">
        <dc:format>image/svg+xml</dc:format>
        <dc:type
           rdf:resource="http://purl.org/dc/dcmitype/StillImage" />
        <dc:title></dc:title>
      </cc:Work>
    </rdf:RDF>
  </metadata>
  <g
     inkscape:label="Layer 1"
     inkscape:groupmode="layer"
     id="layer1"
     transform="translate(-27.521324,104.8608)">
    <g
       id="g3840"
       transform="matrix(0.35277777,0,0,-0.35277777,-4284.4982,-1784.1305)">
      <path
         id="path2830-3-5-9"
         style="color:#000000;font-style:normal;font-variant:normal;font-weight:normal;font-stretch:normal;font-size:medium;line-height:normal;font-family:sans-serif;font-variant-ligatures:normal;font-variant-position:normal;font-variant-caps:normal;font-variant-numeric:normal;font-variant-alternates:normal;font-variant-east-asian:normal;font-feature-settings:normal;font-variation-settings:normal;text-indent:0;text-align:start;text-decoration:none;text-decoration-line:none;text-decoration-style:solid;text-decoration-color:#000000;letter-spacing:normal;word-spacing:normal;text-transform:none;writing-mode:lr-tb;direction:ltr;text-orientation:mixed;dominant-baseline:auto;baseline-shift:baseline;text-anchor:start;white-space:normal;shape-padding:0;shape-margin:0;inline-size:0;clip-rule:nonzero;display:inline;overflow:visible;visibility:visible;isolation:auto;mix-blend-mode:normal;color-interpolation:sRGB;color-interpolation-filters:linearRGB;solid-color:#000000;solid-opacity:1;vector-effect:none;fill:#00a3a6;fill-opacity:1;fill-rule:evenodd;stroke:none;stroke-width:12.2168;stroke-linecap:round;stroke-linejoin:round;stroke-miterlimit:10;stroke-dasharray:none;stroke-dashoffset:0;stroke-opacity:1;color-rendering:auto;image-rendering:auto;shape-rendering:auto;text-rendering:auto;enable-background:accumulate;stop-color:#000000"
         d="m 12571.209,-4804.6347 c -40.806,0 -81.612,-15.5667 -112.746,-46.7007 -62.268,-62.2679 -62.268,-163.2243 0,-225.4922 62.268,-62.2678 163.224,-62.2678 225.492,0 62.268,62.2679 62.268,163.2243 0,225.4922 -31.134,31.134 -71.94,46.7007 -112.746,46.7007 z m -1.918,-57.1113 c 8.321,0.023 16.853,-0.6168 25.03,-1.9644 13.249,-2.2386 24.396,-12.152 24.396,-25.4004 v -46.5513 c 0,-13.6137 -10.828,-24.807 -24.396,-24.807 h -48.79 v 0 c -16.584,0 -30.518,-14.2074 -30.518,-30.334 v -22.295 h -16.765 c -14.208,0 -22.476,10.3257 -25.948,24.7618 -4.66,19.4157 -4.477,31.0194 0,49.6128 3.883,16.2178 16.308,24.7602 30.516,24.7602 h 67.156 v 6.2124 h -48.837 v 18.5948 c 0,14.1162 3.746,21.7455 24.396,25.4004 7.332,1.3016 15.441,1.9855 23.76,2.0082 z m -26.82,-14.9839 c -5.072,0 -9.138,-4.157 -9.184,-9.3194 0,-5.1165 4.112,-9.2739 9.184,-9.2739 5.07,0 9.181,4.1574 9.181,9.2739 0,5.1165 -4.156,9.3194 -9.181,9.3194 z m 84.606,-37.232 h 18.319 c 14.208,0 20.878,-10.6454 24.395,-24.7617 4.889,-19.5984 5.118,-34.3086 0,-49.6128 -4.933,-14.8471 -10.187,-24.7602 -24.395,-24.7602 h -73.186 v -6.2124 h 48.745 v -18.5933 c 0,-14.0707 -12.106,-21.2437 -24.395,-24.8071 -18.503,-5.3451 -33.35,-4.5229 -48.791,0 -12.883,3.7916 -24.394,11.5587 -24.394,24.8071 v 46.5059 c 0,13.3854 11.054,24.8057 24.394,24.8057 h 48.791 c 16.263,0 30.517,14.1623 30.517,30.9741 z m -27.456,-117.728 c -5.025,0 -9.138,-4.1117 -9.183,-9.2739 0,-5.1166 4.158,-9.3193 9.183,-9.3193 5.071,0 9.182,4.1571 9.182,9.3193 0,5.1165 -4.111,9.2739 -9.182,9.2739 z" />
      <path
         style="color:#000000;font-style:normal;font-variant:normal;font-weight:normal;font-stretch:normal;font-size:medium;line-height:normal;font-family:sans-serif;font-variant-ligatures:normal;font-variant-position:normal;font-variant-caps:normal;font-variant-numeric:normal;font-variant-alternates:normal;font-variant-east-asian:normal;font-feature-settings:normal;font-variation-settings:normal;text-indent:0;text-align:start;text-decoration:none;text-decoration-line:none;text-decoration-style:solid;text-decoration-color:#000000;letter-spacing:normal;word-spacing:normal;text-transform:none;writing-mode:lr-tb;direction:ltr;text-orientation:mixed;dominant-baseline:auto;baseline-shift:baseline;text-anchor:start;white-space:normal;shape-padding:0;shape-margin:0;inline-size:0;clip-rule:nonzero;display:inline;overflow:visible;visibility:visible;isolation:auto;mix-blend-mode:normal;color-interpolation:sRGB;color-interpolation-filters:linearRGB;solid-color:#000000;solid-opacity:1;vector-effect:none;fill:#00a3a6;fill-opacity:1;fill-rule:evenodd;stroke:none;stroke-linecap:round;stroke-linejoin:round;stroke-miterlimit:10;stroke-dasharray:none;stroke-dashoffset:0;stroke-opacity:1;color-rendering:auto;image-rendering:auto;shape-rendering:auto;text-rendering:auto;enable-background:accumulate;stop-color:#000000"
         d="m 12688.274,-4847.0161 c -64.603,64.6023 -169.528,64.6024 -234.13,0 -64.602,-64.6022 -64.602,-169.5275 0,-234.1297 64.602,-64.6022 169.527,-64.6021 234.13,0 64.602,64.6022 64.602,169.5275 0,234.1297 z m -8.639,-8.6385 c 59.933,-59.9337 59.934,-156.919 0,-216.8526 -59.934,-59.9335 -156.919,-59.9335 -216.853,0 -59.933,59.9335 -59.933,156.919 0,216.8526 59.934,59.9336 156.919,59.9336 216.853,0 z"
         id="path2832-9-8-7" />
      <path
         id="path8657-0-05-0-2-3-4-61-5-9-2-0"
         style="fill:#66c1bf;fill-opacity:1;fill-rule:evenodd;stroke:#66c1bf;stroke-width:1.33498;stroke-linecap:round;stroke-linejoin:round;stroke-miterlimit:10;stroke-dasharray:none;stroke-opacity:1"
         d="m 12771.874,-5024.597 -0.04,0.043 -1.64,-2.3602 -1.641,-6.7442 -1.643,-5.5835 -1.641,-0.6208 -1.64,-2.9279 -3.284,-13.5998 -1.641,-1.5372 -1.641,0.1396 -1.64,-3.0719 -1.643,-6.82 -1.641,-4.9548 -1.641,1.633 -1.64,2.4661 -1.644,4.513 -1.64,7.224 -3.281,17.2699 -8.209,47.7683 -3.281,18.0751 -1.641,7.3929 -1.641,4.5812 -1.643,-0.036 -1.64,-6.7468 -1.641,-15.1218 -3.284,-48.1547 -1.64,-13.5871 -1.641,-7.648 -1.641,-10.894 -3.284,-29.3173 -3.281,-22.7522 -1.643,-7.2035 -1.641,-3.9932 -1.641,-3.5312 -1.64,-2.1001 -1.643,-2.9607 -1.641,-5.6059 -1.641,-7.0878 -1.64,-4.6065 -1.643,-1.3175 -1.641,-0.3003 -1.641,1.1484 -1.64,2.1429 -3.284,5.0987 -3.282,5.8887 -3.284,6.7419 -3.281,7.5975 -4.924,12.5598 -3.282,8.1757 -1.643,3.4731 -1.64,2.5897 -1.641,1.166 -1.641,-1.045 -1.643,-3.8441 -3.281,-10.841 -1.641,-9.6571 -1.643,-13.0648 -3.281,-24.8722 -1.641,-9.4377 -1.643,-2.4912 -1.641,-0.028 -3.281,0.7473 -1.641,-0.071 -1.643,-0.5326 -1.641,-0.7218 -3.281,-1.6204 -1.643,-1.4262 -1.641,-2.1632 -1.641,-1.6608 -1.64,-0.1791 -3.284,0.1791 -13.13,3.1172 -3.281,0.5327 -1.644,0.028 -1.64,-0.2575 -1.641,-0.5325 -1.641,-0.3383 -3.284,0.061 -1.64,-0.2122 -1.641,-0.3785 -1.641,-0.032 -6.565,1.3452 -3.283,0.5353 -3.282,0.2323 -3.284,0.959 -4.924,1.8451 -4.922,2.2767 -3.284,1.7973 -4.922,3.1701 -8.208,6.2473 -4.922,3.5815 -1.643,0.9036 -1.641,0.4796 -1.641,0.093 -3.284,1.1108 -3.281,0.5072 -1.641,0.7395 -1.643,1.5751 -1.64,2.0343 -6.566,9.2939 -3.281,4.3969 -1.641,1.7087 -1.643,1.3379 -1.64,1.6936 -1.641,2.7285 -1.641,3.5414 -4.924,11.6208 -3.284,7.4411 -1.641,3.1121 -1.64,2.2717 -1.641,0.934 -1.643,-0.7597 -1.641,-1.7316 -1.64,-2.3804 -1.641,-3.0817 -1.643,-1.1989 -1.641,2.8092 -1.641,4.8109 -3.284,10.6567 -4.921,16.3385 -1.641,4.7098 -1.643,3.9981 -1.641,2.5269 -1.641,0.1258 -1.64,-3.3395 -4.925,-20.9627 -3.284,-18.8346 -1.64,-7.4233 -1.641,-5.2475 -1.641,-2.5622 -1.643,-1.5143 -1.64,0.3331 -1.641,0.939 -1.641,-0.1516 -1.643,-1.5044 -1.641,-2.2314 -1.64,-2.6451 -1.641,-1.6836 -1.643,1.3327 -4.922,8.3977 -3.284,7.1684 -3.281,8.6955 -1.641,5.2525 -3.284,11.9365 -3.281,13.5265 -3.284,15.069 -4.924,24.5997 -3.282,15.8816 -1.64,6.7418 -1.643,5.1845 -3.282,7.0143 -1.64,4.4727 -3.284,14.0593 -1.641,5.5706 -1.641,4.9547 -1.64,7.5547 -1.643,10.745 -3.282,21.3867 -1.64,7.9963 -1.644,4.1193 -1.64,-1.3781 -1.641,-6.5425 -1.641,-9.6344 -3.283,-28.0327 -1.641,-7.7286 -3.284,-11.5528 -1.641,-2.7462 -1.64,-1.845 -1.641,-3.6423 -1.643,-6.2093 -1.641,-4.5939 -1.64,-1.729 -1.641,-5.3713 -3.284,-17.3454 -1.641,-5.5329 -1.64,-1.575 -1.641,3.2535 -3.284,9.3114 -1.64,2.2263 -1.641,-1.1661 -1.643,-3.8694 -1.641,-6.4692 -1.64,-12.5449 -1.641,-15.619 -1.643,-8.2563 -1.641,2.0018 -1.641,5.0228 -1.64,5.7247 -1.644,7.3173 -1.64,8.7812 -3.282,20.266 -4.924,34.3198 -3.284,22.2499 -1.64,9.4301 -1.641,7.0523 -1.641,3.2082 -1.643,-2.6856 -1.641,-11.3106 -1.64,-21.6919 -1.641,-26.6773 -1.641,-21.4824 -1.643,-12.6482 -3.281,-12.7669 -1.641,-9.5814 -3.284,-30.4127 -1.64,-10.7149 -1.641,-7.1557 -1.643,-5.3637 -1.641,-3.0314 -1.64,0.5148 -1.641,0.2373 -1.643,-1.3 -1.641,-2.683 -1.641,-4.6822 -1.64,-8.6021 -4.925,-39.5802 -0.323,-1.1029 a 267.18137,267.18137 0 0 1 232.719,-135.9299 267.18137,267.18137 0 0 1 267.182,267.1799 267.18137,267.18137 0 0 1 -0.591,17.7594 z" />
      <path
         id="path8657-7-3-2-3-0-9-4-8-7-9-3"
         style="fill:#275662;fill-opacity:1;fill-rule:evenodd;stroke:#275662;stroke-width:1.33498;stroke-linecap:round;stroke-linejoin:round;stroke-miterlimit:10;stroke-dasharray:none;stroke-opacity:1"
         d="m 12768.611,-5087.5655 -1.593,-0.7699 -1.641,-3.1097 -3.281,-14.0012 -1.641,-1.7592 -1.643,-0.093 -1.64,-3.3217 -1.641,-7.085 -1.641,-5.235 -1.643,1.3327 -1.641,2.1456 -1.64,4.1722 -1.641,6.8606 -1.643,7.817 -9.846,53.917 -3.284,16.823 -1.641,6.7066 -1.641,3.8466 -1.64,-0.8152 -1.644,-7.5772 -1.64,-16.0003 -3.282,-50.0703 -1.64,-14.6169 -1.643,-8.7233 -1.641,-12.0046 -3.281,-31.5763 -3.284,-24.8622 -1.641,-8.0646 -1.641,-4.5989 -1.643,-3.7433 -3.281,-3.3924 -3.284,-6.1333 -1.641,-2.5242 -1.64,-1.9663 -1.641,-1.1913 -1.643,0.1069 -1.641,0.9667 -1.64,1.1889 -3.284,2.6832 -3.282,3.1221 -3.283,3.5741 -6.563,8.0671 -3.284,3.6599 -1.64,1.2924 -1.641,0.5982 -1.643,-0.4948 -1.641,-2.1479 -3.281,-8.2035 -1.643,-2.6275 -3.282,-7.4788 -3.284,-5.0433 -1.64,-2.2084 -1.641,-0.9944 -1.64,-0.018 -3.284,0.6108 -1.641,-0.045 -3.284,-0.9641 -3.281,-1.2192 -1.641,-1.0828 -1.64,-1.6482 -1.644,-1.2419 -1.64,-0.097 -3.282,0.2244 -13.13,2.7969 -3.284,0.5046 -1.64,0.055 -1.641,-0.1794 -1.643,-0.4089 -1.641,-0.2422 -3.281,0.1362 -3.284,-0.3938 -1.641,0.025 -8.206,1.6534 -4.924,0.5578 -3.281,0.9642 -4.925,1.8425 -4.925,2.2718 -3.281,1.797 -4.924,3.1652 -8.206,6.2395 -4.925,3.5793 -1.64,0.901 -1.641,0.4772 -1.643,0.093 -3.281,1.1079 -3.284,0.5025 -1.641,0.7395 -1.64,1.5726 -1.641,2.0317 -6.565,9.2887 -3.284,4.392 -1.641,1.7087 -1.64,1.3353 -1.644,1.6911 -1.64,2.7283 -1.641,3.5391 -4.924,11.6158 -3.282,7.4385 -1.64,3.1071 -1.644,2.2718 -1.64,0.9313 -1.641,-0.7623 -1.64,-1.7342 -1.644,-2.3827 -1.64,-3.0843 -1.641,-1.2016 -1.641,2.8068 -1.643,4.8085 -3.281,10.6516 -4.925,16.3308 -1.64,4.7075 -1.641,3.9955 -1.643,2.5243 -1.641,0.1241 -1.64,-3.3421 -4.925,-20.975 -3.281,-18.8424 -1.641,-7.426 -1.643,-5.25 -1.641,-2.5696 -1.641,-1.5169 -1.64,0.3281 -1.643,0.9366 -1.641,-0.1568 -1.641,-1.5095 -1.64,-2.2365 -1.643,-2.6503 -1.641,-1.6884 -1.641,1.3277 -4.924,8.3773 -3.282,7.1558 -3.283,8.678 -1.641,5.245 -3.281,11.9186 -3.284,13.5089 -3.282,15.0486 -4.924,24.5645 -3.284,15.8563 -1.641,6.7293 -1.64,5.1669 -3.284,6.9815 -1.641,4.4551 -3.281,14.0213 -1.643,5.5529 -1.641,4.9321 -1.641,7.5344 -1.64,10.7198 -3.284,21.3362 -1.641,7.9684 -1.641,4.0892 -1.64,-1.4085 -1.643,-6.5752 -1.641,-9.67 -3.281,-28.1082 -1.644,-7.769 -3.281,-11.6412 -1.64,-2.7967 -1.644,-1.8956 -1.64,-3.6976 -1.641,-6.2649 -1.64,-4.6569 -1.644,-1.7923 -1.64,-5.4394 -3.282,-17.4969 -1.643,-5.6136 -1.64,-1.6633 -1.641,3.1627 -3.284,9.1094 -1.64,2.1153 -1.641,-1.2847 -1.641,-3.9932 -1.643,-6.6032 -1.641,-12.686 -1.641,-15.7655 -1.64,-8.4177 -1.641,1.8324 -1.643,4.8437 -1.641,5.5328 -1.64,7.1131 -1.641,8.564 -3.284,19.7888 -4.924,33.4746 -3.282,21.5884 -1.64,9.0666 -1.643,6.661 -1.641,2.7942 -1.641,-3.1322 -1.64,-11.785 -1.644,-22.1968 -1.64,-27.2173 -1.641,-22.0555 -1.641,-13.2616 -3.283,-14.1046 -1.641,-10.3084 -3.281,-31.9625 -1.644,-11.53 -1.64,-7.9787 -1.641,-6.1765 -1.641,-3.8114 -3.283,-0.5022 -1.641,-1.6306 -1.641,-2.663 -1.643,-4.1369 -0.02,-0.086 a 267.18137,267.18137 0 0 1 224.099,-121.6963 267.18137,267.18137 0 0 1 263.328,221.9708 z" />
      <path
         id="path2963-8-6-1-3-0-2-96-1-0-8-98"
         style="fill:none;fill-rule:evenodd;stroke:#00a3a6;stroke-width:12.6519;stroke-linecap:round;stroke-linejoin:round;stroke-miterlimit:10;stroke-dasharray:none;stroke-opacity:1"
         d="m 12765.08,-5012.1706 c -0.489,4.2319 -1.077,8.4316 -1.763,12.5969 -1.373,8.3304 -3.135,16.5226 -5.268,24.5578 -4.266,16.0708 -10.013,31.5139 -17.082,46.1812 -14.139,29.3343 -33.567,55.5644 -57.013,77.5001 -46.891,43.8717 -109.853,70.5666 -178.712,70.5662 -144.466,-9e-4 -261.578,-117.1139 -261.578,-261.5798 0,-22.5112 2.906,-44.8319 8.576,-66.4266 2.835,-10.7974 6.361,-21.4132 10.561,-31.7809"
         sodipodi:nodetypes="cssssccsc" />
    </g>
  </g>
</svg>
