<?xml version="1.0" encoding="UTF-8" standalone="no"?>
<svg
   xmlns:dc="http://purl.org/dc/elements/1.1/"
   xmlns:cc="http://creativecommons.org/ns#"
   xmlns:rdf="http://www.w3.org/1999/02/22-rdf-syntax-ns#"
   xmlns:svg="http://www.w3.org/2000/svg"
   xmlns="http://www.w3.org/2000/svg"
   xmlns:sodipodi="http://sodipodi.sourceforge.net/DTD/sodipodi-0.dtd"
   xmlns:inkscape="http://www.inkscape.org/namespaces/inkscape"
   width="653.67072mm"
   height="209.00511mm"
   viewBox="0 0 653.67071 209.00511"
   version="1.1"
   id="svg3035"
   inkscape:version="1.0.2 (e86c8708, 2021-01-15)"
   sodipodi:docname="evalhyd-cpp_logo+text.svg">
  <defs
     id="defs3029" />
  <sodipodi:namedview
     id="base"
     pagecolor="#ffffff"
     bordercolor="#666666"
     borderopacity="1.0"
     inkscape:pageopacity="0.0"
     inkscape:pageshadow="2"
     inkscape:zoom="0.35"
     inkscape:cx="621.99588"
     inkscape:cy="261.36914"
     inkscape:document-units="mm"
     inkscape:current-layer="layer1"
     inkscape:document-rotation="0"
     showgrid="false"
     fit-margin-top="10"
     fit-margin-left="10"
     fit-margin-bottom="10"
     fit-margin-right="10"
     inkscape:window-width="1252"
     inkscape:window-height="847"
     inkscape:window-x="0"
     inkscape:window-y="25"
     inkscape:window-maximized="0" />
  <metadata
     id="metadata3032">
    <rdf:RDF>
      <cc:Work
         rdf:about="">
        <dc:format>image/svg+xml</dc:format>
        <dc:type
           rdf:resource="http://purl.org/dc/dcmitype/StillImage" />
        <dc:title></dc:title>
      </cc:Work>
    </rdf:RDF>
  </metadata>
  <g
     inkscape:label="Layer 1"
     inkscape:groupmode="layer"
     id="layer1"
     transform="translate(466.19474,-129.66156)">
    <g
       id="g2974"
       transform="matrix(0.35277777,0,0,-0.35277777,-3159.9564,-2327.7145)">
      <g
         id="g2871">
        <path
           id="path1025-8-9-4-2-7-9-0-1-1-9-1-7-4-4"
           style="color:#000000;font-style:normal;font-variant:normal;font-weight:normal;font-stretch:normal;font-size:50.8px;line-height:1.25;font-family:sans-serif;font-variant-ligatures:normal;font-variant-position:normal;font-variant-caps:normal;font-variant-numeric:normal;font-variant-alternates:normal;font-variant-east-asian:normal;font-feature-settings:normal;font-variation-settings:normal;text-indent:0;text-align:end;text-decoration:none;text-decoration-line:none;text-decoration-style:solid;text-decoration-color:#000000;letter-spacing:normal;word-spacing:normal;text-transform:none;writing-mode:lr-tb;direction:ltr;text-orientation:mixed;dominant-baseline:auto;baseline-shift:baseline;text-anchor:end;white-space:normal;shape-padding:0;shape-margin:0;inline-size:0;clip-rule:nonzero;display:inline;overflow:visible;visibility:visible;isolation:auto;mix-blend-mode:normal;color-interpolation:sRGB;color-interpolation-filters:linearRGB;solid-color:#000000;solid-opacity:1;vector-effect:none;fill:#a3c208;fill-opacity:1;fill-rule:nonzero;stroke:none;stroke-width:0.426371;stroke-linecap:round;stroke-linejoin:miter;stroke-miterlimit:4;stroke-dasharray:none;stroke-dashoffset:0;stroke-opacity:1;color-rendering:auto;image-rendering:auto;shape-rendering:auto;text-rendering:auto;enable-background:accumulate;stop-color:#000000"
           d="m 8786.3533,-7165.9516 a 17.819986,17.819986 0 0 1 -17.8211,-17.8211 v -156.4544 a 17.819986,17.819986 0 0 1 17.8212,-17.8213 17.819986,17.819986 0 0 1 17.8195,17.8195 l -10e-5,156.4544 a 17.819986,17.819986 0 0 1 -17.8198,17.8198 z m -57.2054,-5e-4 c -28.6669,6e-4 -51.6051,-9.4502 -63.0507,-28.4109 -11.4464,-18.9602 -12.0143,-41.1867 -12.0139,-67.6575 -1e-4,-26.47 0.5672,-48.697 12.0136,-67.6576 11.4458,-18.9598 34.3845,-28.4081 63.0507,-28.4079 28.6663,2e-4 51.6044,9.4481 63.0506,28.408 11.4463,18.96 12.0167,41.1877 12.0168,67.6576 2e-4,26.4701 -0.571,48.6974 -12.0166,67.6574 -11.4463,18.9607 -34.3842,28.4112 -63.0505,28.4109 z m -3e-4,-35.6385 c 22.4577,0 28.1444,-3.9087 32.5402,-11.1901 4.3956,-7.2816 6.8853,-24.1807 6.8851,-49.2394 4e-4,-25.0594 -2.4893,-41.9557 -6.8851,-49.2365 -4.3953,-7.2817 -10.0821,-11.1908 -32.5399,-11.1909 -22.4585,6e-4 -28.1421,3.9096 -32.5379,11.191 -4.395,7.2807 -6.8876,24.1769 -6.8881,49.2364 3e-4,25.0587 2.4927,41.9577 6.8881,49.2395 4.396,7.281 10.0799,11.19 32.5376,11.19 z" />
        <path
           style="color:#000000;font-style:normal;font-variant:normal;font-weight:normal;font-stretch:normal;font-size:50.8px;line-height:1.25;font-family:sans-serif;font-variant-ligatures:normal;font-variant-position:normal;font-variant-caps:normal;font-variant-numeric:normal;font-variant-alternates:normal;font-variant-east-asian:normal;font-feature-settings:normal;font-variation-settings:normal;text-indent:0;text-align:end;text-decoration:none;text-decoration-line:none;text-decoration-style:solid;text-decoration-color:#000000;letter-spacing:normal;word-spacing:normal;text-transform:none;writing-mode:lr-tb;direction:ltr;text-orientation:mixed;dominant-baseline:auto;baseline-shift:baseline;text-anchor:end;white-space:normal;shape-padding:0;shape-margin:0;inline-size:0;clip-rule:nonzero;display:inline;overflow:visible;visibility:visible;isolation:auto;mix-blend-mode:normal;color-interpolation:sRGB;color-interpolation-filters:linearRGB;solid-color:#000000;solid-opacity:1;vector-effect:none;fill:#a3c208;fill-opacity:1;fill-rule:nonzero;stroke:none;stroke-width:0.426371;stroke-linecap:round;stroke-linejoin:miter;stroke-miterlimit:4;stroke-dasharray:none;stroke-dashoffset:0;stroke-opacity:1;color-rendering:auto;image-rendering:auto;shape-rendering:auto;text-rendering:auto;enable-background:accumulate;stop-color:#000000"
           d="m 8850.007,-7116.5645 a 17.819986,17.819986 0 0 1 -17.821,-17.821 l 4e-4,-172.8773 c -2e-4,-20.4681 10.7581,-37.0282 23.7351,-43.9916 12.9764,-6.9626 25.6434,-6.8312 33.3761,-6.8314 10.3,2e-4 20.6501,2.3021 29.652,4.3871 9.0019,2.0849 16.1903,4.1793 16.1903,4.1793 a 17.819986,17.819986 0 0 1 12.13,22.0917 17.819986,17.819986 0 0 1 -22.0915,12.1297 c 0,0 -6.3086,-1.8355 -14.2704,-3.6794 -7.9612,-1.8447 -18.0405,-3.4698 -21.6102,-3.47 -6.4128,6e-4 -13.3909,0.9181 -16.5237,2.5993 -3.132,1.6806 -4.949,1.6214 -4.9492,12.5856 l 4e-4,172.8767 a 17.819986,17.819986 0 0 1 -17.8198,17.8198 z"
           id="path980-0-0-7-6-9-37-0-3-3-1-9-9-0-8-8" />
        <g
           id="g2830-1-4-9-2-9-2-6-9-0-3-0-0"
           transform="matrix(21.732242,0,0,-21.732242,5277.8366,-858.68495)"
           style="font-size:50.8px;line-height:1.25;font-family:sans-serif;text-align:end;text-anchor:end;fill:#a3c208;fill-opacity:1;stroke:#000000;stroke-width:0;stroke-miterlimit:4;stroke-dasharray:none;stroke-opacity:1">
          <g
             id="path980-0-0-7-4-7-3-7-4-3-2-9-6-1-6-2-9-4-4"
             style="opacity:1;fill:#a3c208;fill-opacity:1">
            <path
               style="color:#000000;font-style:normal;font-variant:normal;font-weight:normal;font-stretch:normal;font-size:medium;line-height:normal;font-family:sans-serif;font-variant-ligatures:normal;font-variant-position:normal;font-variant-caps:normal;font-variant-numeric:normal;font-variant-alternates:normal;font-variant-east-asian:normal;font-feature-settings:normal;font-variation-settings:normal;text-indent:0;text-align:start;text-decoration:none;text-decoration-line:none;text-decoration-style:solid;text-decoration-color:#000000;letter-spacing:normal;word-spacing:normal;text-transform:none;writing-mode:lr-tb;direction:ltr;text-orientation:mixed;dominant-baseline:auto;baseline-shift:baseline;text-anchor:start;white-space:normal;shape-padding:0;shape-margin:0;inline-size:0;clip-rule:nonzero;display:inline;overflow:visible;visibility:visible;isolation:auto;mix-blend-mode:normal;color-interpolation:sRGB;color-interpolation-filters:linearRGB;solid-color:#000000;solid-opacity:1;vector-effect:none;fill:#a3c208;fill-opacity:1;fill-rule:nonzero;stroke:none;stroke-width:0;stroke-linecap:round;stroke-linejoin:miter;stroke-miterlimit:4;stroke-dasharray:none;stroke-dashoffset:0;stroke-opacity:1;color-rendering:auto;image-rendering:auto;shape-rendering:auto;text-rendering:auto;enable-background:accumulate;stop-color:#000000;stop-opacity:1"
               d="m 178.33594,291.10352 c -0.45315,-0.008 -0.82668,0.35349 -0.83399,0.80664 0,0 -0.0184,1.10487 0.0371,2.38086 0.0555,1.27598 0.10733,2.63403 0.53906,3.60546 0.51923,1.1683 1.70354,1.56734 2.6211,1.68555 0.55206,0.0713 1.06053,0.0625 1.4043,0.0625 0.14274,0 0.46289,-10e-6 0.46289,-10e-6 v 0.23488 c 0,0.20132 -0.0352,0.23687 -0.0723,0.27929 -0.0371,0.0424 -0.11998,0.10096 -0.27539,0.14844 -0.31082,0.095 -0.80994,0.0918 -1.17969,0.0918 -0.11587,0 -0.76324,-0.10204 -1.27344,-0.2168 -0.51019,-0.11476 -0.94531,-0.23047 -0.94531,-0.23047 -0.43795,-0.11546 -0.88656,0.14602 -1.00195,0.58399 -0.11558,0.43735 0.14485,0.88569 0.58203,1.00195 0,0 0.46113,0.12161 1.00586,0.24414 0.54473,0.12253 1.11046,0.25781 1.63281,0.25781 0.28112,0 0.95824,0.0498 1.65821,-0.16406 0.34998,-0.10693 0.72998,-0.29215 1.03125,-0.63672 0.30127,-0.34457 0.47851,-0.83752 0.47851,-1.35937 v -7.95508 c -3.4e-4,-0.12757 -0.0304,-0.2533 -0.0879,-0.36719 l -0.002,-0.002 c -0.0683,-0.13599 -0.17315,-0.25028 -0.30274,-0.33008 -10e-4,-6.5e-4 -0.003,-0.001 -0.004,-0.002 -0.0434,-0.0263 -0.0892,-0.0486 -0.13672,-0.0664 -0.0224,-0.009 -0.0452,-0.0166 -0.0684,-0.0234 h -0.004 c -0.0232,-0.007 -0.0466,-0.0128 -0.0703,-0.0176 h -0.004 c -0.0233,-0.004 -0.0467,-0.008 -0.0703,-0.01 -0.002,-1e-5 -0.004,-1e-5 -0.006,0 -0.0228,-0.002 -0.0456,-0.002 -0.0684,-0.002 -0.0491,1.6e-4 -0.0982,0.005 -0.14648,0.0137 -0.0446,0.009 -0.0883,0.0211 -0.13086,0.0371 -0.005,10e-4 -0.0104,0.003 -0.0156,0.004 -0.001,6.5e-4 -0.003,10e-4 -0.004,0.002 -0.0462,0.0181 -0.0906,0.0403 -0.13282,0.0664 -0.001,6.5e-4 -0.003,10e-4 -0.004,0.002 -0.0201,0.0128 -0.0397,0.0265 -0.0586,0.041 -0.001,6.5e-4 -0.003,10e-4 -0.004,0.002 -0.0189,0.0148 -0.0372,0.0305 -0.0547,0.0469 -0.17031,0.15525 -0.26743,0.37501 -0.26758,0.60547 0,0 0.007,4.60418 0,5.91992 v 0.002 0.002 c 0,0.11344 -2e-5,0.15628 -2e-5,0.15628 0,0 -0.0903,-3e-5 -0.46091,-3e-5 -0.36235,0 -0.78964,0.003 -1.19336,-0.0488 -0.67169,-0.0865 -1.13068,-0.26715 -1.33399,-0.72461 -0.14679,-0.33029 -0.34543,-1.7908 -0.39844,-3.00977 -0.053,-1.21896 -0.0371,-2.2832 -0.0371,-2.2832 0.008,-0.45239 -0.3523,-0.8256 -0.80468,-0.83398 z"
               id="path4739-8-7-9-9-9-1-1-8-6-6" />
            <path
               style="color:#000000;font-style:normal;font-variant:normal;font-weight:normal;font-stretch:normal;font-size:medium;line-height:normal;font-family:sans-serif;font-variant-ligatures:normal;font-variant-position:normal;font-variant-caps:normal;font-variant-numeric:normal;font-variant-alternates:normal;font-variant-east-asian:normal;font-feature-settings:normal;font-variation-settings:normal;text-indent:0;text-align:start;text-decoration:none;text-decoration-line:none;text-decoration-style:solid;text-decoration-color:#000000;letter-spacing:normal;word-spacing:normal;text-transform:none;writing-mode:lr-tb;direction:ltr;text-orientation:mixed;dominant-baseline:auto;baseline-shift:baseline;text-anchor:start;white-space:normal;shape-padding:0;shape-margin:0;inline-size:0;clip-rule:nonzero;display:inline;overflow:visible;visibility:visible;isolation:auto;mix-blend-mode:normal;color-interpolation:sRGB;color-interpolation-filters:linearRGB;solid-color:#000000;solid-opacity:1;vector-effect:none;fill:#a3c208;fill-opacity:1;fill-rule:nonzero;stroke:none;stroke-linecap:round;stroke-linejoin:miter;stroke-miterlimit:4;stroke-dasharray:none;stroke-dashoffset:0;stroke-opacity:1;color-rendering:auto;image-rendering:auto;shape-rendering:auto;text-rendering:auto;enable-background:accumulate;stop-color:#000000;stop-opacity:1"
               d="m 178.33594,291.08789 c -0.003,-6e-5 -0.003,0.006 -0.006,0.006 l -0.002,-0.004 -0.0488,0.0293 h 0.0234 c -0.43759,0.0197 -0.80924,0.34702 -0.8164,0.79102 0,0 -0.0184,1.10431 0.0371,2.38086 0.0555,1.27592 0.10723,2.63527 0.54101,3.61132 0.52235,1.17532 1.71246,1.57675 2.63282,1.69532 0.55346,0.0715 1.06275,0.0625 1.40625,0.0625 0.13792,0 0.42693,0 0.44726,0 v 0.21875 c 0,0.0997 -0.009,0.15858 -0.0215,0.19531 -0.0125,0.0367 -0.0281,0.0528 -0.0469,0.0742 -0.0341,0.039 -0.11416,0.0957 -0.26758,0.14258 -0.30614,0.0936 -0.80594,0.0918 -1.17578,0.0918 -0.0266,0 -0.0891,-0.006 -0.17383,-0.0176 -0.0847,-0.0113 -0.19258,-0.027 -0.3125,-0.0469 -0.23983,-0.0398 -0.52852,-0.0951 -0.7832,-0.15234 -0.50984,-0.11469 -0.94531,-0.23047 -0.94531,-0.23047 -0.44631,-0.11767 -0.90389,0.14937 -1.02149,0.5957 -0.11778,0.4457 0.14823,0.903 0.59375,1.02148 0,0 0.46081,0.12154 1.00586,0.24415 0.54459,0.12249 1.11161,0.25781 1.63672,0.25781 0.27923,0 0.95872,0.0508 1.66211,-0.16407 0.35182,-0.10749 0.73528,-0.29317 1.03906,-0.64062 0.3042,-0.34792 0.48243,-0.84562 0.48243,-1.37109 v -7.95508 c -3.5e-4,-0.13006 -0.0312,-0.25693 -0.0898,-0.37305 v -0.004 l -0.004,-0.004 0.002,0.006 c -0.0696,-0.13865 -0.17648,-0.25654 -0.30859,-0.33789 10e-5,1e-4 -0.001,4.5e-4 -0.002,0 v -0.002 c -6e-4,-4.5e-4 -0.002,-7e-5 -0.002,0 -0.0442,-0.0268 -0.0902,-0.0482 -0.13867,-0.0664 -0.023,-0.009 -0.0467,-0.0185 -0.0703,-0.0254 h -0.002 -0.002 -0.004 c -0.0225,-0.007 -0.0454,-0.0129 -0.0684,-0.0176 h -0.004 -0.002 c -0.0227,-0.004 -0.0465,-0.008 -0.0703,-0.01 -0.002,-10e-6 -0.004,-10e-6 -0.006,0 -0.0237,-0.002 -0.0456,-0.002 -0.0684,-0.002 -0.0501,1.6e-4 -0.10126,0.005 -0.15039,0.0137 -0.0453,0.009 -0.0894,0.0208 -0.13281,0.0371 -0.006,10e-4 -0.0107,0.003 -0.0137,0.004 h -0.002 l -0.004,0.002 c -7e-4,3.2e-4 -0.002,0.002 -0.002,0.002 -3.4e-4,1.9e-4 -0.004,0.002 -0.004,0.002 -0.0445,0.0178 -0.0881,0.0393 -0.12891,0.0645 0,0 -0.002,0 -0.002,0 -6.9e-4,3.1e-4 -0.002,0.002 -0.002,0.002 -3.5e-4,1.9e-4 -0.004,0.002 -0.004,0.002 -0.0189,0.0121 -0.0368,0.0254 -0.0547,0.0391 -7.2e-4,5.5e-4 -0.001,0.001 -0.002,0.002 -4.4e-4,2.1e-4 -0.002,-7e-5 -0.002,0 -3.5e-4,1.9e-4 -0.004,0.002 -0.004,0.002 -0.0189,0.0148 -0.0372,0.0305 -0.0547,0.0469 -0.17362,0.15827 -0.27328,0.38224 -0.27343,0.61719 0,0 0.007,4.60444 0,5.91992 v 0.002 0.002 c 0,0.10209 0,0.13266 0,0.14062 -0.007,0 -0.0869,0 -0.44336,0 -0.36244,0 -0.78918,0.003 -1.19141,-0.0488 -0.3349,-0.0431 -0.61634,-0.10884 -0.83789,-0.2207 -0.22155,-0.11186 -0.38422,-0.26878 -0.48438,-0.49414 -0.0355,-0.0798 -0.0752,-0.23361 -0.11523,-0.43555 -0.04,-0.20194 -0.0799,-0.45327 -0.11719,-0.73242 -0.0746,-0.55829 -0.13758,-1.22704 -0.16406,-1.83594 -0.053,-1.21841 -0.0371,-2.2832 -0.0371,-2.2832 0.008,-0.44918 -0.35454,-0.80134 -0.79883,-0.82812 l 0.0352,-0.0215 z m 5.04687,0.0312 c 0.0228,0 0.0445,3e-5 0.0664,0.002 h 0.002 c 0.002,-10e-6 0.004,-10e-6 0.006,0 0.0221,0.002 0.0438,0.006 0.0664,0.01 h 0.002 0.006 c 0.022,0.005 0.043,0.0111 0.0644,0.0176 h 0.004 0.002 c 0.0228,0.007 0.0446,0.0147 0.0664,0.0234 0.0466,0.0174 0.0922,0.0387 0.13476,0.0645 8.1e-4,5.9e-4 0.002,0.002 0.002,0.002 0,0 0.002,0 0.002,0 0,0 0,0.002 0,0.002 0.12649,0.0782 0.23013,0.18937 0.29688,0.32227 v 0.002 l 0.004,0.004 c 0.0551,0.11064 0.0837,0.23182 0.084,0.35547 v 7.95508 c 0,0.51822 -0.17627,1.00839 -0.47461,1.34961 -0.29875,0.34169 -0.6753,0.52449 -1.02344,0.63086 -0.69655,0.21281 -1.37129,0.16406 -1.6543,0.16406 -0.51959,0 -1.08403,-0.13525 -1.6289,-0.25782 -0.54441,-0.12245 -1.00586,-0.24414 -1.00586,-0.24414 -0.42883,-0.11404 -0.68369,-0.55342 -0.57032,-0.98242 0.11319,-0.42961 0.55284,-0.68552 0.98243,-0.57226 0,0 0.43477,0.11563 0.94531,0.23047 0.25552,0.0575 0.54479,0.11244 0.78516,0.15234 0.12018,0.0199 0.22925,0.0355 0.31445,0.0469 0.0852,0.0114 0.14642,0.0176 0.17773,0.0176 0.36966,0 0.8681,0.005 1.1836,-0.0918 0.1574,-0.0481 0.24313,-0.10656 0.2832,-0.15235 0.0184,-0.021 0.0384,-0.044 0.0527,-0.0859 0.0143,-0.042 0.0234,-0.10348 0.0234,-0.20507 v -0.25 h -0.0156 c 0,0 -0.32016,0 -0.46289,0 -0.34405,0 -0.85169,0.009 -1.40235,-0.0625 -0.91476,-0.11785 -2.09326,-0.5145 -2.60937,-1.67579 -0.42968,-0.9668 -0.48161,-2.32356 -0.53711,-3.5996 -0.0555,-1.27544 -0.0371,-2.38086 -0.0371,-2.38086 0.007,-0.44342 0.37337,-0.79514 0.8164,-0.78907 0.44297,0.009 0.7969,0.37322 0.78907,0.81641 0,0 -0.0159,1.06565 0.0371,2.28516 0.0265,0.61007 0.0894,1.27861 0.16406,1.83789 0.0374,0.27964 0.0789,0.53148 0.11914,0.73437 0.0402,0.2029 0.0793,0.35801 0.11719,0.44336 0.10315,0.2321 0.27135,0.39336 0.49804,0.50781 0.2267,0.11446 0.51283,0.18124 0.84961,0.22461 0.40521,0.052 0.83305,0.0488 1.19532,0.0488 0.3706,0 0.46093,0 0.46093,0 h 0.0156 v -0.0156 c 0,0 0,-0.0428 0,-0.15625 v -0.002 -0.002 c 0.007,-1.316 0,-5.91992 0,-5.91992 1.5e-4,-0.22597 0.0947,-0.44153 0.26172,-0.59375 0.0168,-0.0157 0.0346,-0.0307 0.0527,-0.0449 3e-4,-1.3e-4 0.001,3.2e-4 0.002,0 v -0.002 c 5.9e-4,-3.1e-4 0.002,7e-5 0.002,0 h 0.002 c 0.0185,-0.0142 0.0369,-0.0285 0.0566,-0.041 3e-4,-1.3e-4 0.001,3.2e-4 0.002,0 v -0.002 c 5.9e-4,-3e-4 0.002,7e-5 0.002,0 0.0414,-0.0256 0.0856,-0.0467 0.13086,-0.0645 v -0.002 c 8.3e-4,-1.6e-4 0.001,1.7e-4 0.002,0 9.8e-4,-2.2e-4 0.001,-0.002 0.002,-0.002 0.005,-0.001 0.009,-0.001 0.0117,-0.002 h 0.002 0.002 c 0.0417,-0.0157 0.0831,-0.0283 0.12695,-0.0371 0.0474,-0.009 0.0965,-0.0135 0.14453,-0.0137 z"
               id="path4741-0-3-1-0-3-7-5-65-0-0" />
          </g>
        </g>
        <g
           id="g2680-8-0-4-2-7-7-0-4-3-4-76-3-3"
           transform="matrix(21.732242,0,0,-21.732242,5217.6125,-1340.3686)"
           style="font-size:50.8px;line-height:1.25;font-family:sans-serif;text-align:end;text-anchor:end;fill:#a3c208;fill-opacity:1;stroke:#000000;stroke-width:0;stroke-miterlimit:4;stroke-dasharray:none;stroke-opacity:1">
          <g
             id="path841-5-8-7-3-5-4-3-4-9-2-3-7-9-9-2-2-2"
             style="opacity:1;fill:#a3c208;fill-opacity:1">
            <path
               style="color:#000000;font-style:normal;font-variant:normal;font-weight:normal;font-stretch:normal;font-size:medium;line-height:normal;font-family:sans-serif;font-variant-ligatures:normal;font-variant-position:normal;font-variant-caps:normal;font-variant-numeric:normal;font-variant-alternates:normal;font-variant-east-asian:normal;font-feature-settings:normal;font-variation-settings:normal;text-indent:0;text-align:start;text-decoration:none;text-decoration-line:none;text-decoration-style:solid;text-decoration-color:#000000;letter-spacing:normal;word-spacing:normal;text-transform:none;writing-mode:lr-tb;direction:ltr;text-orientation:mixed;dominant-baseline:auto;baseline-shift:baseline;text-anchor:start;white-space:normal;shape-padding:0;shape-margin:0;inline-size:0;clip-rule:nonzero;display:inline;overflow:visible;visibility:visible;isolation:auto;mix-blend-mode:normal;color-interpolation:sRGB;color-interpolation-filters:linearRGB;solid-color:#000000;solid-opacity:1;vector-effect:none;fill:#a3c208;fill-opacity:1;fill-rule:nonzero;stroke:none;stroke-width:0;stroke-linecap:round;stroke-linejoin:round;stroke-miterlimit:4;stroke-dasharray:none;stroke-dashoffset:0;stroke-opacity:1;color-rendering:auto;image-rendering:auto;shape-rendering:auto;text-rendering:auto;enable-background:accumulate;stop-color:#000000;stop-opacity:1"
               d="m 173.17773,265.77344 c -0.45312,-1.8e-4 -0.82049,0.36719 -0.82031,0.82031 v 9.47266 c 7.7e-4,0.20673 0.0796,0.40555 0.2207,0.55664 0.0505,0.0551 0.10835,0.10311 0.17188,0.14257 0.001,6.6e-4 0.003,10e-4 0.004,0.002 0.0434,0.0263 0.0892,0.0485 0.13671,0.0664 0.0224,0.009 0.0452,0.0166 0.0684,0.0234 h 0.004 c 0.0232,0.007 0.0466,0.0128 0.0703,0.0176 h 0.004 c 0.0239,0.004 0.048,0.008 0.0723,0.01 0.0241,0.002 0.0482,0.002 0.0723,0.002 0.0932,2e-5 0.18562,-0.0158 0.27344,-0.0469 0.007,-0.002 0.0144,-0.005 0.0215,-0.008 0.001,-6.5e-4 0.003,-10e-4 0.004,-0.002 0.0219,-0.009 0.0434,-0.0186 0.0644,-0.0293 10e-4,-6.5e-4 0.003,-10e-4 0.004,-0.002 0.0213,-0.0108 0.0422,-0.0225 0.0625,-0.0352 0.001,-6.5e-4 0.003,-10e-4 0.004,-0.002 0.0201,-0.0128 0.0397,-0.0265 0.0586,-0.041 0.001,-6.5e-4 0.003,-10e-4 0.004,-0.002 0.0189,-0.0148 0.0372,-0.0304 0.0547,-0.0469 0.001,-6.5e-4 0.003,-10e-4 0.004,-0.002 0.0177,-0.0168 0.0346,-0.0344 0.0508,-0.0527 0.0683,-0.0754 0.12191,-0.16281 0.1582,-0.25781 0.0366,-0.0934 0.0558,-0.19267 0.0566,-0.29297 0,0 -0.007,-4.60419 0,-5.91993 v -0.004 c 0,-0.11339 2e-5,-0.15627 2e-5,-0.15627 0,0 0.0884,3e-5 0.45895,3e-5 0.48224,0 1.08939,4.1e-4 1.58008,0.11914 0.49068,0.11872 0.78447,0.288 0.94726,0.6543 0.14679,0.33027 0.34739,1.79079 0.40039,3.00976 0.053,1.21897 0.0352,2.2832 0.0352,2.2832 -0.008,0.45315 0.35349,0.82668 0.80664,0.83399 0.45239,0.007 0.82472,-0.35426 0.83203,-0.80664 0,0 0.0203,-1.10488 -0.0352,-2.38086 -0.0555,-1.27599 -0.10926,-2.63403 -0.54101,-3.60547 -0.41575,-0.93546 -1.29085,-1.39627 -2.0586,-1.58203 -0.76774,-0.18576 -1.50891,-0.16602 -1.96679,-0.16602 -0.14275,0 -0.46289,2e-5 -0.46289,2e-5 v -1.75197 c 1.8e-4,-0.45312 -0.3672,-0.8205 -0.82032,-0.82031 z"
               id="path4745-8-0-3-9-9-8-0-7-6-6" />
            <path
               style="color:#000000;font-style:normal;font-variant:normal;font-weight:normal;font-stretch:normal;font-size:medium;line-height:normal;font-family:sans-serif;font-variant-ligatures:normal;font-variant-position:normal;font-variant-caps:normal;font-variant-numeric:normal;font-variant-alternates:normal;font-variant-east-asian:normal;font-feature-settings:normal;font-variation-settings:normal;text-indent:0;text-align:start;text-decoration:none;text-decoration-line:none;text-decoration-style:solid;text-decoration-color:#000000;letter-spacing:normal;word-spacing:normal;text-transform:none;writing-mode:lr-tb;direction:ltr;text-orientation:mixed;dominant-baseline:auto;baseline-shift:baseline;text-anchor:start;white-space:normal;shape-padding:0;shape-margin:0;inline-size:0;clip-rule:nonzero;display:inline;overflow:visible;visibility:visible;isolation:auto;mix-blend-mode:normal;color-interpolation:sRGB;color-interpolation-filters:linearRGB;solid-color:#000000;solid-opacity:1;vector-effect:none;fill:#a3c208;fill-opacity:1;fill-rule:nonzero;stroke:none;stroke-linecap:round;stroke-linejoin:round;stroke-miterlimit:4;stroke-dasharray:none;stroke-dashoffset:0;stroke-opacity:1;color-rendering:auto;image-rendering:auto;shape-rendering:auto;text-rendering:auto;enable-background:accumulate;stop-color:#000000;stop-opacity:1"
               d="m 173.17773,265.75781 c -0.46177,-1.8e-4 -0.83612,0.37417 -0.83593,0.83594 v 9.47266 c 7.8e-4,0.21076 0.0808,0.41432 0.22461,0.56836 0.0511,0.0558 0.10956,0.10445 0.17382,0.14453 2.5e-4,1.6e-4 0.003,0.002 0.004,0.002 a 0.0160016,0.0160016 0 0 0 0.002,0 c 0.0443,0.0268 0.0903,0.0501 0.13868,0.0684 0.023,0.009 0.0467,0.0165 0.0703,0.0234 a 0.0160016,0.0160016 0 0 0 0.004,0 c 0.0237,0.007 0.0462,0.0127 0.0703,0.0176 a 0.0160016,0.0160016 0 0 0 0.004,0 h 0.004 c 0.0233,0.004 0.0458,0.008 0.0703,0.01 0.025,0.002 0.0501,0.002 0.0742,0.002 0.0944,2e-5 0.18835,-0.0156 0.27734,-0.0469 0.008,-0.002 0.0162,-0.005 0.0234,-0.008 a 0.0160016,0.0160016 0 0 0 0.002,-0.002 c 0,0 0.002,0 0.002,0 l 0.004,-0.002 c 0.001,-8.1e-4 0.002,-0.002 0.002,-0.002 0.02,-0.008 0.0411,-0.0174 0.0605,-0.0273 a 0.0160016,0.0160016 0 0 0 0.002,0 c 5.8e-4,-2.6e-4 0.002,9e-5 0.002,0 9e-5,-4e-5 -4.3e-4,-0.002 0,-0.002 l 0.004,-0.002 c 0.0198,-0.0102 0.0395,-0.0213 0.0586,-0.0332 0,0 0.002,0 0.002,0 5.8e-4,-2.6e-4 0.002,10e-5 0.002,0 1.7e-4,-9e-5 8.5e-4,-0.001 0.002,-0.002 l 0.002,-0.002 c 0.0189,-0.0121 0.0368,-0.0254 0.0547,-0.0391 2.5e-4,-10e-5 0.001,2e-4 0.002,0 v -0.002 c 4.4e-4,-2e-4 0.002,8e-5 0.002,0 2e-4,-1.1e-4 6.9e-4,-10e-4 0.002,-0.002 0.0181,-0.0142 0.0358,-0.0291 0.0527,-0.0449 6.3e-4,-2.5e-4 0.004,-0.002 0.004,-0.002 3.4e-4,-1.8e-4 0.004,-0.002 0.004,-0.002 0.0181,-0.0171 0.0362,-0.0361 0.0527,-0.0547 0.0696,-0.0769 0.12316,-0.16486 0.16016,-0.26172 0.0373,-0.0952 0.0578,-0.19657 0.0586,-0.29882 0,0 -0.007,-4.60444 0,-5.91993 v -0.004 c 0,-0.10205 0,-0.13266 0,-0.14063 0.007,10e-6 0.085,0 0.44141,0 0.48223,0 1.0884,10e-4 1.57617,0.11914 0.48872,0.11825 0.77687,0.28309 0.9375,0.64453 0.0355,0.0798 0.075,0.23361 0.11523,0.43555 0.0402,0.20194 0.0816,0.45328 0.11914,0.73242 0.0751,0.55829 0.13759,1.22705 0.16407,1.83594 0.053,1.21841 0.0351,2.2832 0.0351,2.2832 -0.008,0.46181 0.36047,0.84216 0.82227,0.84961 0.46104,0.007 0.84216,-0.36124 0.84961,-0.82226 0,0 0.0204,-1.10431 -0.0352,-2.38086 -0.0555,-1.27595 -0.10917,-2.63528 -0.54297,-3.61133 -0.41834,-0.94129 -1.29938,-1.40527 -2.07031,-1.5918 -0.77028,-0.18637 -1.51328,-0.16601 -1.9707,-0.16601 -0.13733,0 -0.42261,0 -0.44532,0 v -1.73633 c 1.9e-4,-0.46177 -0.37611,-0.83613 -0.83789,-0.83594 z m 0,0.0312 c 0.44447,-1.8e-4 0.80487,0.36022 0.80469,0.80469 v 1.75195 a 0.0160016,0.0160016 0 0 0 0.0156,0.0156 c 0,0 0.32014,0 0.46289,0 0.45834,0 1.19769,-0.0191 1.96289,0.16601 0.76457,0.18499 1.63567,0.64264 2.04883,1.57227 0.4297,0.96683 0.48356,2.32357 0.53906,3.59961 0.0555,1.27541 0.0352,2.38086 0.0352,2.38086 -0.007,0.44374 -0.37072,0.79788 -0.81446,0.79101 -0.4445,-0.007 -0.79886,-0.37387 -0.79101,-0.81836 0,0 0.0179,-1.06367 -0.0352,-2.2832 -0.0265,-0.61008 -0.0908,-1.28056 -0.16602,-1.83984 -0.0376,-0.27964 -0.0788,-0.53149 -0.11914,-0.73438 -0.0404,-0.20289 -0.0793,-0.35607 -0.11718,-0.4414 -0.16495,-0.37116 -0.46635,-0.54487 -0.95899,-0.66407 -0.49361,-0.11943 -1.10173,-0.11914 -1.58398,-0.11914 -0.37055,0 -0.45899,0 -0.45899,0 a 0.0160016,0.0160016 0 0 0 -0.0156,0.0156 c 0,0 0,0.0429 0,0.15625 v 0.004 c -0.007,1.316 0,5.91993 0,5.91993 -7.9e-4,0.0983 -0.0188,0.19552 -0.0547,0.28711 -0.0356,0.0931 -0.0893,0.17802 -0.15625,0.25195 -0.0153,0.0173 -0.0303,0.0349 -0.0469,0.0508 -7.6e-4,3.1e-4 -0.004,0.002 -0.004,0.002 a 0.0160016,0.0160016 0 0 0 -0.002,0.002 c -0.0171,0.0161 -0.0361,0.0304 -0.0547,0.0449 a 0.0160016,0.0160016 0 0 0 0,0.002 c -5.8e-4,3.1e-4 -0.002,-6e-5 -0.002,0 a 0.0160016,0.0160016 0 0 0 -0.002,0 c -0.0185,0.0142 -0.0369,0.0285 -0.0566,0.041 -7.5e-4,3e-4 -0.004,0.002 -0.004,0.002 -0.0199,0.0124 -0.0396,0.0245 -0.0606,0.0352 a 0.0160016,0.0160016 0 0 0 -0.002,0 c -7.6e-4,3e-4 -0.004,0.002 -0.004,0.002 -0.02,0.0101 -0.0415,0.0187 -0.0625,0.0273 a 0.0160016,0.0160016 0 0 0 -0.004,0.002 c -0.007,0.003 -0.0137,0.006 -0.0195,0.008 a 0.0160016,0.0160016 0 0 0 -0.002,0 c -0.0861,0.0305 -0.17619,0.0469 -0.26758,0.0469 -0.0241,0 -0.0471,-2e-5 -0.0703,-0.002 -0.0234,-0.002 -0.0464,-0.006 -0.0703,-0.01 a 0.0160016,0.0160016 0 0 0 -0.004,0 h -0.004 c -0.022,-0.005 -0.0449,-0.0111 -0.0664,-0.0176 a 0.0160016,0.0160016 0 0 0 -0.004,0 c -0.0228,-0.007 -0.0446,-0.0147 -0.0664,-0.0234 -0.0466,-0.0176 -0.0922,-0.0387 -0.13476,-0.0644 -8.1e-4,-5.9e-4 -0.002,-0.002 -0.002,-0.002 0,0 -0.002,0 -0.002,0 -0.0623,-0.0387 -0.11845,-0.0866 -0.16797,-0.14062 -0.13835,-0.14815 -0.21604,-0.34222 -0.21679,-0.54492 v -9.47266 c -1.8e-4,-0.44447 0.36022,-0.80486 0.80468,-0.80469 z"
               id="path4747-3-2-6-5-8-4-2-0-9-9" />
          </g>
        </g>
        <path
           id="path1025-8-9-7-9-3-5-3-0-0-0-3-4-4"
           style="color:#000000;font-style:normal;font-variant:normal;font-weight:normal;font-stretch:normal;font-size:50.8px;line-height:1.25;font-family:sans-serif;font-variant-ligatures:normal;font-variant-position:normal;font-variant-caps:normal;font-variant-numeric:normal;font-variant-alternates:normal;font-variant-east-asian:normal;font-feature-settings:normal;font-variation-settings:normal;text-indent:0;text-align:end;text-decoration:none;text-decoration-line:none;text-decoration-style:solid;text-decoration-color:#000000;letter-spacing:normal;word-spacing:normal;text-transform:none;writing-mode:lr-tb;direction:ltr;text-orientation:mixed;dominant-baseline:auto;baseline-shift:baseline;text-anchor:end;white-space:normal;shape-padding:0;shape-margin:0;inline-size:0;clip-rule:nonzero;display:inline;overflow:visible;visibility:visible;isolation:auto;mix-blend-mode:normal;color-interpolation:sRGB;color-interpolation-filters:linearRGB;solid-color:#000000;solid-opacity:1;vector-effect:none;fill:#a3c208;fill-opacity:1;fill-rule:nonzero;stroke:none;stroke-width:0.426371;stroke-linecap:round;stroke-linejoin:miter;stroke-miterlimit:4;stroke-dasharray:none;stroke-dashoffset:0;stroke-opacity:1;color-rendering:auto;image-rendering:auto;shape-rendering:auto;text-rendering:auto;enable-background:accumulate;stop-color:#000000"
           d="m 9442.4429,-7116.554 c -10.4692,0.317 -19.1268,-9.8509 -17.821,-20.1106 0.06,-68.4628 -0.122,-136.933 0.091,-205.3912 0.73,-11.3841 13.8939,-19.3585 24.3235,-14.7583 8.2378,3.0165 12.3222,12.2091 11.2277,20.5629 -0.06,67.8903 0.1218,135.7887 -0.091,203.6742 -0.7472,8.8964 -8.7988,16.1762 -17.73,16.023 z m -51.7658,-49.356 c -26.0462,0.8663 -55.0482,-7.0752 -70.322,-29.7538 -15.0256,-23.0555 -13.5863,-51.9539 -13.4429,-78.3228 0.5181,-23.2746 4.5075,-49.3019 23.1981,-65.3204 21.4068,-18.5532 52.2692,-21.5428 79.1687,-16.6159 15.7881,3.3217 31.6987,8.514 45.0279,17.8 8.9265,7.3793 7.4337,23.0226 -2.7174,28.5877 -6.8515,4.4028 -15.6176,2.4673 -21.9489,-1.9181 -22.6522,-10.8321 -51.0325,-16.0165 -74.0403,-3.372 -10.8706,8.111 -11.3748,23.2409 -12.6673,35.6253 -0.6866,19.8435 -1.8163,40.5026 4.711,59.5598 4.2573,12.9237 19.2854,16.0653 31.146,17.5838 20.2657,1.9869 40.2681,-4.6149 57.9758,-13.9314 10.8298,-4.1014 23.6845,4.9377 23.4926,16.5149 0.4512,8.7936 -6.5463,15.8676 -14.3037,18.8284 -17.0968,8.7184 -36.0585,14.0599 -55.2776,14.7345 z" />
        <path
           style="color:#000000;font-style:normal;font-variant:normal;font-weight:normal;font-stretch:normal;font-size:50.8px;line-height:1.25;font-family:sans-serif;font-variant-ligatures:normal;font-variant-position:normal;font-variant-caps:normal;font-variant-numeric:normal;font-variant-alternates:normal;font-variant-east-asian:normal;font-feature-settings:normal;font-variation-settings:normal;text-indent:0;text-align:end;text-decoration:none;text-decoration-line:none;text-decoration-style:solid;text-decoration-color:#000000;letter-spacing:normal;word-spacing:normal;text-transform:none;writing-mode:lr-tb;direction:ltr;text-orientation:mixed;dominant-baseline:auto;baseline-shift:baseline;text-anchor:end;white-space:normal;shape-padding:0;shape-margin:0;inline-size:0;clip-rule:nonzero;display:inline;overflow:visible;visibility:visible;isolation:auto;mix-blend-mode:normal;color-interpolation:sRGB;color-interpolation-filters:linearRGB;solid-color:#000000;solid-opacity:1;vector-effect:none;fill:#a3c208;fill-opacity:1;fill-rule:nonzero;stroke:none;stroke-width:0.426371;stroke-linecap:round;stroke-linejoin:miter;stroke-miterlimit:4;stroke-dasharray:none;stroke-dashoffset:0;stroke-opacity:1;color-rendering:auto;image-rendering:auto;shape-rendering:auto;text-rendering:auto;enable-background:accumulate;stop-color:#000000"
           d="m 8385.1633,-7165.949 c -28.6671,4e-4 -51.6022,-9.4502 -63.0479,-28.411 -11.3618,-18.8204 -11.9982,-40.8821 -12.0072,-67.0951 a 17.819904,17.819904 0 0 1 -0.011,-0.562 17.819904,17.819904 0 0 1 0.01,-0.4495 c 0.01,-26.2646 0.6317,-48.3595 12.0105,-67.2081 11.4464,-18.9606 34.3812,-28.4113 63.0475,-28.4111 28.667,-5e-4 51.6043,9.4508 63.0493,28.4109 a 17.819904,17.819904 0 0 1 -6.0457,24.4674 17.819904,17.819904 0 0 1 -24.4633,-6.046 c -4.3951,-7.2815 -10.0821,-11.1908 -32.5399,-11.1909 -22.4577,0 -28.142,3.9097 -32.5371,11.1904 -3.2517,5.3863 -5.4433,16.0952 -6.3734,31.4158 l 93.6235,-3e-4 c 6.1657,-3e-4 12.2646,3.9307 14.8753,7.1523 2.6107,3.2216 3.362,5.6785 3.9466,7.649 1.1693,3.9411 1.2563,6.5667 1.3737,9.207 0.2342,5.2816 -0.1099,10.2294 -0.2261,12.7804 v 0.016 l 7e-4,0.015 c -0.2861,6.0595 -0.7587,11.8603 -1.5456,17.453 -0.788,5.5929 -1.8882,10.984 -3.4947,16.1996 -1.6065,5.2157 -3.7312,10.2682 -6.5926,15.0081 -11.4447,18.9609 -34.3823,28.4116 -63.0493,28.4121 z m -5e-4,-35.6416 c 22.4577,0 28.145,-3.9095 32.5408,-11.1909 1.0987,-1.8202 2.1339,-4.1324 3.0416,-7.0798 0.9078,-2.9474 1.6774,-6.5166 2.2626,-10.6747 0.5645,-4.0105 0.9439,-8.6219 1.1941,-13.6636 l -77.9488,-2e-4 c 0.9295,15.3191 3.1213,26.0301 6.3727,31.4155 4.3953,7.2817 10.0791,11.1907 32.5368,11.1908 z"
           id="path4507-7-52-9-5-1-7-6-3-99-1-1" />
        <path
           style="color:#000000;font-style:normal;font-variant:normal;font-weight:normal;font-stretch:normal;font-size:50.8px;line-height:1.25;font-family:sans-serif;font-variant-ligatures:normal;font-variant-position:normal;font-variant-caps:normal;font-variant-numeric:normal;font-variant-alternates:normal;font-variant-east-asian:normal;font-feature-settings:normal;font-variation-settings:normal;text-indent:0;text-align:end;text-decoration:none;text-decoration-line:none;text-decoration-style:solid;text-decoration-color:#000000;letter-spacing:normal;word-spacing:normal;text-transform:none;writing-mode:lr-tb;direction:ltr;text-orientation:mixed;dominant-baseline:auto;baseline-shift:baseline;text-anchor:end;white-space:normal;shape-padding:0;shape-margin:0;inline-size:0;clip-rule:nonzero;display:inline;overflow:visible;visibility:visible;isolation:auto;mix-blend-mode:normal;color-interpolation:sRGB;color-interpolation-filters:linearRGB;solid-color:#000000;solid-opacity:1;vector-effect:none;fill:#a3c208;fill-opacity:1;fill-rule:nonzero;stroke:none;stroke-width:0.426371;stroke-linecap:round;stroke-linejoin:round;stroke-miterlimit:4;stroke-dasharray:none;stroke-dashoffset:0;stroke-opacity:1;color-rendering:auto;image-rendering:auto;shape-rendering:auto;text-rendering:auto;enable-background:accumulate;stop-color:#000000"
           d="m 8503.2599,-7165.2859 a 17.819986,17.819986 0 0 1 -0.9746,-0.031 17.819986,17.819986 0 0 1 -16.6834,-18.8896 c 0,0 1.357,-21.9647 5.1065,-48.6958 3.7495,-26.7311 9.19,-57.8579 20.6053,-80.7429 3.2131,-6.4417 7.3201,-15.9155 13.8361,-24.9572 6.5167,-9.0425 17.563,-19.4837 33.2449,-19.4841 15.6813,6e-4 26.7273,10.4412 33.244,19.4837 6.5166,9.0424 10.6231,18.5159 13.8362,24.9576 11.4156,22.8849 16.8557,54.0114 20.6057,80.7423 3.7493,26.7317 5.1061,48.6964 5.1061,48.6964 a 17.819986,17.819986 0 0 1 -16.6836,18.8895 17.819986,17.819986 0 0 1 -18.8858,-16.6839 c 0,0 -1.2888,-20.703 -4.8301,-45.9526 -3.5417,-25.2484 -10.0382,-55.4174 -17.2054,-69.7843 -3.7092,-7.4372 -7.415,-15.2513 -10.8572,-20.0271 -3.4414,-4.7763 -4.5028,-4.6823 -4.3302,-4.6823 0.1726,10e-5 -0.8886,-0.094 -4.3305,4.6823 -3.4419,4.7761 -7.1479,12.5903 -10.8569,20.0267 -7.1667,14.3675 -13.6602,44.5362 -17.202,69.7849 -3.5417,25.2489 -4.8302,45.9527 -4.8302,45.9527 a 17.819986,17.819986 0 0 1 -17.9151,16.7148 z"
           id="path841-5-1-2-3-7-2-2-7-8-1-5-3-8-9-3-3" />
      </g>
      <g
         id="g5020">
        <path
           id="path3058"
           style="color:#000000;font-style:normal;font-variant:normal;font-weight:normal;font-stretch:normal;font-size:medium;line-height:normal;font-family:sans-serif;font-variant-ligatures:normal;font-variant-position:normal;font-variant-caps:normal;font-variant-numeric:normal;font-variant-alternates:normal;font-variant-east-asian:normal;font-feature-settings:normal;font-variation-settings:normal;text-indent:0;text-align:start;text-decoration:none;text-decoration-line:none;text-decoration-style:solid;text-decoration-color:#000000;letter-spacing:normal;word-spacing:normal;text-transform:none;writing-mode:lr-tb;direction:ltr;text-orientation:mixed;dominant-baseline:auto;baseline-shift:baseline;text-anchor:start;white-space:normal;shape-padding:0;shape-margin:0;inline-size:0;clip-rule:nonzero;display:inline;overflow:visible;visibility:visible;isolation:auto;mix-blend-mode:normal;color-interpolation:sRGB;color-interpolation-filters:linearRGB;solid-color:#000000;solid-opacity:1;vector-effect:none;fill:#a3c208;fill-opacity:1;fill-rule:evenodd;stroke:none;stroke-width:12.2168;stroke-linecap:round;stroke-linejoin:round;stroke-miterlimit:10;stroke-dasharray:none;stroke-dashoffset:0;stroke-opacity:1;color-rendering:auto;image-rendering:auto;shape-rendering:auto;text-rendering:auto;enable-background:accumulate;stop-color:#000000"
           d="m 7998.0767,-7024.325 c -40.806,-1e-4 -81.6112,-15.5683 -112.7452,-46.7021 -62.2673,-62.2677 -62.2688,-163.2226 0,-225.4906 62.268,-62.268 163.2247,-62.268 225.4927,0 62.268,62.268 62.2673,163.2242 0,225.492 -31.134,31.1338 -71.9407,46.7009 -112.746,46.7007 z m -17.6445,-74.7553 c 30.1343,-3e-4 58.2368,-16.2159 73.3418,-42.3194 l -36.6518,-21.2092 c -7.5592,13.065 -21.6202,21.183 -36.69,21.1828 -23.3497,2e-4 -42.3457,-18.9958 -42.3457,-42.3456 0,-23.3497 18.996,-42.3457 42.3457,-42.3457 15.0713,0 29.1323,8.1165 36.693,21.1845 l 36.6518,-21.2078 c -15.105,-26.1052 -43.209,-42.3225 -73.3448,-42.3225 -46.6987,0 -84.6907,37.992 -84.6915,84.6915 0,46.6988 37.9928,84.6913 84.6915,84.6914 z m 65.871,-70.5764 h 9.4103 v -9.4087 h 9.4102 v -9.4103 h -9.4102 v -9.411 h -9.4103 v 9.4095 h -9.4117 v 9.4103 h 9.4102 z m 35.2898,0 h 9.4087 v -9.4102 h 9.4103 v -9.4103 h -9.4103 v -9.4095 h -9.4087 v 9.4095 h -9.4103 v 9.4103 h 9.4118 z" />
        <path
           style="color:#000000;font-style:normal;font-variant:normal;font-weight:normal;font-stretch:normal;font-size:medium;line-height:normal;font-family:sans-serif;font-variant-ligatures:normal;font-variant-position:normal;font-variant-caps:normal;font-variant-numeric:normal;font-variant-alternates:normal;font-variant-east-asian:normal;font-feature-settings:normal;font-variation-settings:normal;text-indent:0;text-align:start;text-decoration:none;text-decoration-line:none;text-decoration-style:solid;text-decoration-color:#000000;letter-spacing:normal;word-spacing:normal;text-transform:none;writing-mode:lr-tb;direction:ltr;text-orientation:mixed;dominant-baseline:auto;baseline-shift:baseline;text-anchor:start;white-space:normal;shape-padding:0;shape-margin:0;inline-size:0;clip-rule:nonzero;display:inline;overflow:visible;visibility:visible;isolation:auto;mix-blend-mode:normal;color-interpolation:sRGB;color-interpolation-filters:linearRGB;solid-color:#000000;solid-opacity:1;vector-effect:none;fill:#a3c208;fill-opacity:1;fill-rule:evenodd;stroke:none;stroke-linecap:round;stroke-linejoin:round;stroke-miterlimit:10;stroke-dasharray:none;stroke-dashoffset:0;stroke-opacity:1;color-rendering:auto;image-rendering:auto;shape-rendering:auto;text-rendering:auto;enable-background:accumulate;stop-color:#000000"
           d="m 8115.1417,-7066.7067 c -64.6024,64.6016 -169.528,64.6021 -234.1299,2e-4 -64.602,-64.602 -64.6028,-169.5289 0,-234.1313 64.602,-64.602 169.5298,-64.6018 234.132,4e-4 64.6023,64.6023 64.6011,169.5287 -9e-4,234.1307 z m -8.6386,-8.6386 c 59.933,-59.933 59.9344,-156.9197 8e-4,-216.8533 -59.9336,-59.9336 -156.9218,-59.9336 -216.8547,-6e-4 -59.9333,59.934 -59.932,156.9206 0,216.854 59.9333,59.9333 156.9186,59.9332 216.8526,-1e-4 z"
           id="path3060" />
        <path
           id="path8657-0-05-0-2-3-4-61-2-2-8-8"
           style="fill:#259bd2;fill-opacity:1;fill-rule:evenodd;stroke:#259bd2;stroke-width:1.33498;stroke-linecap:round;stroke-linejoin:round;stroke-miterlimit:10;stroke-dasharray:none;stroke-opacity:1"
           d="m 8198.7432,-7244.2893 -0.042,0.043 -1.6405,-2.3603 -1.6412,-6.7437 -1.6426,-5.584 -1.6406,-0.621 -1.6408,-2.9277 -3.2842,-13.5995 -1.6384,-1.5394 -1.6408,0.1397 -1.6407,-3.0719 -1.6429,-6.8203 -1.6409,-4.9545 -1.6405,1.6334 -1.6408,2.4662 -1.6431,4.5129 -1.6404,7.2239 -3.2814,17.2699 -8.2081,47.768 -3.2818,18.0755 -1.6401,7.3925 -1.6411,4.5815 -1.6428,-0.036 -1.6411,-6.7464 -1.6404,-15.122 -3.2835,-48.1551 -1.6409,-13.5868 -1.6406,-7.6481 -1.6407,-10.8939 -3.2841,-29.3171 -3.2814,-22.7522 -1.643,-7.2036 -1.6402,-3.9936 -1.6413,-3.5307 -1.6405,-2.1001 -1.6429,-2.9609 -1.6406,-5.6061 -1.6412,-7.0872 -1.6401,-4.6072 -1.6436,-1.317 -1.6401,-0.3008 -1.6413,1.149 -1.6404,2.1426 -3.2836,5.0985 -3.2819,5.8893 -3.2837,6.7416 -3.281,7.5971 -4.925,12.5604 -3.281,8.1754 -1.6434,3.4734 -1.6404,2.5895 -1.641,1.1662 -1.6404,-1.0451 -1.6427,-3.8446 -3.2816,-10.8406 -1.6403,-9.6575 -1.6435,-13.0646 -3.2813,-24.8721 -1.6409,-9.4375 -1.643,-2.4915 -1.6403,-0.028 -3.2816,0.7476 -1.6408,-0.071 -1.643,-0.5329 -1.6408,-0.7215 -3.2817,-1.62 -1.6428,-1.4265 -1.6403,-2.1636 -1.6437,-1.6578 -1.6411,-0.1787 -3.2833,0.1787 -13.1305,3.1174 -3.2813,0.5327 -1.6435,0.028 -1.6406,-0.2575 -1.6403,-0.533 -1.6407,-0.3382 -3.2837,0.061 -1.6406,-0.2122 -1.6411,-0.3782 -1.6402,-0.032 -6.5656,1.3456 -3.2834,0.535 -3.2816,0.2326 -3.2839,0.9589 -4.9245,1.8452 -4.9219,2.2766 -3.2838,1.7973 -4.9222,3.1701 -8.2084,6.2476 -4.9221,3.5815 -1.6426,0.9031 -1.6412,0.4801 -1.6408,0.093 -3.2834,1.1105 -3.2814,0.5072 -1.6407,0.7395 -1.6434,1.5753 -1.6402,2.034 -6.5651,9.2938 -3.2818,4.3974 -1.6404,1.7084 -1.6433,1.3379 -1.6409,1.6939 -1.6403,2.7282 -1.6404,3.5412 -4.9243,11.6206 -3.2841,7.4413 -1.6408,3.1124 -1.6404,2.2713 -1.6409,0.9344 -1.6434,-0.7595 -1.6367,-1.7357 -1.6406,-2.3803 -1.6407,-3.0817 -1.6438,-1.1984 -1.6403,2.8088 -1.6407,4.811 -3.2835,10.6564 -4.9224,16.3389 -1.6403,4.7095 -1.6432,3.9981 -1.6407,2.527 -1.6406,0.1257 -1.6409,-3.3393 -4.9243,-20.9629 -3.2839,-18.8346 -1.6405,-7.4233 -1.641,-5.2472 -1.6404,-2.5625 -1.6423,-1.515 -1.641,0.3333 -1.6406,0.9389 -1.6407,-0.1515 -1.6445,-1.5031 -1.6405,-2.2316 -1.6408,-2.645 -1.6409,-1.6833 -1.6429,1.3326 -4.9218,8.3973 -3.284,7.1685 -3.2813,8.6956 -1.6405,5.2524 -3.2843,11.9369 -3.2814,13.5265 -3.2835,15.0687 -4.9247,24.5999 -3.2811,15.8815 -1.6405,6.7415 -1.6432,5.1847 -3.2813,7.0141 -1.6408,4.4729 -3.2842,14.0597 -1.6406,5.5705 -1.641,4.9549 -1.6397,7.554 -1.6434,10.7452 -3.2814,21.3867 -1.6404,7.9961 -1.6434,4.1195 -1.6409,-1.3779 -1.6407,-6.5424 -1.6403,-9.6348 -3.2839,-28.0327 -1.6405,-7.7286 -3.2839,-11.5528 -1.6412,-2.7457 -1.6402,-1.8453 -1.641,-3.6421 -1.643,-6.2095 -1.6407,-4.5936 -1.6425,-1.7273 -1.6406,-5.3713 -3.2839,-17.3455 -1.6408,-5.5327 -1.6432,-1.5725 -1.6402,3.253 -3.2837,9.3113 -1.6411,2.2268 -1.6402,-1.1665 -1.6434,-3.8693 -1.6409,-6.4691 -1.6402,-12.5452 -1.6409,-15.6189 -1.6432,-8.2561 -1.6409,2.0021 -1.6402,5.0222 -1.6405,5.7247 -1.6432,7.3172 -1.6411,8.7817 -3.2811,20.2656 -4.9245,34.3199 -3.2837,22.2499 -1.6413,9.4306 -1.64,7.0517 -1.6409,3.2085 -1.6432,-2.6855 -1.6405,-11.3109 -1.6409,-21.6916 -1.6404,-26.6776 -1.6408,-21.4823 -1.643,-12.6484 -3.2816,-12.7667 -1.6406,-9.5814 -3.2838,-30.4127 -1.641,-10.7146 -1.6405,-7.1559 -1.643,-5.3638 -1.6409,-3.0311 -1.6406,0.5147 -1.6407,0.2374 -1.6427,-1.3005 -1.6407,-2.683 -1.6412,-4.6817 -1.6402,-8.6024 -4.9247,-39.58 -0.3227,-1.1033 a 267.18137,267.18137 0 0 1 232.7179,-135.9294 267.18137,267.18137 0 0 1 267.1811,267.1811 267.18137,267.18137 0 0 1 -0.5903,17.7591 z" />
        <path
           id="path8657-7-3-2-3-0-9-4-4-3-8-8"
           style="fill:#003a80;fill-opacity:1;fill-rule:evenodd;stroke:#003a80;stroke-width:1.33498;stroke-linecap:round;stroke-linejoin:round;stroke-miterlimit:10;stroke-dasharray:none;stroke-opacity:1"
           d="m 8195.4791,-7307.2572 -1.5929,-0.7699 -1.6405,-3.1098 -3.2814,-14.0011 -1.6434,-1.7566 -1.6431,-0.093 -1.6404,-3.3219 -1.6412,-7.0845 -1.6403,-5.2352 -1.6429,1.3325 -1.6413,2.146 -1.6404,4.172 -1.6405,6.8604 -1.6436,7.8175 -9.846,53.9166 -3.2841,16.8232 -1.6404,6.7063 -1.6406,3.8465 -1.6408,-0.8149 -1.6432,-7.5772 -1.6406,-16.0005 -3.2811,-50.0704 -1.6412,-14.6166 -1.6427,-8.7237 -1.6409,-12.0042 -3.281,-31.5766 -3.284,-24.8621 -1.6409,-8.0642 -1.6406,-4.5992 -1.6432,-3.7433 -3.2802,-3.3933 -3.2845,-6.1327 -1.6405,-2.5244 -1.6401,-1.9668 -1.6408,-1.1911 -1.6435,0.1073 -1.6403,0.9661 -1.6407,1.1891 -3.2844,2.6836 -3.2807,3.1215 -3.2843,3.5746 -6.5628,8.0673 -3.2831,3.6592 -1.6407,1.2924 -1.6413,0.5988 -1.6431,-0.4948 -1.6404,-2.1481 -3.281,-8.2038 -1.6432,-2.6275 -3.2814,-7.4788 -3.2839,-5.0432 -1.641,-2.2081 -1.6407,-0.9944 -1.6403,-0.018 -3.2839,0.6108 -1.6405,-0.045 -3.2843,-0.9636 -3.2812,-1.2193 -1.6404,-1.0831 -1.6444,-1.6444 -1.6434,-1.2418 -1.6403,-0.097 -3.2814,0.2244 -13.1301,2.7968 -3.284,0.5047 -1.6406,0.055 -1.6404,-0.1795 -1.6435,-0.4089 -1.6406,-0.242 -3.2817,0.1365 -3.2835,-0.3942 -1.6407,0.025 -8.2062,1.6537 -4.9241,0.5574 -3.2812,0.9642 -4.9245,1.8426 -4.925,2.2719 -3.2805,1.7965 -4.9251,3.1656 -8.2055,6.2393 -4.9244,3.5793 -1.6405,0.9008 -1.641,0.4775 -1.6434,0.093 -3.2809,1.1074 -3.2842,0.503 -1.6408,0.7394 -1.6404,1.5726 -1.6409,2.0318 -6.5649,9.2885 -3.2841,4.3923 -1.6404,1.7084 -1.6405,1.3351 -1.6433,1.6913 -1.6405,2.728 -1.6409,3.5394 -4.9246,11.616 -3.2813,7.4385 -1.6406,3.1069 -1.643,2.2715 -1.6408,0.9317 -1.6407,-0.7625 -1.6378,-1.7368 -1.6432,-2.3828 -1.6406,-3.0845 -1.641,-1.2012 -1.6401,2.8062 -1.6431,4.8085 -3.2813,10.6516 -4.9246,16.331 -1.6409,4.7075 -1.6403,3.9953 -1.6433,2.5244 -1.6408,0.1242 -1.6407,-3.342 -4.9248,-20.9747 -3.2808,-18.8429 -1.6406,-7.4261 -1.6435,-5.2497 -1.6405,-2.5697 -1.6425,-1.5152 -1.6405,0.3281 -1.643,0.9365 -1.6405,-0.157 -1.6388,-1.5115 -1.6409,-2.2363 -1.6425,-2.6508 -1.6433,-1.6857 -1.6407,1.3277 -4.9247,8.3774 -3.2812,7.1557 -3.2836,8.6778 -1.6408,5.245 -3.2813,11.9187 -3.2837,13.5086 -3.2811,15.0486 -4.9246,24.5645 -3.2837,15.8563 -1.6411,6.7296 -1.6401,5.1666 -3.2842,6.9815 -1.6403,4.455 -3.2814,14.0215 -1.6437,5.5532 -1.6402,4.9317 -1.6408,7.5346 -1.6406,10.7196 -3.2838,21.3363 -1.6409,7.9686 -1.6403,4.0887 -1.6412,-1.4078 -1.6428,-6.5756 -1.6411,-9.6696 -3.2809,-28.1088 -1.6435,-7.7685 -3.2809,-11.6417 -1.6409,-2.7963 -1.6428,-1.896 -1.6411,-3.6973 -1.6405,-6.265 -1.6405,-4.6571 -1.6435,-1.7919 -1.6407,-5.4393 -3.2813,-17.497 -1.6428,-5.6139 -1.6378,-1.6661 -1.6411,3.163 -3.2836,9.1092 -1.6407,2.1154 -1.6409,-1.2845 -1.6403,-3.9936 -1.6434,-6.603 -1.6408,-12.6858 -1.6405,-15.7657 -1.6407,-8.4176 -1.6408,1.8325 -1.6433,4.8437 -1.6403,5.5326 -1.6408,7.1132 -1.6408,8.5641 -3.2833,19.7882 -4.925,33.4752 -3.2809,21.588 -1.6405,9.0665 -1.6432,6.6611 -1.6408,2.7942 -1.6404,-3.1324 -1.6408,-11.785 -1.6436,-22.1964 -1.6402,-27.2176 -1.641,-22.0552 -1.6409,-13.2615 -3.2834,-14.105 -1.6407,-10.3084 -3.281,-31.9626 -1.6432,-11.53 -1.6412,-7.9783 -1.6409,-6.1763 -1.6398,-3.812 -3.284,-0.5022 -1.6356,-1.6356 -1.6413,-2.6624 -1.6427,-4.1374 -0.018,-0.089 a 267.18137,267.18137 0 0 1 224.0986,-121.6964 267.18137,267.18137 0 0 1 263.3274,221.9715 z" />
        <path
           id="path2963-8-6-1-3-0-2-96-4-6-3-3"
           style="fill:none;fill-rule:evenodd;stroke:#a3c208;stroke-width:12.6519;stroke-linecap:round;stroke-linejoin:round;stroke-miterlimit:10;stroke-dasharray:none;stroke-opacity:1"
           d="m 8191.949,-7231.8629 c -0.4886,4.232 -1.0775,8.4317 -1.7639,12.5974 -1.3724,8.3305 -3.135,16.5226 -5.2679,24.5579 -4.2657,16.0707 -10.0123,31.5133 -17.0815,46.1805 -14.1395,29.3349 -33.5673,55.5649 -57.0127,77.5002 -46.8921,43.8722 -109.8541,70.5671 -178.7126,70.5666 -144.4658,0 -261.5776,-117.1143 -261.5786,-261.5786 1e-4,-22.5113 2.9052,-44.8315 8.5751,-66.4263 2.8354,-10.7976 6.3615,-21.4136 10.5607,-31.7808"
           sodipodi:nodetypes="cssssccsc" />
      </g>
    </g>
  </g>
</svg>
