<?xml version="1.0" encoding="UTF-8" standalone="no"?>
<svg
   xmlns:dc="http://purl.org/dc/elements/1.1/"
   xmlns:cc="http://creativecommons.org/ns#"
   xmlns:rdf="http://www.w3.org/1999/02/22-rdf-syntax-ns#"
   xmlns:svg="http://www.w3.org/2000/svg"
   xmlns="http://www.w3.org/2000/svg"
   xmlns:sodipodi="http://sodipodi.sourceforge.net/DTD/sodipodi-0.dtd"
   xmlns:inkscape="http://www.inkscape.org/namespaces/inkscape"
   width="199.01665mm"
   height="199.00511mm"
   viewBox="0 0 199.01665 199.00511"
   version="1.1"
   id="svg4349"
   inkscape:version="1.0.2 (e86c8708, 2021-01-15)"
   sodipodi:docname="evalhyd-r_logo.svg">
  <defs
     id="defs4343" />
  <sodipodi:namedview
     id="base"
     pagecolor="#ffffff"
     bordercolor="#666666"
     borderopacity="1.0"
     inkscape:pageopacity="0.0"
     inkscape:pageshadow="2"
     inkscape:zoom="0.35"
     inkscape:cx="384.666"
     inkscape:cy="573.21541"
     inkscape:document-units="mm"
     inkscape:current-layer="layer1"
     inkscape:document-rotation="0"
     showgrid="false"
     fit-margin-top="5"
     fit-margin-left="5"
     fit-margin-right="5"
     fit-margin-bottom="5"
     inkscape:window-width="1252"
     inkscape:window-height="943"
     inkscape:window-x="0"
     inkscape:window-y="25"
     inkscape:window-maximized="0" />
  <metadata
     id="metadata4346">
    <rdf:RDF>
      <cc:Work
         rdf:about="">
        <dc:format>image/svg+xml</dc:format>
        <dc:type
           rdf:resource="http://purl.org/dc/dcmitype/StillImage" />
        <dc:title></dc:title>
      </cc:Work>
    </rdf:RDF>
  </metadata>
  <g
     inkscape:label="Layer 1"
     inkscape:groupmode="layer"
     id="layer1"
     transform="translate(-4.0571215,3.4965785)">
    <g
       id="g4988"
       transform="matrix(0.35277777,0,0,-0.35277777,-2686.9167,-1963.0937)">
      <path
         id="path2820"
         style="color:#000000;font-style:normal;font-variant:normal;font-weight:normal;font-stretch:normal;font-size:medium;line-height:normal;font-family:sans-serif;font-variant-ligatures:normal;font-variant-position:normal;font-variant-caps:normal;font-variant-numeric:normal;font-variant-alternates:normal;font-variant-east-asian:normal;font-feature-settings:normal;font-variation-settings:normal;text-indent:0;text-align:start;text-decoration:none;text-decoration-line:none;text-decoration-style:solid;text-decoration-color:#000000;letter-spacing:normal;word-spacing:normal;text-transform:none;writing-mode:lr-tb;direction:ltr;text-orientation:mixed;dominant-baseline:auto;baseline-shift:baseline;text-anchor:start;white-space:normal;shape-padding:0;shape-margin:0;inline-size:0;clip-rule:nonzero;display:inline;overflow:visible;visibility:visible;isolation:auto;mix-blend-mode:normal;color-interpolation:sRGB;color-interpolation-filters:linearRGB;solid-color:#000000;solid-opacity:1;vector-effect:none;fill:#a3c208;fill-opacity:1;fill-rule:evenodd;stroke:none;stroke-width:12.2168;stroke-linecap:round;stroke-linejoin:round;stroke-miterlimit:10;stroke-dasharray:none;stroke-dashoffset:0;stroke-opacity:1;color-rendering:auto;image-rendering:auto;shape-rendering:auto;text-rendering:auto;enable-background:accumulate;stop-color:#000000"
         d="m 7976.0012,-5599.1272 c -40.806,0 -81.612,-15.5682 -112.746,-46.7022 -62.268,-62.2678 -62.268,-163.2228 0,-225.4907 62.268,-62.2679 163.224,-62.2679 225.492,0 62.268,62.268 62.268,163.2228 0,225.4907 -31.134,31.134 -71.94,46.7022 -112.746,46.7022 z m 0,-80.5386 c 56.5043,0 102.3353,-30.6839 102.3353,-68.5532 0,-19.3042 -11.9423,-36.7424 -31.1408,-49.2129 l 23.7435,-40.0532 h -39.4552 l -14.1255,26.562 c -7.68,-2.2895 -15.8888,-3.9457 -24.4485,-4.897 v -21.665 h -34.9103 v 21.8056 c -47.9445,5.6718 -84.3337,33.7131 -84.3337,67.4605 0,37.8693 45.831,68.5532 102.3352,68.5532 z m 15.6765,-26.8081 c -42.942,0 -77.7817,-20.9609 -77.7817,-46.853 0,-18.5999 18,-34.6634 44.1037,-42.2374 v 73.3785 h 70.1033 c 0,0 31.9155,-0.5643 31.9155,-30.9654 0,-30.4011 -30.5063,-32.6542 -30.5063,-32.6542 0,0 6.1988,-1.868 9.792,-3.7002 0.5993,-0.2817 1.4093,-0.7388 2.2545,-1.3023 15.4298,7.5386 24.765,19.832 24.765,37.481 0,32.5149 -31.704,46.853 -74.646,46.853 z m 17.7105,-40.5688 c -4.4265,0.045 -9.8325,-0.189 -16.1955,-0.189 v -19.5864 c 17.4728,0 30.9285,-2.8895 30.9285,9.9682 0,8.2585 -4.995,9.7083 -14.733,9.8072 z m -16.5135,-45.3164 v -7.7842 c 6.2003,0.035 12.1538,0.3517 17.826,1.021 -1.797,2.6421 -4.6507,6.7632 -8.4555,6.7632 z" />
      <path
         style="color:#000000;font-style:normal;font-variant:normal;font-weight:normal;font-stretch:normal;font-size:medium;line-height:normal;font-family:sans-serif;font-variant-ligatures:normal;font-variant-position:normal;font-variant-caps:normal;font-variant-numeric:normal;font-variant-alternates:normal;font-variant-east-asian:normal;font-feature-settings:normal;font-variation-settings:normal;text-indent:0;text-align:start;text-decoration:none;text-decoration-line:none;text-decoration-style:solid;text-decoration-color:#000000;letter-spacing:normal;word-spacing:normal;text-transform:none;writing-mode:lr-tb;direction:ltr;text-orientation:mixed;dominant-baseline:auto;baseline-shift:baseline;text-anchor:start;white-space:normal;shape-padding:0;shape-margin:0;inline-size:0;clip-rule:nonzero;display:inline;overflow:visible;visibility:visible;isolation:auto;mix-blend-mode:normal;color-interpolation:sRGB;color-interpolation-filters:linearRGB;solid-color:#000000;solid-opacity:1;vector-effect:none;fill:#a3c208;fill-opacity:1;fill-rule:evenodd;stroke:none;stroke-linecap:round;stroke-linejoin:round;stroke-miterlimit:10;stroke-dasharray:none;stroke-dashoffset:0;stroke-opacity:1;color-rendering:auto;image-rendering:auto;shape-rendering:auto;text-rendering:auto;enable-background:accumulate;stop-color:#000000"
         d="m 8093.0649,-5641.5092 c -64.6022,64.6022 -169.5274,64.6023 -234.1296,0 -64.6022,-64.6022 -64.6022,-169.5274 -1e-4,-234.1297 64.6023,-64.6022 169.5289,-64.6036 234.1311,0 64.6023,64.6023 64.601,169.5289 0,234.1311 z m -8.6386,-8.6386 c 59.9338,-59.9335 59.9351,-156.9202 0,-216.8539 -59.9336,-59.9336 -156.9204,-59.9322 -216.854,0 -59.9334,59.9336 -59.9334,156.919 1e-4,216.8525 59.9335,59.9336 156.9189,59.9336 216.8524,0 z"
         id="path2822" />
      <path
         id="path8657-0-05-0-2-3-4-61-2-0"
         style="fill:#259bd2;fill-opacity:1;fill-rule:evenodd;stroke:#259bd2;stroke-width:1.33498;stroke-linecap:round;stroke-linejoin:round;stroke-miterlimit:10;stroke-dasharray:none;stroke-opacity:1"
         d="m 8176.6672,-5819.0915 -0.043,0.043 -1.6406,-2.3602 -1.6407,-6.7442 -1.6431,-5.5835 -1.6407,-0.6208 -1.6407,-2.9279 -3.2839,-13.5998 -1.6406,-1.5372 -1.6407,0.1396 -1.6407,-3.0719 -1.6431,-6.82 -1.6407,-4.9548 -1.6406,1.633 -1.6407,2.4661 -1.6432,4.513 -1.6406,7.224 -3.2813,17.2699 -8.2084,47.7683 -3.2814,18.0751 -1.6405,7.3929 -1.6408,4.5812 -1.6431,-0.036 -1.6407,-6.7468 -1.6406,-15.1218 -3.2839,-48.1547 -1.6406,-13.5871 -1.6407,-7.648 -1.6406,-10.894 -3.2839,-29.3173 -3.2814,-22.7522 -1.6431,-7.2035 -1.6406,-3.9932 -1.6408,-3.5312 -1.6405,-2.1001 -1.6431,-2.9607 -1.6408,-5.6059 -1.6406,-7.0878 -1.6408,-4.6065 -1.6431,-1.3175 -1.6406,-0.3003 -1.6407,1.1484 -1.6407,2.1429 -3.2838,5.0987 -3.2813,5.8887 -3.284,6.7419 -3.2813,7.5975 -4.9245,12.5598 -3.2813,8.1757 -1.6431,3.4731 -1.6406,2.5897 -1.6408,1.166 -1.6405,-1.045 -1.6432,-3.8441 -3.2812,-10.841 -1.6407,-9.6571 -1.6433,-13.0648 -3.2812,-24.8722 -1.6406,-9.4377 -1.6434,-2.4912 -1.6405,-0.028 -3.2813,0.7473 -1.6408,-0.071 -1.6432,-0.5326 -1.6406,-0.7218 -3.2813,-1.6204 -1.6431,-1.4262 -1.6407,-2.1632 -1.6407,-1.6608 -1.6407,-0.1791 -3.2837,0.1791 -13.1303,3.1172 -3.2813,0.5327 -1.6433,0.028 -1.6406,-0.2575 -1.6408,-0.5325 -1.6406,-0.3383 -3.2838,0.061 -1.6406,-0.2122 -1.6408,-0.3785 -1.6406,-0.032 -6.5652,1.3452 -3.2837,0.5353 -3.2813,0.2323 -3.284,0.959 -4.9244,1.8451 -4.922,2.2767 -3.2838,1.7973 -4.9222,3.1701 -8.2081,6.2473 -4.9221,3.5815 -1.6431,0.9036 -1.6407,0.4796 -1.6407,0.093 -3.2837,1.1108 -3.2814,0.5072 -1.6407,0.7395 -1.6431,1.5751 -1.6406,2.0343 -6.5652,9.2939 -3.2813,4.3969 -1.6407,1.7087 -1.6433,1.3379 -1.6406,1.6936 -1.6406,2.7285 -1.6406,3.5414 -4.9245,11.6208 -3.2839,7.4411 -1.6405,3.1121 -1.6408,2.2717 -1.6406,0.934 -1.6431,-0.7597 -1.6408,-1.7316 -1.6405,-2.3804 -1.6408,-3.0817 -1.6433,-1.1989 -1.6406,2.8092 -1.6406,4.8109 -3.2838,10.6567 -4.922,16.3385 -1.6407,4.7098 -1.6431,3.9981 -1.6407,2.5269 -1.6407,0.1258 -1.6406,-3.3395 -4.9245,-20.9627 -3.2839,-18.8346 -1.6405,-7.4233 -1.6408,-5.2475 -1.6406,-2.5622 -1.6431,-1.5143 -1.6408,0.3331 -1.6406,0.939 -1.6407,-0.1516 -1.6432,-1.5044 -1.6406,-2.2314 -1.6407,-2.6451 -1.6406,-1.6836 -1.6431,1.3327 -4.9221,8.3977 -3.2839,7.1684 -3.2813,8.6955 -1.6406,5.2525 -3.2839,11.9365 -3.2813,13.5265 -3.2838,15.069 -4.9245,24.5997 -3.2813,15.8816 -1.6407,6.7418 -1.6431,5.1845 -3.2814,7.0143 -1.6406,4.4727 -3.2839,14.0593 -1.6406,5.5706 -1.6408,4.9547 -1.6404,7.5547 -1.6432,10.745 -3.2815,21.3867 -1.6405,7.9963 -1.6433,4.1193 -1.6407,-1.3781 -1.6405,-6.5425 -1.6407,-9.6344 -3.2839,-28.0327 -1.6406,-7.7286 -3.2838,-11.5528 -1.6408,-2.7462 -1.6405,-1.845 -1.6408,-3.6423 -1.6432,-6.2093 -1.6404,-4.5939 -1.6408,-1.729 -1.6406,-5.3713 -3.2839,-17.3454 -1.6406,-5.5329 -1.6407,-1.575 -1.6407,3.2535 -3.2838,9.3114 -1.6406,2.2263 -1.6407,-1.1661 -1.6432,-3.8694 -1.6408,-6.4692 -1.6405,-12.5449 -1.6408,-15.619 -1.6431,-8.2563 -1.6406,2.0018 -1.6408,5.0228 -1.6405,5.7247 -1.6432,7.3173 -1.6407,8.7812 -3.2814,20.266 -4.9244,34.3198 -3.2838,22.2499 -1.6407,9.4301 -1.6406,7.0523 -1.6407,3.2082 -1.6431,-2.6856 -1.6407,-11.3106 -1.6407,-21.6919 -1.6406,-26.6773 -1.6407,-21.4824 -1.6432,-12.6482 -3.2814,-12.7669 -1.6407,-9.5814 -3.2837,-30.4127 -1.6407,-10.7149 -1.6407,-7.1557 -1.6431,-5.3637 -1.6407,-3.0314 -1.6406,0.5148 -1.6407,0.2373 -1.6432,-1.3 -1.6406,-2.683 -1.6407,-4.6822 -1.6406,-8.6021 -4.9245,-39.5802 -0.323,-1.1029 a 267.18137,267.18137 0 0 1 232.7184,-135.9299 267.18137,267.18137 0 0 1 267.1823,267.1799 267.18137,267.18137 0 0 1 -0.5907,17.7594 z" />
      <path
         id="path8657-7-3-2-3-0-9-4-4-2"
         style="fill:#003a80;fill-opacity:1;fill-rule:evenodd;stroke:#003a80;stroke-width:1.33498;stroke-linecap:round;stroke-linejoin:round;stroke-miterlimit:10;stroke-dasharray:none;stroke-opacity:1"
         d="m 8173.4036,-5882.06 -1.5929,-0.7699 -1.6406,-3.1097 -3.2813,-14.0012 -1.6407,-1.7592 -1.6432,-0.093 -1.6406,-3.3217 -1.6407,-7.085 -1.6406,-5.235 -1.6431,1.3327 -1.6408,2.1456 -1.6406,4.1722 -1.6408,6.8606 -1.6431,7.817 -9.8463,53.917 -3.284,16.823 -1.6407,6.7066 -1.6406,3.8466 -1.6406,-0.8152 -1.6432,-7.5772 -1.6407,-16.0003 -3.2813,-50.0703 -1.6408,-14.6169 -1.6431,-8.7233 -1.6406,-12.0046 -3.2812,-31.5763 -3.284,-24.8622 -1.6405,-8.0646 -1.6408,-4.5989 -1.6432,-3.7433 -3.2812,-3.3924 -3.2839,-6.1333 -1.6407,-2.5242 -1.6405,-1.9663 -1.6407,-1.1913 -1.6431,0.1069 -1.6409,0.9667 -1.6405,1.1889 -3.284,2.6832 -3.2812,3.1221 -3.2839,3.5741 -6.5626,8.0671 -3.2838,3.6599 -1.6406,1.2924 -1.6407,0.5982 -1.6432,-0.4948 -1.6406,-2.1479 -3.2813,-8.2035 -1.6431,-2.6275 -3.2814,-7.4788 -3.2839,-5.0433 -1.6407,-2.2084 -1.6406,-0.9944 -1.6406,-0.018 -3.2839,0.6108 -1.6407,-0.045 -3.2838,-0.9641 -3.2813,-1.2192 -1.6407,-1.0828 -1.6406,-1.6482 -1.6432,-1.2419 -1.6408,-0.097 -3.2813,0.2244 -13.1303,2.7969 -3.2838,0.5046 -1.6406,0.055 -1.6406,-0.1794 -1.6434,-0.4089 -1.6405,-0.2422 -3.2813,0.1362 -3.284,-0.3938 -1.6405,0.025 -8.2059,1.6534 -4.9244,0.5578 -3.2813,0.9642 -4.9244,1.8425 -4.9248,2.2718 -3.281,1.797 -4.9248,3.1652 -8.2057,6.2395 -4.9244,3.5793 -1.6407,0.901 -1.6407,0.4772 -1.6431,0.093 -3.2813,1.1079 -3.2838,0.5025 -1.6408,0.7395 -1.6405,1.5726 -1.6408,2.0317 -6.565,9.2887 -3.2839,4.392 -1.6407,1.7087 -1.6407,1.3353 -1.6431,1.6911 -1.6407,2.7283 -1.6406,3.5391 -4.9245,11.6158 -3.2813,7.4385 -1.6408,3.1071 -1.6432,2.2718 -1.6405,0.9313 -1.6408,-0.7623 -1.6405,-1.7342 -1.6432,-2.3827 -1.6408,-3.0843 -1.6406,-1.2016 -1.6407,2.8068 -1.6431,4.8085 -3.2814,10.6516 -4.9244,16.3308 -1.6408,4.7075 -1.6406,3.9955 -1.6431,2.5243 -1.6408,0.1241 -1.6405,-3.3421 -4.9246,-20.975 -3.2813,-18.8424 -1.6407,-7.426 -1.6431,-5.25 -1.6407,-2.5696 -1.6407,-1.5169 -1.6406,0.3281 -1.6431,0.9366 -1.6407,-0.1568 -1.6407,-1.5095 -1.6407,-2.2365 -1.6431,-2.6503 -1.6406,-1.6884 -1.6407,1.3277 -4.9246,8.3773 -3.2813,7.1558 -3.2837,8.678 -1.6408,5.245 -3.2812,11.9186 -3.284,13.5089 -3.2812,15.0486 -4.9245,24.5645 -3.2837,15.8563 -1.6409,6.7293 -1.6404,5.1669 -3.2841,6.9815 -1.6404,4.4551 -3.2813,14.0213 -1.6433,5.5529 -1.6407,4.9321 -1.6406,7.5344 -1.6407,10.7198 -3.2838,21.3362 -1.6407,7.9684 -1.6408,4.0892 -1.6405,-1.4085 -1.6431,-6.5752 -1.6408,-9.67 -3.2814,-28.1082 -1.6431,-7.769 -3.2813,-11.6412 -1.6406,-2.7967 -1.6432,-1.8956 -1.6407,-3.6976 -1.6406,-6.2649 -1.6407,-4.6569 -1.6431,-1.7923 -1.6407,-5.4394 -3.2813,-17.4969 -1.6431,-5.6136 -1.6407,-1.6633 -1.6407,3.1627 -3.2838,9.1094 -1.6406,2.1153 -1.6407,-1.2847 -1.6408,-3.9932 -1.6432,-6.6032 -1.6406,-12.686 -1.6407,-15.7655 -1.6406,-8.4177 -1.6407,1.8324 -1.6432,4.8437 -1.6406,5.5328 -1.6407,7.1131 -1.6406,8.564 -3.2839,19.7888 -4.9244,33.4746 -3.2814,21.5884 -1.6406,9.0666 -1.6431,6.661 -1.6408,2.7942 -1.6405,-3.1322 -1.6408,-11.785 -1.6432,-22.1968 -1.6405,-27.2173 -1.6408,-22.0555 -1.6407,-13.2616 -3.2838,-14.1046 -1.6407,-10.3084 -3.2812,-31.9625 -1.6432,-11.53 -1.6407,-7.9787 -1.6408,-6.1765 -1.6404,-3.8114 -3.284,-0.5022 -1.6405,-1.6306 -1.6408,-2.663 -1.6432,-4.1369 -0.021,-0.086 a 267.18137,267.18137 0 0 1 224.0986,-121.6963 267.18137,267.18137 0 0 1 263.328,221.9708 z" />
      <path
         id="path2963-8-6-1-3-0-2-96-4-3"
         style="fill:none;fill-rule:evenodd;stroke:#a3c208;stroke-width:12.6519;stroke-linecap:round;stroke-linejoin:round;stroke-miterlimit:10;stroke-dasharray:none;stroke-opacity:1"
         d="m 8169.8729,-5806.6651 c -0.4885,4.2319 -1.0773,8.4316 -1.7634,12.5969 -1.3723,8.3304 -3.1349,16.5226 -5.2677,24.5578 -4.2658,16.0708 -10.0129,31.5139 -17.0822,46.1812 -14.139,29.3343 -33.5669,55.5644 -57.0127,77.5001 -46.8915,43.8717 -109.8535,70.5666 -178.7122,70.5662 -144.4659,-9e-4 -261.578,-117.1139 -261.5774,-261.5798 1e-4,-22.5112 2.9056,-44.8319 8.5755,-66.4266 2.8351,-10.7974 6.3611,-21.4132 10.5608,-31.7809"
         sodipodi:nodetypes="cssssccsc" />
    </g>
  </g>
</svg>
