<?xml version="1.0" encoding="UTF-8" standalone="no"?>
<!-- Created with Inkscape (http://www.inkscape.org/) -->

<svg
   width="200mm"
   height="200mm"
   viewBox="0 0 200 199.99999"
   version="1.1"
   id="svg5016"
   sodipodi:docname="evalhyd_logo.svg"
   inkscape:version="1.2.1 (9c6d41e4, 2022-07-14)"
   xmlns:inkscape="http://www.inkscape.org/namespaces/inkscape"
   xmlns:sodipodi="http://sodipodi.sourceforge.net/DTD/sodipodi-0.dtd"
   xmlns="http://www.w3.org/2000/svg"
   xmlns:svg="http://www.w3.org/2000/svg">
  <sodipodi:namedview
     id="namedview5018"
     pagecolor="#505050"
     bordercolor="#ffffff"
     borderopacity="1"
     inkscape:showpageshadow="0"
     inkscape:pageopacity="0"
     inkscape:pagecheckerboard="1"
     inkscape:deskcolor="#505050"
     inkscape:document-units="mm"
     showgrid="false"
     inkscape:zoom="0.28907514"
     inkscape:cx="1420.046"
     inkscape:cy="413.38733"
     inkscape:window-width="1440"
     inkscape:window-height="847"
     inkscape:window-x="0"
     inkscape:window-y="25"
     inkscape:window-maximized="0"
     inkscape:current-layer="g22530" />
  <defs
     id="defs5013" />
  <g
     inkscape:label="Layer 1"
     inkscape:groupmode="layer"
     id="layer1"
     transform="translate(364.26647,73.977017)">
    <g
       id="g22530"
       transform="translate(10.98474,10.983155)">
      <path
         id="path5318"
         style="color:#000000;fill:#66c1bf;fill-opacity:1;fill-rule:evenodd;stroke-width:0.470951;stroke-linecap:round;stroke-linejoin:round;stroke-miterlimit:10"
         d="m -317.78866,-29.170467 a 0.2354982,0.23549964 0 0 0 -0.20774,0.04651 l -0.57826,0.486275 a 0.2354982,0.23549964 0 0 0 -0.078,0.12299 l -0.57826,2.308903 a 0.2354982,0.23549964 0 0 0 -0.004,0.01757 l -0.57774,3.398759 a 0.2354982,0.23549964 0 0 0 -0.002,0.01137 l -1.15806,9.878983 -0.57465,2.709396 -1.14825,4.0369627 -0.55087,0.9239746 -0.5643,0.6345866 a 0.2354982,0.23549964 0 0 0 -0.0393,0.058394 l -0.57774,1.2851929 a 0.2354982,0.23549964 0 0 0 -0.014,0.037207 l -0.5762,2.1797119 -0.55862,1.56424561 -0.54467,0.57464189 a 0.2354982,0.23549964 0 0 0 -0.0548,0.093534 l -0.57826,1.894458 a 0.2354982,0.23549964 0 0 0 -0.006,0.025321 l -1.15652,6.1076376 -0.55863,1.8805052 -0.30437,0.291455 -0.42788,-0.84956 -1.15238,-3.2695682 a 0.2354982,0.23549964 0 0 0 -0.0331,-0.062528 l -0.57826,-0.7854817 a 0.2354982,0.23549964 0 0 0 -0.32608,-0.05271 l -0.58032,0.4123779 a 0.2354982,0.23549964 0 0 0 -0.0801,0.099219 l -0.57774,1.3652913 a 0.2354982,0.23549964 0 0 0 -0.0119,0.03359 l -0.58032,2.2830647 a 0.2354982,0.23549964 0 0 0 -0.004,0.02739 l -0.58033,4.425569 a 0.2354982,0.23549964 0 0 0 0,0.0062 l -0.57826,5.497855 -0.48007,2.412256 -0.23461,-0.285254 -0.56431,-1.724442 -0.57412,-2.010214 -0.57826,-2.569869 -0.57826,-3.09025 -1.156,-7.1442672 -1.73633,-12.105721 a 0.2354982,0.23549964 0 0 0 0,-5.167e-4 0.2354982,0.23549964 0 0 0 0,-5.168e-4 0.2354982,0.23549964 0 0 0 0,-5.168e-4 l -1.15859,-7.8496495 a 0.2354982,0.23549964 0 0 0 -0.002,-0.0062 l -0.57825,-3.325895 a 0.2354982,0.23549964 0 0 0 -0.004,-0.01395 l -0.57826,-2.486153 a 0.2354982,0.23549964 0 0 0 -0.0191,-0.05478 l -0.57826,-1.13068 a 0.2354982,0.23549964 0 0 0 -0.41238,-0.01602 l -0.57774,0.947746 a 0.2354982,0.23549964 0 0 0 -0.0336,0.08785 l -0.57774,3.989937 a 0.2354982,0.23549964 0 0 0 -0.002,0.0155 l -0.57826,7.6527631 a 0.2354982,0.23549964 0 0 0 -0.002,0.00362 l -0.57826,9.4102784 -0.57775,7.5700805 -0.57619,4.441589 -1.15445,4.490165 a 0.2354982,0.23549964 0 0 0 -0.004,0.01757 l -0.57981,3.381189 a 0.2354982,0.23549964 0 0 0 -0.002,0.01344 l -1.15652,10.72441 -0.57774,3.765662 -0.57413,2.507857 -0.57051,1.861385 -0.4749,0.879016 -0.39429,-0.12299 a 0.2354982,0.23549964 0 0 0 -0.0372,-0.0098 l -0.57826,-0.08217 a 0.2354982,0.23549964 0 0 0 -0.17932,0.04703 l -0.58032,0.458886 a 0.2354982,0.23549964 0 0 0 -0.0548,0.06253 l -0.57774,0.945162 a 0.2354982,0.23549964 0 0 0 -0.0217,0.04702 l -0.57981,1.650546 a 0.2354982,0.23549964 0 0 0 -0.008,0.03307 l -0.57981,3.034957 a 0.2354982,0.23549964 0 0 0 -0.002,0.01602 l -1.73478,13.943334 -0.10904,0.371037 a 0.2354982,0.23549964 0 0 0 0.0212,0.181385 c 0.96786,1.71611 1.99037,3.390031 3.05408,5.029149 a 0.23551157,0.23549937 0 0 1 -0.0279,-0.163814 l 0.006,-0.03101 a 0.23551157,0.23549937 0 0 1 0.0114,-0.03307 l 0.57826,-1.459343 a 0.23551157,0.23549937 0 0 1 0.0196,-0.03669 l 0.57826,-0.939478 a 0.23551157,0.23549937 0 0 1 0.0346,-0.04341 l 0.57826,-0.575677 a 0.23551157,0.23549937 0 0 1 0.13074,-0.0646 l 1.0294,-0.158129 0.52038,-1.209229 0.57206,-2.155941 0.57619,-2.800863 0.57826,-4.055566 1.15807,-11.271146 a 0.23551157,0.23549937 0 0 1 0.002,-0.01395 l 0.57825,-3.63647 a 0.23551157,0.23549937 0 0 1 0.004,-0.0155 l 1.15445,-4.965072 0.57619,-4.66018 0.57981,-7.773169 0.57826,-9.599414 a 0.23551157,0.23549937 0 0 1 0,-0.0021 l 0.58033,-7.83208 a 0.23551157,0.23549937 0 0 1 0.002,-0.013953 l 0.57774,-4.1578857 a 0.23551157,0.23549937 0 0 1 0.0258,-0.076481 l 0.57774,-1.1053589 a 0.23551157,0.23549937 0 0 1 0.20309,-0.1266072 0.23551157,0.23549937 0 0 1 0.20929,0.1167887 l 0.57722,0.9865031 a 0.23551157,0.23549937 0 0 1 0.0258,0.062528 l 0.57981,2.3497274 a 0.23551157,0.23549937 0 0 1 0.002,0.013436 l 0.58032,3.1992879 a 0.23551157,0.23549937 0 0 1 0,0.00103 0.23551157,0.23549937 0 0 1 0,0.00103 0.23551157,0.23549937 0 0 1 0,0.00155 0.23551157,0.23549937 0 0 1 0,0.00103 0.23551157,0.23549937 0 0 1 0,0.00103 l 1.15807,7.6171057 1.73633,11.807031 1.15807,6.976319 0.57826,3.013769 0.57619,2.498039 0.57413,1.941483 0.56224,1.65778 0.23047,0.257866 0.48834,-2.493904 0.5762,-5.551083 a 0.23551157,0.23549937 0 0 1 0.002,-0.0057 l 0.57826,-4.476729 a 0.23551157,0.23549937 0 0 1 0.006,-0.02532 l 0.57826,-2.330091 a 0.23551157,0.23549937 0 0 1 0.0119,-0.03307 l 0.57877,-1.408184 a 0.23551157,0.23549937 0 0 1 0.0713,-0.0956 l 0.58032,-0.453202 a 0.23551157,0.23549937 0 0 1 0.17364,-0.04754 0.23551157,0.23549937 0 0 1 0.15658,0.08837 l 0.58032,0.746208 a 0.23551157,0.23549937 0 0 1 0.0346,0.0646 l 1.15238,3.199288 0.42375,0.814421 0.30902,-0.31471 0.56018,-1.912028 1.15445,-6.161897 a 0.23551157,0.23549937 0 0 1 0.006,-0.02377 l 0.57981,-1.919779 a 0.23551157,0.23549937 0 0 1 0.0506,-0.08992 l 0.54777,-0.59738 0.56017,-1.588016 0.5762,-2.2009 a 0.23551157,0.23549937 0 0 1 0.0119,-0.03566 l 0.58033,-1.304313 a 0.23551157,0.23549937 0 0 1 0.0367,-0.05891 l 0.56482,-0.652156 0.55242,-0.941545 1.1467,-4.0700351 0.57619,-2.7228312 1.15601,-9.904305 a 0.23551157,0.23549937 0 0 1 0.002,-0.013436 l 0.58033,-3.4101277 a 0.23551157,0.23549937 0 0 1 0.002,-0.01757 l 0.57981,-2.320272 a 0.23551157,0.23549937 0 0 1 0.0765,-0.12144 l 0.57774,-0.497644 a 0.23551157,0.23549937 0 0 1 0.20826,-0.04858 0.23551157,0.23549937 0 0 0 -5.2e-4,-5.16e-4 h 0.002 a 0.23551157,0.23549937 0 0 0 -10e-4,5.16e-4 h 10e-4 a 0.23551157,0.23549937 0 0 1 0.16175,0.140043 l 0.57981,1.443323 a 0.23551157,0.23549937 0 0 1 0.0119,0.03927 l 0.57826,2.8106818 a 0.23551157,0.23549937 0 0 1 0.002,0.011369 l 1.16013,7.5277059 0.5762,3.7749634 0.57412,2.6391154 0.57619,1.7265096 a 0.23551157,0.23549937 0 0 1 0.002,0.00775 l 0.57981,1.9590536 a 0.23551157,0.23549937 0 0 1 0.004,0.013436 l 1.15446,4.9314813 0.56999,1.54926 1.15238,2.45308 a 0.23551157,0.23549937 0 0 1 0.0119,0.02894 l 0.57981,1.822628 a 0.23551157,0.23549937 0 0 1 0.004,0.0155 l 0.57826,2.375049 a 0.23551157,0.23549937 0 0 1 0.002,0.0078 l 1.15807,5.593457 a 0.23551157,0.23549937 0 0 0 0,5.17e-4 0.23551157,0.23549937 0 0 0 0,5.16e-4 0.23551157,0.23549937 0 0 0 0,5.17e-4 0.23551157,0.23549937 0 0 0 0,5.17e-4 l 1.73839,8.66407 1.15652,5.302519 1.15652,4.759916 1.156,4.19716 0.57619,1.840198 1.15239,3.046842 1.14825,2.507858 1.711,2.907833 0.37724,0.30489 0.41186,-0.422196 0.56638,-0.913639 a 0.23551157,0.23549937 0 0 1 0.0103,-0.01602 l 0.57774,-0.788582 a 0.23551157,0.23549937 0 0 1 0.0315,-0.03359 l 0.57774,-0.533301 a 0.23551157,0.23549937 0 0 1 0.13694,-0.06046 l 0.58033,-0.05478 a 0.23551157,0.23549937 0 0 1 0.13849,0.02945 l 0.54674,0.312643 0.42426,0.08372 0.46716,-0.433566 0.54673,-0.853178 0.56638,-1.812809 0.57619,-2.605526 1.156,-6.640421 a 0.23551157,0.23549937 0 0 1 0.002,-0.01344 l 1.73839,-7.400582 a 0.23551157,0.23549937 0 0 1 0.0176,-0.04858 l 0.57826,-1.179773 a 0.23551157,0.23549937 0 0 1 0.23048,-0.130741 l 0.57826,0.04289 a 0.23551157,0.23549937 0 0 1 0.17932,0.107487 l 0.58032,0.890385 a 0.23551157,0.23549937 0 0 1 0.0196,0.03927 l 0.57981,1.408183 a 0.23551157,0.23549937 0 0 1 0.004,0.01137 l 0.57826,1.662431 a 0.23551157,0.23549937 0 0 1 0.004,0.0098 l 1.73632,5.759339 1.15652,3.754293 0.57206,1.669665 0.43357,0.744141 0.32607,-0.238229 0.55294,-1.039213 a 0.23551157,0.23549937 0 0 1 0.014,-0.02325 l 0.57981,-0.841809 a 0.23551157,0.23549937 0 0 1 0.0238,-0.02739 l 0.57825,-0.611332 a 0.23551157,0.23549937 0 0 1 0.0723,-0.05271 l 0.57826,-0.267684 a 0.23551157,0.23549937 0 0 1 0.21446,0.0078 l 0.58032,0.328145 a 0.23551157,0.23549937 0 0 1 0.0744,0.06873 l 0.57981,0.800468 a 0.23551157,0.23549937 0 0 1 0.0176,0.02739 l 0.57826,1.09554 a 0.23551157,0.23549937 0 0 1 0.008,0.01602 l 1.15652,2.624646 a 0.23551157,0.23549937 0 0 1 0.002,0.0026 l 1.73685,4.095874 0.57206,1.232483 0.55655,0.927592 0.55294,0.568441 0.56637,0.46302 a 0.23551157,0.23549937 0 0 1 0.0217,0.01912 l 0.57981,0.601513 a 0.23551157,0.23549937 0 0 1 0.0176,0.02377 l 1.15807,1.548742 a 0.23551157,0.23549937 0 0 1 0.004,0.0036 l 2.31252,3.271635 0.56431,0.699182 0.5395,0.51573 0.5116,0.232544 1.12706,0.171566 a 0.23551157,0.23549937 0 0 1 0.0388,0.0098 l 1.12913,0.380855 0.54673,0.03152 a 0.23551157,0.23549937 0 0 1 0.0527,0.0078 l 0.57826,0.167948 a 0.23551157,0.23549937 0 0 1 0.0491,0.01964 l 0.57825,0.318326 a 0.23551157,0.23549937 0 0 1 0.0253,0.0155 l 1.73632,1.263489 a 0.23551157,0.23549937 0 0 1 0.004,0.0021 l 2.88871,2.197282 1.72238,1.105359 1.14256,0.627352 1.72289,0.794783 1.72083,0.642338 1.12913,0.33228 1.71669,0.195337 a 0.23551157,0.23549937 0 0 1 0.0217,0.0036 l 2.87321,0.578259 0.54106,0.0078 1.14256,-0.136426 a 0.23551157,0.23549937 0 0 1 0.0367,-0.0021 l 1.13688,0.04703 0.54519,-0.0801 0.56844,-0.141077 a 0.23551157,0.23549937 0 0 1 0.031,-0.0057 l 0.58032,-0.0646 a 0.23551157,0.23549937 0 0 1 0.0336,0 l 0.57775,0.01964 a 0.23551157,0.23549937 0 0 1 0.0274,0.0021 l 1.15807,0.177767 a 0.23551157,0.23549937 0 0 1 0.014,0.0036 l 4.61522,0.982886 1.12758,0.07596 0.49196,-0.02946 0.51004,-0.384472 0.56638,-0.568441 a 0.23551157,0.23549937 0 0 1 0.0372,-0.03152 l 0.57981,-0.382405 a 0.23551157,0.23549937 0 0 1 0.047,-0.02377 l 1.15807,-0.429432 a 0.23551157,0.23549937 0 0 1 0.0155,-0.0062 l 1.15807,-0.339514 a 0.23551157,0.23549937 0 0 1 0.061,-0.0098 l 0.57774,-0.01602 a 0.23551157,0.23549937 0 0 1 0.0491,0.0041 l 1.13689,0.21084 0.49195,-0.0057 0.48266,-0.293005 0.54881,-0.736389 1.14256,-1.755965 1.15032,-2.621029 a 0.23551157,0.23549937 0 0 1 0.0155,-0.03101 l 0.56844,-0.908471 1.15084,-2.87476 a 0.23551157,0.23549937 0 0 1 0.031,-0.05478 l 0.57826,-0.758094 a 0.23551157,0.23549937 0 0 1 0.11938,-0.08165 l 0.5798,-0.176217 a 0.23551157,0.23549937 0 0 1 0.14832,0.0041 l 0.58032,0.212907 a 0.23551157,0.23549937 0 0 1 0.0646,0.03514 l 0.57774,0.45682 a 0.23551157,0.23549937 0 0 1 0.0295,0.02739 l 1.15807,1.291394 a 0.23551157,0.23549937 0 0 1 0.008,0.0078 l 2.31097,2.83962 1.14825,1.250052 1.1467,1.089856 1.14618,0.937411 0.56276,0.408244 0.52141,0.306441 0.43925,0.02946 0.48679,-0.353467 0.55036,-0.659908 0.56637,-0.869198 1.15239,-2.156457 a 0.23551157,0.23549937 0 0 1 0.0393,-0.05271 l 1.12965,-1.165821 0.55862,-1.273824 0.56999,-1.599385 0.57412,-2.8205 1.15652,-8.759672 1.15807,-11.136788 a 0.23551157,0.23549937 0 0 1 0,-0.0062 l 0.58033,-4.236434 a 0.23551157,0.23549937 0 0 1 0,-0.01137 l 0.57774,-3.068546 0.57826,-5.142322 1.15652,-17.658354 a 0.23551157,0.23549937 0 0 1 0.002,-0.0078 l 0.57826,-5.6446167 a 0.23551157,0.23549937 0 0 1 0.004,-0.027389 l 0.57981,-2.6716716 a 0.23551157,0.23549937 0 0 1 0.12506,-0.162264 l 0.58032,-0.2868042 a 0.23551157,0.23549937 0 0 1 0.18604,-0.0093 0.23551157,0.23549937 0 0 1 0.13436,0.1281575 l 0.57774,1.3575399 a 0.23551157,0.23549937 0 0 1 0.014,0.03514 l 0.57774,2.3672971 a 0.23551157,0.23549937 0 0 1 0.002,0.0098 l 1.15807,5.935038 a 0.23551157,0.23549937 0 0 1 0.002,0.0021 l 3.47317,19.017443 0.57826,2.752287 0.57412,2.40037 0.56069,1.425753 0.54106,0.709001 0.28887,0.234094 0.47284,-1.507401 0.57619,-2.490288 a 0.23551157,0.23549937 0 0 1 0.0191,-0.05116 l 0.57826,-1.171505 a 0.23551157,0.23549937 0 0 1 0.1974,-0.130741 l 0.48628,-0.02739 0.47077,-0.505912 1.14463,-4.879289 a 0.23551157,0.23549937 0 0 1 0.0191,-0.05426 l 0.58033,-1.097608 a 0.23551157,0.23549937 0 0 1 0.10542,-0.101802 l 0.56224,-0.271301 a 0.23551157,0.23549937 0 0 1 0.21394,0.0041 0.23551157,0.23549937 0 0 1 0.12144,0.174149 c 0.87945,-5.178941 1.34356,-10.498989 1.34359,-15.928227 2e-5,-2.087521 -0.0706,-4.173013 -0.20878,-6.2559479 -5.2e-4,-0.00779 5.2e-4,-0.01546 0,-0.023254 l -0.002,0.00982 a 0.2354982,0.23549964 0 0 0 -0.0661,-0.162264 l -0.016,-0.015503 a 0.2354982,0.23549964 0 0 0 -0.35915,0.033073 l -0.57981,0.8319906 a 0.2354982,0.23549964 0 0 0 -0.0357,0.080098 l -0.57619,2.3729823 -0.54467,1.851566 -0.47077,0.177767 a 0.2354982,0.23549964 0 0 0 -0.12092,0.10542 l -0.58033,1.033529 a 0.2354982,0.23549964 0 0 0 -0.0232,0.05839 l -1.1405,4.730461 -0.45114,0.421679 -0.47491,-0.04082 a 0.2354982,0.23549964 0 0 0 -0.2284,0.125057 l -0.57826,1.083655 a 0.2354982,0.23549964 0 0 0 -0.0212,0.05478 l -0.57619,2.396753 -0.45734,1.37666 -0.2899,-0.290939 -0.55088,-0.825789 -0.5643,-1.55081 -0.57413,-2.531628 -1.15858,-6.085934 -2.8944,-16.8496171 a 0.2354982,0.23549964 0 0 0 0,-5.167e-4 0.2354982,0.23549964 0 0 0 0,-5.168e-4 0.2354982,0.23549964 0 0 0 0,-5.168e-4 l -1.15807,-6.3773885 a 0.2354982,0.23549964 0 0 0 -0.002,-0.00775 l -0.57826,-2.6091431 a 0.2354982,0.23549964 0 0 0 -0.008,-0.02739 l -0.58032,-1.617472 a 0.2354982,0.23549964 0 0 0 -0.22635,-0.156063 l -0.58032,0.01395 a 0.2354982,0.23549964 0 0 0 -0.22273,0.179317 l -0.57774,2.38125 a 0.2354982,0.23549964 0 0 0 -0.006,0.02894 l -0.57826,5.3340413 a 0.2354982,0.23549964 0 0 0 -0.002,0.00982 l -1.15807,16.9824257 -0.57619,4.777487 -0.57619,2.687174 a 0.2354982,0.23549964 0 0 0 -0.004,0.01395 l -0.57826,3.843693 a 0.2354982,0.23549964 0 0 0 -0.002,0.0078 l -1.15807,10.339938 -1.15445,8.011397 -0.57413,2.514058 -0.56844,1.384412 -0.56637,1.21698 -0.56069,0.720886 a 0.2354982,0.23549964 0 0 0 -0.0212,0.02894 l -0.58033,1.044897 a 0.2354982,0.23549964 0 0 0 -0.0196,0.04909 l -0.57775,1.976623 a 0.2354982,0.23549964 0 0 0 -0.004,0.01344 l -0.57619,2.488221 -0.55087,1.549259 -0.48266,0.384473 -0.42168,0.07803 -0.46871,-0.328145 -0.55087,-0.718819 -1.15032,-1.784904 -1.15031,-2.064474 -1.15239,-2.367297 -1.15445,-2.671672 -1.73633,-4.427637 a 0.2354982,0.23549964 0 0 0 0,-5.16e-4 0.2354982,0.23549964 0 0 0 0,-5.17e-4 0.2354982,0.23549964 0 0 0 0,-5.17e-4 0.2354982,0.23549964 0 0 0 0,-5.17e-4 l -1.15807,-2.885095 a 0.2354982,0.23549964 0 0 0 -0.006,-0.01137 l -0.57981,-1.224731 a 0.2354982,0.23549964 0 0 0 -0.014,-0.02532 l -0.57774,-0.914156 a 0.2354982,0.23549964 0 0 0 -0.0625,-0.06614 l -0.57826,-0.412378 a 0.2354982,0.23549964 0 0 0 -0.26355,-0.0057 l -0.57826,0.36897 a 0.2354982,0.23549964 0 0 0 -0.0899,0.10542 l -0.57981,1.355473 a 0.2354982,0.23549964 0 0 0 -0.0103,0.02532 l -1.15601,3.824056 a 0.2354982,0.23549964 0 0 0 -0.008,0.02946 l -0.57775,3.40651 a 0.2354982,0.23549964 0 0 0 -0.002,0.0098 l -0.58033,4.609021 -1.156,8.76794 -0.57051,3.277319 -0.48421,0.734322 -0.42581,0.0057 -1.12913,-0.255799 a 0.2354982,0.23549964 0 0 0 -0.062,-0.0057 l -0.57981,0.02325 a 0.2354982,0.23549964 0 0 0 -0.0625,0.01189 l -0.57826,0.187585 a 0.2354982,0.23549964 0 0 0 -0.0222,0.0098 l -0.57826,0.253731 a 0.2354982,0.23549964 0 0 0 -0.0103,0.0036 l -1.15806,0.572574 a 0.2354982,0.23549964 0 0 0 -0.0491,0.03307 l -0.57981,0.503846 a 0.2354982,0.23549964 0 0 0 -0.0331,0.03514 l -0.57051,0.750341 -0.50798,0.515214 -0.47645,0.05271 -1.11931,-0.06046 -4.61109,-1.09554 a 0.2354982,0.23549964 0 0 0 -0.0155,-0.0041 l -1.15806,-0.187585 a 0.2354982,0.23549964 0 0 0 -0.0336,-0.0016 l -0.57981,-0.0098 a 0.2354982,0.23549964 0 0 0 -0.0413,0.0021 l -0.57775,0.09147 a 0.2354982,0.23549964 0 0 0 -0.0372,0.0078 l -0.56638,0.183968 -0.53898,0.111104 -1.13275,-0.0217 a 0.2354982,0.23549964 0 0 0 -0.0357,0.0021 l -0.57774,0.07648 a 0.2354982,0.23549964 0 0 0 -0.0238,0.0036 l -0.55449,0.127124 -0.5271,0.01189 -2.29133,-0.470772 a 0.2354982,0.23549964 0 0 0 -0.01,0 l -1.15807,-0.189652 a 0.2354982,0.23549964 0 0 0 -0.0217,-0.0021 l -1.13275,-0.0801 -1.125,-0.329696 -1.72082,-0.644921 -1.72083,-0.796851 -1.14463,-0.624768 -1.72238,-1.109493 -2.88664,-2.197282 a 0.2354982,0.23549964 0 0 0 -0.004,-0.0041 l -1.73839,-1.263489 a 0.2354982,0.23549964 0 0 0 -0.0232,-0.0155 l -0.58033,-0.318327 a 0.2354982,0.23549964 0 0 0 -0.0465,-0.01964 l -0.58033,-0.170015 a 0.2354982,0.23549964 0 0 0 -0.0527,-0.0098 l -0.54673,-0.02894 -1.12707,-0.382923 a 0.2354982,0.23549964 0 0 0 -0.0408,-0.0098 l -1.125,-0.17415 -0.51366,-0.230477 -0.53898,-0.517281 -0.56483,-0.699182 -2.31252,-3.273702 a 0.2354982,0.23549964 0 0 0 -0.002,-0.0036 l -1.15858,-1.552877 a 0.2354982,0.23549964 0 0 0 -0.0186,-0.0217 l -0.57826,-0.603064 a 0.2354982,0.23549964 0 0 0 -0.0217,-0.01964 l -0.56844,-0.463021 -0.55035,-0.568441 -0.55863,-0.927592 -0.57205,-1.23455 -1.73426,-4.095357 a 0.2354982,0.23549964 0 0 0 -0.002,-0.0041 l -1.15807,-2.624646 a 0.2354982,0.23549964 0 0 0 -0.008,-0.01395 l -0.57774,-1.099674 a 0.2354982,0.23549964 0 0 0 -0.0176,-0.02739 l -0.57826,-0.800468 a 0.2354982,0.23549964 0 0 0 -0.0765,-0.06666 l -0.57774,-0.329696 a 0.2354982,0.23549964 0 0 0 -0.21498,-0.0098 l -0.58032,0.267167 a 0.2354982,0.23549964 0 0 0 -0.0723,0.05271 l -0.57774,0.611332 a 0.2354982,0.23549964 0 0 0 -0.0238,0.02739 l -0.57775,0.839742 a 0.2354982,0.23549964 0 0 0 -0.014,0.02377 l -0.55449,1.039213 -0.32453,0.236161 -0.43511,-0.744141 -0.57051,-1.671732 -1.15807,-3.755843 -1.73478,-5.761923 a 0.2354982,0.23549964 0 0 0 -0.004,-0.0098 l -0.57826,-1.661914 a 0.2354982,0.23549964 0 0 0 -0.006,-0.01189 l -0.57981,-1.41025 a 0.2354982,0.23549964 0 0 0 -0.0196,-0.03876 l -0.57826,-0.890902 a 0.2354982,0.23549964 0 0 0 -0.17932,-0.107487 l -0.58032,-0.04496 a 0.2354982,0.23549964 0 0 0 -0.22841,0.130741 l -0.57826,1.179773 a 0.2354982,0.23549964 0 0 0 -0.0176,0.04909 l -1.7384,7.394381 a 0.2354982,0.23549964 0 0 0 -0.002,0.01395 l -1.15807,6.640422 -0.5762,2.603458 -0.56637,1.810743 -0.54467,0.851627 -0.4687,0.431498 -0.42427,-0.08578 -0.54467,-0.312643 a 0.2354982,0.23549964 0 0 0 -0.13849,-0.02945 l -0.58033,0.05271 a 0.2354982,0.23549964 0 0 0 -0.13642,0.06253 l -0.58033,0.529167 a 0.2354982,0.23549964 0 0 0 -0.0294,0.03514 l -0.57981,0.787548 a 0.2354982,0.23549964 0 0 0 -0.0103,0.0155 l -0.56637,0.910022 -0.4098,0.42168 -0.3793,-0.306441 -1.70894,-2.916101 -1.15032,-2.511475 -1.15238,-3.053044 -0.5762,-1.841748 -1.156,-4.204911 -1.15652,-4.7656 -1.156,-5.310787 -1.73633,-8.67544 a 0.2354982,0.23549964 0 0 0 -0.002,-0.0021 l -1.156,-5.6037923 a 0.2354982,0.23549964 0 0 0 -0.002,-0.00775 l -0.58033,-2.3786661 a 0.2354982,0.23549964 0 0 0 -0.004,-0.013953 l -0.57981,-1.8298625 a 0.2354982,0.23549964 0 0 0 -0.0103,-0.029455 l -1.15445,-2.46496584 -0.57051,-1.55442706 -1.15393,-4.9454346 a 0.2354982,0.23549964 0 0 0 -0.004,-0.013436 l -0.57826,-1.9652547 a 0.2354982,0.23549964 0 0 0 -0.004,-0.00775 l -0.57412,-1.7363279 -0.57413,-2.644283 -0.57825,-3.783232 -1.15807,-7.544759 a 0.2354982,0.23549964 0 0 0 -0.002,-0.01189 l -0.57826,-2.822049 a 0.2354982,0.23549964 0 0 0 -0.0134,-0.03927 l -0.57826,-1.453141 a 0.2354982,0.23549964 0 0 0 -0.16174,-0.140043 z" />
      <path
         id="path2963-8-6-1-3-0-2-96"
         style="fill:none;fill-rule:evenodd;stroke:#00a3a6;stroke-width:4.46332;stroke-linecap:round;stroke-linejoin:round;stroke-miterlimit:10;stroke-dasharray:none;stroke-opacity:1"
         d="m -183.58337,4.3966269 c -0.17233,-1.4929331 -0.38002,-2.9745095 -0.62209,-4.44391254 -0.48409,-2.93880606 -1.10591,-5.82880186 -1.85833,-8.66345336 -1.50487,-5.66942 -3.5323,-11.117424 -6.02622,-16.291701 -4.9879,-10.348477 -11.84164,-19.601893 -20.11278,-27.340324 -16.54229,-15.476939 -38.75388,-24.894326 -63.04572,-24.894171 -50.96434,3.11e-4 -92.27891,41.31519 -92.27867,92.279529 4e-5,7.94145 1.02501,15.815694 3.02522,23.43383 1.00017,3.809068 2.24407,7.554118 3.72565,11.211583"
         sodipodi:nodetypes="cssssccsc" />
      <path
         id="path5236"
         style="color:#000000;fill:#275662;fill-opacity:1;fill-rule:evenodd;stroke-width:0.470953;stroke-linecap:round;stroke-linejoin:round;stroke-miterlimit:10"
         d="m -317.16275,-12.916794 a 0.23551157,0.23549937 0 0 0 5.1e-4,5.16e-4 0.23551157,0.23549937 0 0 1 10e-4,-5.16e-4 z m 5.1e-4,5.16e-4 a 0.23551157,0.23549937 0 0 0 -0.20826,0.04858 l -0.57774,0.497647 a 0.23551157,0.23549937 0 0 0 -0.0765,0.12144 l -0.57992,2.3202836 a 0.23551157,0.23549937 0 0 0 -0.002,0.01757 l -0.58045,3.4101451 a 0.23551157,0.23549937 0 0 0 -0.002,0.013436 l -1.15605,9.9043557 -0.57621,2.7228451 -1.1467,4.0700565 -0.55242,0.94155 -0.56483,0.65216 a 0.23551157,0.23549937 0 0 0 -0.0367,0.05891 l -0.58034,1.304319 a 0.23551157,0.23549937 0 0 0 -0.0119,0.03566 l -0.57618,2.20091 -0.56026,1.588025 -0.5474,0.597382 a 0.23551157,0.23549937 0 0 0 -0.0507,0.08992 l -0.57988,1.91979 a 0.23551157,0.23549937 0 0 0 -0.006,0.02377 l -1.15446,6.16193 -0.56018,1.912038 -0.30903,0.31471 -0.42373,-0.814425 -1.1524,-3.199303 a 0.23551157,0.23549937 0 0 0 -0.0351,-0.0646 l -0.57982,-0.746211 a 0.23551157,0.23549937 0 0 0 -0.33021,-0.04082 l -0.58033,0.453205 a 0.23551157,0.23549937 0 0 0 -0.0718,0.0956 l -0.57846,1.408189 a 0.23551157,0.23549937 0 0 0 -0.0119,0.03307 l -0.57835,2.330103 a 0.23551157,0.23549937 0 0 0 -0.006,0.02532 l -0.57825,4.476752 a 0.23551157,0.23549937 0 0 0 -0.002,0.0057 l -0.57619,5.55111 -0.48836,2.493918 -0.23047,-0.257868 -0.56224,-1.657787 -0.57413,-1.941494 -0.5762,-2.498052 -0.57827,-3.013784 -1.15807,-6.976355 -1.73664,-11.807091 -1.15809,-7.6171458 a 0.23551157,0.23549937 0 0 0 0,-0.00568 l -0.58032,-3.1993044 a 0.23551157,0.23549937 0 0 0 -0.002,-0.013436 l -0.57981,-2.3497395 a 0.23551157,0.23549937 0 0 0 -0.0258,-0.062528 l -0.57722,-0.9865081 a 0.23551157,0.23549937 0 0 0 -0.41238,0.00982 l -0.57775,1.1053646 a 0.23551157,0.23549937 0 0 0 -0.0258,0.076481 l -0.57774,4.157907 a 0.23551157,0.23549937 0 0 0 -0.002,0.013953 l -0.58043,7.8321202 a 0.23551157,0.23549937 0 0 0 0,0.0021 l -0.57848,9.599464 -0.57981,7.773208 -0.57619,4.660205 -1.15446,4.965097 a 0.23551157,0.23549937 0 0 0 -0.004,0.0155 l -0.57826,3.636489 a 0.23551157,0.23549937 0 0 0 -0.002,0.01395 l -1.15808,11.271205 -0.57827,4.055071 -0.57619,2.800876 -0.57206,2.155952 -0.52019,1.209234 -1.02938,0.158131 a 0.23551157,0.23549937 0 0 0 -0.13074,0.0646 l -0.57827,0.575678 a 0.23551157,0.23549937 0 0 0 -0.0346,0.04341 l -0.57827,0.939482 a 0.23551157,0.23549937 0 0 0 -0.0196,0.03669 l -0.57826,1.459351 a 0.23551157,0.23549937 0 0 0 -0.0114,0.03307 l -0.006,0.03101 a 0.23551157,0.23549937 0 0 0 0.031,0.181902 c 17.42638,26.841235 47.25505,43.038989 79.25823,43.038939 46.01733,-7e-5 85.3475,-33.150711 93.1342,-78.502072 a 0.23551157,0.23549937 0 0 0 0.002,-0.07235 0.23551157,0.23549937 0 0 0 -0.33591,-0.179317 l -0.56226,0.271302 a 0.23551157,0.23549937 0 0 0 -0.10542,0.101803 l -0.58035,1.097613 a 0.23551157,0.23549937 0 0 0 -0.0191,0.05426 l -1.14472,4.879314 -0.47081,0.505915 -0.48628,0.02739 a 0.23551157,0.23549937 0 0 0 -0.19743,0.130742 l -0.57828,1.171511 a 0.23551157,0.23549937 0 0 0 -0.0191,0.05116 l -0.57622,2.4903 -0.47288,1.507408 -0.28887,-0.234095 -0.54109,-0.709004 -0.56072,-1.42576 -0.57414,-2.400383 -0.57828,-2.7523 -3.47286,-19.017541 a 0.23551157,0.23549937 0 0 0 -0.002,-0.0021 l -1.15815,-5.93507 a 0.23551157,0.23549937 0 0 0 -0.002,-0.0098 l -0.57778,-2.3673096 a 0.23551157,0.23549937 0 0 0 -0.014,-0.03514 l -0.57776,-1.3575469 a 0.23551157,0.23549937 0 0 0 -0.3204,-0.1188564 l -0.58036,0.2868057 a 0.23551157,0.23549937 0 0 0 -0.12506,0.1622648 l -0.57987,2.6716852 a 0.23551157,0.23549937 0 0 0 -0.004,0.027389 l -0.57827,5.6446462 a 0.23551157,0.23549937 0 0 0 -0.002,0.0078 l -1.15657,17.658445 -0.57829,5.142348 -0.57778,3.068562 a 0.23551157,0.23549937 0 0 0 0,0.01137 l -0.58035,4.236455 a 0.23551157,0.23549937 0 0 0 0,0.0062 l -1.15814,11.136328 -1.15659,8.759717 -0.57418,2.820515 -0.57,1.599394 -0.55862,1.27383 -1.12919,1.165826 a 0.23551157,0.23549937 0 0 0 -0.0393,0.05271 l -1.15245,2.156469 -0.56642,0.869201 -0.55038,0.659911 -0.48681,0.353469 -0.43927,-0.02946 -0.52145,-0.306442 -0.5628,-0.408247 -1.1462,-0.937414 -1.14677,-1.089862 -1.14833,-1.250059 -2.31058,-2.839635 a 0.23551157,0.23549937 0 0 0 -0.008,-0.0078 l -1.15814,-1.291401 a 0.23551157,0.23549937 0 0 0 -0.0294,-0.02739 l -0.57775,-0.456822 a 0.23551157,0.23549937 0 0 0 -0.0646,-0.03514 l -0.58036,-0.212908 a 0.23551157,0.23549937 0 0 0 -0.14831,-0.0041 l -0.57986,0.176218 a 0.23551157,0.23549937 0 0 0 -0.11937,0.08165 l -0.57829,0.758097 a 0.23551157,0.23549937 0 0 0 -0.031,0.05478 l -1.15041,2.874775 -0.56846,0.908477 a 0.23551157,0.23549937 0 0 0 -0.0155,0.03101 l -1.15038,2.621041 -1.14262,1.755974 -0.54879,0.736393 -0.48269,0.293007 -0.49199,0.0057 -1.13696,-0.210841 a 0.23551157,0.23549937 0 0 0 -0.0491,-0.0041 l -0.57778,0.01602 a 0.23551157,0.23549937 0 0 0 -0.061,0.0098 l -1.15813,0.339516 a 0.23551157,0.23549937 0 0 0 -0.0155,0.0062 l -1.15816,0.429433 a 0.23551157,0.23549937 0 0 0 -0.047,0.02377 l -0.57981,0.382408 a 0.23551157,0.23549937 0 0 0 -0.0372,0.03152 l -0.56637,0.568444 -0.51005,0.384474 -0.492,0.02945 -1.12714,-0.07596 -4.61545,-0.982891 a 0.23551157,0.23549937 0 0 0 -0.014,-0.0036 l -1.15812,-0.177768 a 0.23551157,0.23549937 0 0 0 -0.0274,-0.0021 l -0.57781,-0.01964 a 0.23551157,0.23549937 0 0 0 -0.0336,0 l -0.57984,0.06459 a 0.23551157,0.23549937 0 0 0 -0.0315,0.0057 l -0.56798,0.141077 -0.54521,0.0801 -1.13697,-0.04703 a 0.23551157,0.23549937 0 0 0 -0.0367,0.0021 l -1.14259,0.136427 -0.54105,-0.0078 -2.8734,-0.578262 a 0.23551157,0.23549937 0 0 0 -0.0217,-0.0036 l -1.71682,-0.195338 -1.12865,-0.332281 -1.72086,-0.642341 -1.72302,-0.794788 -1.14265,-0.627355 -1.72248,-1.105365 -2.88879,-2.197292 a 0.23551157,0.23549937 0 0 0 -0.004,-0.0021 l -1.7365,-1.263494 a 0.23551157,0.23549937 0 0 0 -0.0253,-0.0155 l -0.57831,-0.318328 a 0.23551157,0.23549937 0 0 0 -0.0486,-0.01964 l -0.57829,-0.167949 a 0.23551157,0.23549937 0 0 0 -0.0527,-0.0078 l -0.54673,-0.03152 -1.12913,-0.380857 a 0.23551157,0.23549937 0 0 0 -0.0388,-0.0098 l -1.1271,-0.171567 -0.51164,-0.232545 -0.53955,-0.515734 -0.56437,-0.699186 -2.31268,-3.271651 a 0.23551157,0.23549937 0 0 0 -0.004,-0.0036 l -1.15807,-1.548751 a 0.23551157,0.23549937 0 0 0 -0.0176,-0.02377 l -0.57981,-0.601517 a 0.23551157,0.23549937 0 0 0 -0.0217,-0.01912 l -0.56638,-0.463023 -0.553,-0.568444 -0.55658,-0.927597 -0.57213,-1.232489 -1.73649,-4.095895 a 0.23551157,0.23549937 0 0 0 -0.002,-0.0021 l -1.15653,-2.624659 a 0.23551157,0.23549937 0 0 0 -0.008,-0.01602 l -0.57825,-1.095547 a 0.23551157,0.23549937 0 0 0 -0.0176,-0.02739 l -0.5798,-0.800472 a 0.23551157,0.23549937 0 0 0 -0.0744,-0.06873 l -0.58033,-0.328146 a 0.23551157,0.23549937 0 0 0 -0.21446,-0.0078 l -0.57832,0.267685 a 0.23551157,0.23549937 0 0 0 -0.0724,0.05271 l -0.57831,0.611335 a 0.23551157,0.23549937 0 0 0 -0.0233,0.02739 l -0.57989,0.841813 a 0.23551157,0.23549937 0 0 0 -0.014,0.02325 l -0.55298,1.039219 -0.32611,0.23823 -0.43362,-0.744145 -0.57205,-1.669674 -1.15653,-3.754312 -1.73634,-5.759367 a 0.23551157,0.23549937 0 0 0 -0.004,-0.0098 l -0.57832,-1.66244 a 0.23551157,0.23549937 0 0 0 -0.004,-0.01137 l -0.57987,-1.408189 a 0.23551157,0.23549937 0 0 0 -0.0196,-0.03928 l -0.5804,-0.890389 a 0.23551157,0.23549937 0 0 0 -0.17934,-0.107488 l -0.57831,-0.04289 a 0.23551157,0.23549937 0 0 0 -0.23052,0.130743 l -0.57827,1.179778 a 0.23551157,0.23549937 0 0 0 -0.0176,0.04858 l -1.73841,7.40062 a 0.23551157,0.23549937 0 0 0 -0.002,0.01344 l -1.156,6.640456 -0.5762,2.605538 -0.56645,1.81282 -0.5468,0.853181 -0.46723,0.433568 -0.4238,-0.08372 -0.54679,-0.312644 a 0.23551157,0.23549937 0 0 0 -0.13849,-0.02946 l -0.58034,0.05478 a 0.23551157,0.23549937 0 0 0 -0.13694,0.06046 l -0.57776,0.533303 a 0.23551157,0.23549937 0 0 0 -0.0315,0.03359 l -0.57773,0.788586 a 0.23551157,0.23549937 0 0 0 -0.0103,0.01602 l -0.56637,0.913643 -0.41186,0.4222 -0.37725,-0.304893 -1.71117,-2.907848 -1.14841,-2.50787 -1.15239,-3.046858 -0.5762,-1.840208 -1.156,-4.19718 -1.15654,-4.759942 -1.15611,-5.302545 -1.7386,-8.664115 a 0.23551157,0.23549937 0 0 0 0,-5.17e-4 0.23551157,0.23549937 0 0 0 0,-5.16e-4 0.23551157,0.23549937 0 0 0 0,-5.17e-4 0.23551157,0.23549937 0 0 0 0,-5.17e-4 l -1.15809,-5.593486 a 0.23551157,0.23549937 0 0 0 -0.002,-0.0078 l -0.57825,-2.37506 a 0.23551157,0.23549937 0 0 0 -0.004,-0.0155 l -0.57981,-1.822637 a 0.23551157,0.23549937 0 0 0 -0.0119,-0.02894 l -1.15239,-2.453093 -0.57,-1.549268 -1.15465,-4.9315073 a 0.23551157,0.23549937 0 0 0 -0.004,-0.013436 l -0.57992,-1.9590604 a 0.23551157,0.23549937 0 0 0 -0.002,-0.00775 l -0.57619,-1.7265184 -0.57414,-2.6391289 -0.57619,-3.77498274 -1.16014,-7.52774436 a 0.23551157,0.23549937 0 0 0 -0.002,-0.011369 l -0.57826,-2.8106959 a 0.23551157,0.23549937 0 0 0 -0.0119,-0.03927 l -0.57982,-1.443329 a 0.23551157,0.23549937 0 0 0 -0.16175,-0.140045 z" />
    </g>
  </g>
</svg>
