<?xml version="1.0" encoding="UTF-8" standalone="no"?>
<svg
   xmlns:dc="http://purl.org/dc/elements/1.1/"
   xmlns:cc="http://creativecommons.org/ns#"
   xmlns:rdf="http://www.w3.org/1999/02/22-rdf-syntax-ns#"
   xmlns:svg="http://www.w3.org/2000/svg"
   xmlns="http://www.w3.org/2000/svg"
   xmlns:sodipodi="http://sodipodi.sourceforge.net/DTD/sodipodi-0.dtd"
   xmlns:inkscape="http://www.inkscape.org/namespaces/inkscape"
   width="199.0274mm"
   height="199.0163mm"
   viewBox="0 0 199.0274 199.0163"
   version="1.1"
   id="svg5283"
   inkscape:version="1.0.2 (e86c8708, 2021-01-15)"
   sodipodi:docname="evalhyd-logo.svg">
  <defs
     id="defs5277" />
  <sodipodi:namedview
     id="base"
     pagecolor="#ffffff"
     bordercolor="#666666"
     borderopacity="1.0"
     inkscape:pageopacity="0.0"
     inkscape:pageshadow="2"
     inkscape:zoom="0.35"
     inkscape:cx="584.68626"
     inkscape:cy="936.09366"
     inkscape:document-units="mm"
     inkscape:current-layer="layer1"
     inkscape:document-rotation="0"
     showgrid="false"
     fit-margin-top="5"
     fit-margin-left="5"
     fit-margin-bottom="5"
     fit-margin-right="5"
     inkscape:window-width="1252"
     inkscape:window-height="943"
     inkscape:window-x="0"
     inkscape:window-y="25"
     inkscape:window-maximized="0" />
  <metadata
     id="metadata5280">
    <rdf:RDF>
      <cc:Work
         rdf:about="">
        <dc:format>image/svg+xml</dc:format>
        <dc:type
           rdf:resource="http://purl.org/dc/dcmitype/StillImage" />
        <dc:title></dc:title>
      </cc:Work>
    </rdf:RDF>
  </metadata>
  <g
     inkscape:label="Layer 1"
     inkscape:groupmode="layer"
     id="layer1"
     transform="translate(48.864906,99.508114)">
    <g
       id="g5242"
       transform="matrix(0.35277777,0,0,-0.35277777,-1021.1404,-1521.5836)">
      <g
         id="g5084-9-3"
         transform="matrix(1.7232126,0,0,1.7232126,4690.2687,136.84767)"
         inkscape:export-xdpi="136.84"
         inkscape:export-ydpi="136.84">
        <path
           id="path8657-0-05-0-2-3-4-0-4-5"
           style="fill:#259bd2;fill-opacity:1;fill-rule:evenodd;stroke:#259bd2;stroke-width:0.77475;stroke-linecap:round;stroke-linejoin:round;stroke-miterlimit:10;stroke-dasharray:none;stroke-opacity:1"
           d="m -804.00498,-2572.0973 -0.0249,0.025 -0.95215,-1.3697 -0.95215,-3.914 -0.95361,-3.2403 -0.95214,-0.3603 -0.95215,-1.6992 -1.90577,-7.8926 -0.95214,-0.8921 -0.95215,0.081 -0.95215,-1.7827 -0.95362,-3.958 -0.95214,-2.8755 -0.95215,0.9477 -0.95215,1.4312 -0.95362,2.6191 -0.95214,4.1924 -1.9043,10.0225 -4.76367,27.7221 -1.9043,10.4898 -0.95215,4.2905 -0.95215,2.6587 -0.95361,-0.021 -0.95215,-3.9155 -0.95214,-8.7759 -1.90577,-27.9463 -0.95215,-7.8853 -0.95214,-4.4384 -0.95215,-6.3223 -1.90577,-17.0142 -1.90429,-13.2041 -0.95362,-4.1806 -0.95215,-2.3174 -0.95214,-2.0493 -0.95215,-1.2188 -0.95362,-1.7182 -0.95215,-3.2534 -0.95214,-4.1133 -0.95215,-2.6734 -0.95361,-0.7646 -0.95215,-0.1743 -0.95215,0.6665 -0.95215,1.2436 -1.90576,2.959 -1.90429,3.4175 -1.90577,3.9126 -1.90429,4.4092 -2.85792,7.289 -1.90429,4.7447 -0.95362,2.0156 -0.95215,1.5029 -0.95214,0.6768 -0.95215,-0.6065 -0.95362,-2.2309 -1.90429,-6.2915 -0.95215,-5.6045 -0.95361,-7.5821 -1.9043,-14.4345 -0.95215,-5.4771 -0.95361,-1.4458 -0.95215,-0.016 -1.90429,0.4336 -0.95216,-0.041 -0.95361,-0.3091 -0.95215,-0.4189 -1.90429,-0.9404 -0.95362,-0.8277 -0.95215,-1.2554 -0.95214,-0.9638 -0.95215,-0.104 -1.90577,0.104 -7.62011,1.8091 -1.9043,0.3091 -0.95361,0.016 -0.95215,-0.1495 -0.95215,-0.309 -0.95214,-0.1963 -1.90577,0.035 -0.95215,-0.1231 -0.95214,-0.2197 -0.95215,-0.019 -3.81006,0.7807 -1.90577,0.3106 -1.90429,0.1348 -1.90577,0.5566 -2.8579,1.0708 -2.85645,1.3213 -1.90576,1.043 -2.85645,1.8398 -4.76367,3.6255 -2.85644,2.0786 -0.95362,0.5244 -0.95215,0.2783 -0.95215,0.054 -1.90576,0.6446 -1.9043,0.2944 -0.95214,0.4292 -0.95361,0.9141 -0.95215,1.1806 -3.81006,5.3936 -1.9043,2.5517 -0.95215,0.9917 -0.95361,0.7764 -0.95215,0.9829 -0.95215,1.5835 -0.95214,2.0552 -2.85792,6.7441 -1.90576,4.3184 -0.95215,1.8061 -0.95215,1.3184 -0.95214,0.542 -0.95362,-0.4409 -0.95215,-1.0049 -0.95215,-1.3814 -0.95214,-1.7885 -0.95361,-0.6958 -0.95215,1.6303 -0.95216,2.792 -1.90575,6.1846 -2.85645,9.4819 -0.95215,2.7334 -0.95361,2.3203 -0.95215,1.4664 -0.95215,0.073 -0.95214,-1.938 -2.85792,-12.1656 -1.90579,-10.9306 -0.9521,-4.3081 -0.9522,-3.0454 -0.9521,-1.4869 -0.9536,-0.8789 -0.9522,0.1934 -0.9521,0.5449 -0.9522,-0.088 -0.9536,-0.873 -0.9521,-1.295 -0.9522,-1.5351 -0.9521,-0.9771 -0.9536,0.7735 -2.8565,4.8735 -1.9058,4.1602 -1.9043,5.0464 -0.9521,3.0483 -1.9058,6.9272 -1.9043,7.8501 -1.9057,8.7452 -2.8579,14.2763 -1.9043,9.2168 -0.9522,3.9126 -0.9536,3.0088 -1.9043,4.0708 -0.9521,2.5957 -1.9058,8.1592 -0.9521,3.2329 -0.9522,2.8755 -0.9521,4.3843 -0.9536,6.2358 -1.9044,12.4116 -0.9521,4.6407 -0.9536,2.3906 -0.9522,-0.7998 -0.9521,-3.7969 -0.9522,-5.5913 -1.9057,-16.2686 -0.9522,-4.4853 -1.9057,-6.7046 -0.9522,-1.5938 -0.9521,-1.0707 -0.9522,-2.1138 -0.9536,-3.6035 -0.9521,-2.6661 -0.9522,-1.0034 -0.9521,-3.1172 -1.9058,-10.0664 -0.9521,-3.2109 -0.9522,-0.9141 -0.9521,1.8882 -1.9058,5.4038 -0.9521,1.292 -0.9522,-0.6767 -0.9536,-2.2456 -0.9522,-3.7544 -0.9521,-7.2803 -0.9522,-9.0645 -0.9536,-4.7915 -0.9521,1.1617 -0.9522,2.915 -0.9521,3.3223 -0.9536,4.2466 -0.9522,5.0961 -1.9043,11.7613 -2.8579,19.9174 -1.9057,12.9126 -0.9522,5.4727 -0.9521,4.0928 -0.9522,1.8618 -0.9536,-1.5586 -0.9521,-6.564 -0.9522,-12.5888 -0.9521,-15.482 -0.9522,-12.4673 -0.9536,-7.3403 -1.9043,-7.4092 -0.9522,-5.5605 -1.9057,-17.6499 -0.9522,-6.2183 -0.9521,-4.1528 -0.9536,-3.1128 -0.9522,-1.7593 -0.9521,0.2988 -0.9522,0.1377 -0.9536,-0.7544 -0.9521,-1.5571 -0.9522,-2.7173 -0.9521,-4.9922 -2.8579,-22.9702 -0.1875,-0.6401 a 155.05755,155.05755 0 0 1 135.05708,-78.8863 155.05755,155.05755 0 0 1 155.05811,155.0567 155.05755,155.05755 0 0 1 -0.34277,10.3066 z" />
        <path
           id="path8657-7-3-2-3-0-9-1-9-5"
           style="fill:#003a80;fill-opacity:1;fill-rule:evenodd;stroke:#003a80;stroke-width:0.77475;stroke-linecap:round;stroke-linejoin:round;stroke-miterlimit:10;stroke-dasharray:none;stroke-opacity:1"
           d="m -805.89902,-2608.6408 -0.92432,-0.4468 -0.95215,-1.8047 -1.9043,-8.1255 -0.95215,-1.021 -0.95361,-0.054 -0.95215,-1.9277 -0.95215,-4.1118 -0.95215,-3.0381 -0.95361,0.7734 -0.95214,1.2452 -0.95216,2.4213 -0.95215,3.9815 -0.95361,4.5366 -5.71435,31.2905 -1.90577,9.7632 -0.95214,3.8921 -0.95215,2.2324 -0.95215,-0.4731 -0.95361,-4.3975 -0.95216,-9.2856 -1.90429,-29.0581 -0.95215,-8.4829 -0.95361,-5.0625 -0.95215,-6.9668 -1.9043,-18.3252 -1.90576,-14.4287 -0.95215,-4.6802 -0.95215,-2.669 -0.95361,-2.1723 -1.90429,-1.9688 -1.90577,-3.5595 -0.95215,-1.4649 -0.95214,-1.1411 -0.95215,-0.6914 -0.95362,0.062 -0.95215,0.561 -0.95214,0.69 -1.90576,1.5571 -1.9043,1.812 -1.90576,2.0742 -3.8086,4.6817 -1.90576,2.124 -0.95215,0.75 -0.95215,0.3472 -0.95361,-0.2871 -0.95215,-1.2466 -1.90429,-4.7608 -0.95362,-1.5249 -1.90429,-4.3403 -1.90577,-2.9268 -0.95215,-1.2817 -0.95214,-0.5771 -0.95215,-0.01 -1.90577,0.3544 -0.95214,-0.026 -1.90576,-0.5595 -1.9043,-0.7076 -0.95215,-0.6284 -0.95215,-0.9565 -0.95361,-0.7207 -0.95215,-0.056 -1.9043,0.1303 -7.62011,1.6231 -1.90577,0.2929 -0.95214,0.032 -0.95215,-0.1041 -0.95361,-0.2373 -0.95216,-0.1406 -1.90429,0.079 -1.90576,-0.2285 -0.95215,0.015 -4.76221,0.9595 -2.85791,0.3237 -1.90429,0.5596 -2.85791,1.0693 -2.85792,1.3184 -1.90429,1.0429 -2.85792,1.8369 -4.7622,3.6211 -2.85791,2.0772 -0.95215,0.5229 -0.95215,0.2769 -0.95361,0.054 -1.9043,0.643 -1.90576,0.2916 -0.95215,0.4292 -0.95215,0.9126 -0.95214,1.1791 -3.81006,5.3907 -1.90577,2.5488 -0.95215,0.9917 -0.95214,0.7749 -0.95361,0.9814 -0.95215,1.5835 -0.95216,2.0538 -2.8579,6.7412 -1.9043,4.3169 -0.95215,1.8032 -0.95361,1.3184 -0.95215,0.5405 -0.95215,-0.4424 -0.95214,-1.0064 -0.95362,-1.3828 -0.95215,-1.79 -0.95215,-0.6973 -0.95214,1.6289 -0.95362,2.7906 -1.9043,6.1816 -2.85791,9.4775 -0.95215,2.732 -0.95214,2.3188 -0.95361,1.4649 -0.95215,0.072 -0.95216,-1.9395 -2.8579,-12.1728 -1.9043,-10.9351 -0.95219,-4.3096 -0.9536,-3.0468 -0.9521,-1.4913 -0.9522,-0.8803 -0.9521,0.1904 -0.9536,0.5435 -0.9522,-0.091 -0.9521,-0.876 -0.9522,-1.2979 -0.9536,-1.5381 -0.9521,-0.9799 -0.9522,0.7705 -2.8579,4.8618 -1.9043,4.1528 -1.9057,5.0362 -0.9522,3.0439 -1.9043,6.917 -1.9058,7.8398 -1.9043,8.7334 -2.8579,14.2559 -1.9057,9.2021 -0.9522,3.9053 -0.9521,2.9986 -1.9058,4.0517 -0.9521,2.5855 -1.9043,8.1372 -0.9536,3.2226 -0.9522,2.8623 -0.9521,4.3726 -0.9522,6.2212 -1.9057,12.3823 -0.9522,4.6245 -0.9522,2.3731 -0.9521,-0.8174 -0.9536,-3.8159 -0.9522,-5.6119 -1.9043,-16.3125 -0.9536,-4.5087 -1.9043,-6.7559 -0.9521,-1.6231 -0.9536,-1.1001 -0.9522,-2.1459 -0.9521,-3.6358 -0.9522,-2.7026 -0.9536,-1.0401 -0.9521,-3.1567 -1.9043,-10.1543 -0.9536,-3.2578 -0.9522,-0.9653 -0.9521,1.8354 -1.9058,5.2866 -0.9521,1.2276 -0.9522,-0.7456 -0.9522,-2.3174 -0.9536,-3.8321 -0.9521,-7.3623 -0.9522,-9.1494 -0.9521,-4.8852 -0.9522,1.0634 -0.9536,2.8111 -0.9521,3.2109 -0.9522,4.128 -0.9521,4.9702 -1.9058,11.4843 -2.8579,19.4268 -1.9043,12.5288 -0.9521,5.2617 -0.9536,3.8657 -0.9522,1.6216 -0.9521,-1.8178 -0.9522,-6.8394 -0.9536,-12.8818 -0.9521,-15.7954 -0.9522,-12.7998 -0.9522,-7.6963 -1.9057,-8.1856 -0.9522,-5.9824 -1.9043,-18.5493 -0.9536,-6.6914 -0.9521,-4.6304 -0.9522,-3.5845 -0.9521,-2.2119 -1.9058,-0.2915 -0.9521,-0.9463 -0.9522,-1.5454 -0.9536,-2.4009 -0.012,-0.05 a 155.05755,155.05755 0 0 1 130.05468,-70.6259 155.05755,155.05755 0 0 1 152.8213,128.8198 z" />
        <path
           id="path2963-8-6-1-3-0-2-9-6-4"
           style="fill:none;fill-rule:evenodd;stroke:#a3c208;stroke-width:7.3425;stroke-linecap:round;stroke-linejoin:round;stroke-miterlimit:10;stroke-dasharray:none;stroke-opacity:1"
           d="m -807.94796,-2564.8857 c -0.28355,2.456 -0.62517,4.8933 -1.02338,7.3106 -0.79645,4.8345 -1.81934,9.5888 -3.05715,14.252 -2.47562,9.3266 -5.81089,18.289 -9.91359,26.801 -8.20537,17.0241 -19.4804,32.2466 -33.08703,44.9769 -27.21328,25.4607 -63.753,40.953 -103.71491,40.9528 -83.84008,-5e-4 -151.80558,-67.9666 -151.80528,-151.8067 10e-5,-13.0643 1.6863,-26.018 4.9768,-38.5504 1.6453,-6.2662 3.6916,-12.4271 6.1289,-18.4439"
           sodipodi:nodetypes="cssssccsc" />
      </g>
    </g>
  </g>
</svg>
